<?xml version="1.0" encoding="UTF-8" standalone="no"?>
<!DOCTYPE svg PUBLIC "-//W3C//DTD SVG 1.1//EN" "http://www.w3.org/Graphics/SVG/1.1/DTD/svg11.dtd">
<!-- 由 Microsoft Visio, SVG Export 生成 torch.nn.ConvTransposed1d_figure_3.svg 页-1 -->
<svg xmlns="http://www.w3.org/2000/svg" xmlns:xlink="http://www.w3.org/1999/xlink" xmlns:ev="http://www.w3.org/2001/xml-events"
		xmlns:v="http://schemas.microsoft.com/visio/2003/SVGExtensions/" width="2.87365in" height="2.71074in"
		viewBox="0 0 206.903 195.173" xml:space="preserve" color-interpolation-filters="sRGB" class="st19">
	<v:documentProperties v:langID="2052" v:metric="true" v:viewMarkup="false"/>

	<style type="text/css">
	<![CDATA[
		.st1 {fill:none;stroke:none;stroke-width:0.5}
		.st2 {fill:#000000;font-family:宋体;font-size:0.499992em}
		.st3 {font-size:1em}
		.st4 {fill:#ffffff;stroke:#000000;stroke-width:0.5}
		.st5 {marker-end:url(#mrkr7-43);stroke:#000000;stroke-linecap:round;stroke-linejoin:round;stroke-width:0.5}
		.st6 {fill:#000000;fill-opacity:1;stroke:#000000;stroke-opacity:1;stroke-width:0.21739130434783}
		.st7 {marker-end:url(#mrkr3-68);stroke:#5b9bd5;stroke-linecap:round;stroke-linejoin:round;stroke-width:0.5}
		.st8 {fill:#5b9bd5;fill-opacity:1;stroke:#5b9bd5;stroke-opacity:1;stroke-width:0.25773195876289}
		.st9 {fill:#ff0000;font-family:宋体;font-size:0.499992em}
		.st10 {fill:#ffffff;stroke:#ff0000;stroke-width:0.5}
		.st11 {fill:none;stroke:#ff0000;stroke-width:0.5}
		.st12 {fill:none;stroke:#4672c4;stroke-width:0.5}
		.st13 {fill:none;stroke:#70ad47;stroke-width:0.5}
		.st14 {fill:none;stroke:#7030a0;stroke-width:0.5}
		.st15 {fill:none;stroke:#000000;stroke-width:0.5}
		.st16 {marker-end:url(#mrkr3-143);stroke:#ed7d31;stroke-linecap:round;stroke-linejoin:round;stroke-width:0.5}
		.st17 {fill:#ed7d31;fill-opacity:1;stroke:#ed7d31;stroke-opacity:1;stroke-width:0.25773195876289}
		.st18 {fill:none;stroke:#5b9bd5;stroke-width:0.5}
		.st19 {fill:none;fill-rule:evenodd;font-size:12px;overflow:visible;stroke-linecap:square;stroke-miterlimit:3}
	]]>
	</style>

	<defs id="Markers">
		<g id="lend7">
			<path
					d="M 1.84309 -0.959456 C 1.43792 -0.380801 0.784503 -0.0260255 0.078527 -0.00137091 L 0.0785229 0.00137043 C 0.784499 0.0260231 1.43791 0.380798 1.84309 0.959452 "
					style="stroke-linecap:round;stroke-linejoin:round;fill:none"/>
		</g>
		<marker id="mrkr7-43" class="st6" v:arrowType="7" v:arrowSize="1" orient="auto" markerUnits="strokeWidth"
				overflow="visible">
			<use xlink:href="#lend7" transform="scale(-4.6,-4.6) "/>
		</marker>
		<g id="lend3">
			<path d="M 2 1 L 0 0 L 2 -1 " style="stroke-linecap:round;stroke-linejoin:round;fill:none"/>
		</g>
		<marker id="mrkr3-68" class="st8" v:arrowType="3" v:arrowSize="0" orient="auto" markerUnits="strokeWidth"
				overflow="visible">
			<use xlink:href="#lend3" transform="scale(-3.88,-3.88) "/>
		</marker>
		<marker id="mrkr3-143" class="st17" v:arrowType="3" v:arrowSize="0" orient="auto" markerUnits="strokeWidth"
				overflow="visible">
			<use xlink:href="#lend3" transform="scale(-3.88,-3.88) "/>
		</marker>
	</defs>
	<g v:mID="0" v:index="1" v:groupContext="foregroundPage">
		<title>页-1</title>
		<v:pageProperties v:drawingScale="0.0393701" v:pageScale="0.0393701" v:drawingUnits="24" v:shadowOffsetX="8.50394"
				v:shadowOffsetY="-8.50394"/>
		<v:layer v:name="连接线" v:index="0"/>
		<g id="group152-1" transform="translate(0.5,-0.5)" v:mID="152" v:groupContext="group">
			<title>工作表.152</title>
			<g id="shape5-2" v:mID="5" v:groupContext="shape" transform="translate(5.75284E-06,-148.819)">
				<title>工作表.5</title>
				<desc>输入的维度为(1,1,3) 卷积核的维度为(1,1,2) 输出的维度为(1,1,4)</desc>
				<v:textBlock v:margins="rect(4,4,4,4)" v:tabSpace="42.5197"/>
				<v:textRect cx="56.6929" cy="172.496" width="113.39" height="45.3543"/>
				<rect x="0" y="149.819" width="113.386" height="45.3543" class="st1"/>
				<text x="4" y="167.1" class="st2" v:langID="2052"><v:paragraph/><v:tabList/>输入的维度为(1,1,3)<v:newlineChar/><tspan
							x="4" dy="1.2em" class="st3">卷积核的维度为</tspan>(1,1,2)<v:newlineChar/><tspan x="4" dy="1.2em" class="st3">输出的维度为</tspan>(1,1,4)</text>			</g>
			<g id="shape9-7" v:mID="9" v:groupContext="shape" transform="translate(3.78107E-06,-116.22)">
				<title>工作表.9</title>
				<desc>Input</desc>
				<v:textBlock v:margins="rect(4,4,4,4)" v:tabSpace="42.5197"/>
				<v:textRect cx="28.3465" cy="188.087" width="56.7" height="14.1732"/>
				<rect x="0" y="181" width="56.6929" height="14.1732" class="st1"/>
				<text x="20.85" y="189.89" class="st2" v:langID="2052"><v:paragraph v:horizAlign="1"/><v:tabList/>Input</text>			</g>
			<g id="shape10-10" v:mID="10" v:groupContext="shape" transform="translate(3.78107E-06,-59.5276)">
				<title>工作表.10</title>
				<desc>Kernel</desc>
				<v:textBlock v:margins="rect(4,4,4,4)" v:tabSpace="42.5197"/>
				<v:textRect cx="28.3465" cy="188.087" width="56.7" height="14.1732"/>
				<rect x="0" y="181" width="56.6929" height="14.1732" class="st1"/>
				<text x="19.35" y="189.89" class="st2" v:langID="2052"><v:paragraph v:horizAlign="1"/><v:tabList/>Kernel</text>			</g>
			<g id="shape11-13" v:mID="11" v:groupContext="shape" transform="translate(1.80931E-06,-2.83466)">
				<title>工作表.11</title>
				<desc>Output</desc>
				<v:textBlock v:margins="rect(4,4,4,4)" v:tabSpace="42.5197"/>
				<v:textRect cx="28.3465" cy="188.087" width="56.7" height="14.1732"/>
				<rect x="0" y="181" width="56.6929" height="14.1732" class="st1"/>
				<text x="19.35" y="189.89" class="st2" v:langID="2052"><v:paragraph v:horizAlign="1"/><v:tabList/>Output</text>			</g>
			<g id="shape15-16" v:mID="15" v:groupContext="shape" transform="translate(68.0315,-1.41733)">
				<title>正方形.15</title>
				<desc>35</desc>
				<v:userDefs>
					<v:ud v:nameU="visVersion" v:val="VT0(15):26"/>
				</v:userDefs>
				<v:textBlock v:margins="rect(4,4,4,4)" v:tabSpace="42.5197"/>
				<v:textRect cx="8.50394" cy="186.669" width="17.01" height="17.0079"/>
				<rect x="0" y="178.165" width="17.0079" height="17.0079" class="st4"/>
				<text x="5.5" y="188.47" class="st2" v:langID="2052"><v:paragraph v:horizAlign="1"/><v:tabList/>35</text>			</g>
			<g id="shape16-19" v:mID="16" v:groupContext="shape" transform="translate(85.0394,-1.41733)">
				<title>正方形.16</title>
				<desc>26</desc>
				<v:userDefs>
					<v:ud v:nameU="visVersion" v:val="VT0(15):26"/>
				</v:userDefs>
				<v:textBlock v:margins="rect(4,4,4,4)" v:tabSpace="42.5197"/>
				<v:textRect cx="8.50394" cy="186.669" width="17.01" height="17.0079"/>
				<rect x="0" y="178.165" width="17.0079" height="17.0079" class="st4"/>
				<text x="5.5" y="188.47" class="st2" v:langID="2052"><v:paragraph v:horizAlign="1"/><v:tabList/>26</text>			</g>
			<g id="shape17-22" v:mID="17" v:groupContext="shape" transform="translate(102.047,-1.41733)">
				<title>正方形.17</title>
				<desc>45</desc>
				<v:userDefs>
					<v:ud v:nameU="visVersion" v:val="VT0(15):26"/>
				</v:userDefs>
				<v:textBlock v:margins="rect(4,4,4,4)" v:tabSpace="42.5197"/>
				<v:textRect cx="8.50394" cy="186.669" width="17.01" height="17.0079"/>
				<rect x="0" y="178.165" width="17.0079" height="17.0079" class="st4"/>
				<text x="5.5" y="188.47" class="st2" v:langID="2052"><v:paragraph v:horizAlign="1"/><v:tabList/>45</text>			</g>
			<g id="shape18-25" v:mID="18" v:groupContext="shape" transform="translate(119.055,-1.41733)">
				<title>正方形.18</title>
				<desc>6</desc>
				<v:userDefs>
					<v:ud v:nameU="visVersion" v:val="VT0(15):26"/>
				</v:userDefs>
				<v:textBlock v:margins="rect(4,4,4,4)" v:tabSpace="42.5197"/>
				<v:textRect cx="8.50394" cy="186.669" width="17.01" height="17.0079"/>
				<rect x="0" y="178.165" width="17.0079" height="17.0079" class="st4"/>
				<text x="7" y="188.47" class="st2" v:langID="2052"><v:paragraph v:horizAlign="1"/><v:tabList/>6</text>			</g>
			<g id="shape1-28" v:mID="1" v:groupContext="shape" transform="translate(76.5354,-114.803)">
				<title>正方形</title>
				<desc>5</desc>
				<v:userDefs>
					<v:ud v:nameU="visVersion" v:val="VT0(15):26"/>
				</v:userDefs>
				<v:textBlock v:margins="rect(4,4,4,4)" v:tabSpace="42.5197"/>
				<v:textRect cx="8.50394" cy="186.669" width="17.01" height="17.0079"/>
				<rect x="0" y="178.165" width="17.0079" height="17.0079" class="st4"/>
				<text x="7" y="188.47" class="st2" v:langID="2052"><v:paragraph v:horizAlign="1"/><v:tabList/>5</text>			</g>
			<g id="shape2-31" v:mID="2" v:groupContext="shape" transform="translate(93.5433,-114.803)">
				<title>正方形.2</title>
				<desc>3</desc>
				<v:userDefs>
					<v:ud v:nameU="visVersion" v:val="VT0(15):26"/>
				</v:userDefs>
				<v:textBlock v:margins="rect(4,4,4,4)" v:tabSpace="42.5197"/>
				<v:textRect cx="8.50394" cy="186.669" width="17.01" height="17.0079"/>
				<rect x="0" y="178.165" width="17.0079" height="17.0079" class="st4"/>
				<text x="7" y="188.47" class="st2" v:langID="2052"><v:paragraph v:horizAlign="1"/><v:tabList/>3</text>			</g>
			<g id="shape3-34" v:mID="3" v:groupContext="shape" transform="translate(110.551,-114.803)">
				<title>正方形.3</title>
				<desc>6</desc>
				<v:userDefs>
					<v:ud v:nameU="visVersion" v:val="VT0(15):26"/>
				</v:userDefs>
				<v:textBlock v:margins="rect(4,4,4,4)" v:tabSpace="42.5197"/>
				<v:textRect cx="8.50394" cy="186.669" width="17.01" height="17.0079"/>
				<rect x="0" y="178.165" width="17.0079" height="17.0079" class="st4"/>
				<text x="7" y="188.47" class="st2" v:langID="2052"><v:paragraph v:horizAlign="1"/><v:tabList/>6</text>			</g>
			<g id="group76-37" transform="translate(161.575,-137.48)" v:mID="76" v:groupContext="group">
				<title>工作表.76</title>
				<g id="shape70-38" v:mID="70" v:groupContext="shape" v:layerMember="0" transform="translate(4.25196,-28.6723)">
					<title>动态连接线.156</title>
					<path d="M7.09 195.17 L7.09 223.85" class="st5"/>
				</g>
				<g id="shape71-44" v:mID="71" v:groupContext="shape" v:layerMember="0" transform="translate(11.3386,-21.5857)">
					<title>动态连接线.157</title>
					<path d="M0 188.09 L28.35 188.09" class="st5"/>
				</g>
				<g id="shape72-49" v:mID="72" v:groupContext="shape" v:layerMember="0" transform="translate(11.3386,-28.6723)">
					<title>动态连接线.158</title>
					<path d="M0 195.17 L19.84 175.1" class="st5"/>
				</g>
				<g id="shape73-54" v:mID="73" v:groupContext="shape" transform="translate(11.3386,-15.7698)">
					<title>工作表.73</title>
					<desc>dim=2</desc>
					<v:textBlock v:margins="rect(4,4,4,4)" v:tabSpace="42.5197"/>
					<v:textRect cx="14.1732" cy="188.005" width="28.35" height="14.3361"/>
					<rect x="0" y="180.837" width="28.3465" height="14.3361" class="st1"/>
					<text x="6.67" y="189.81" class="st2" v:langID="2052"><v:paragraph v:horizAlign="1"/><v:tabList/>dim=2</text>				</g>
				<g id="shape74-57" v:mID="74" v:groupContext="shape" transform="translate(-124.71,30.7972) rotate(-45)">
					<title>工作表.74</title>
					<desc>dim=1</desc>
					<v:textBlock v:margins="rect(4,4,4,4)" v:tabSpace="42.5197"/>
					<v:textRect cx="14.2547" cy="188.046" width="28.51" height="14.2547"/>
					<rect x="0" y="180.919" width="28.5094" height="14.2547" class="st1"/>
					<text x="6.75" y="189.85" class="st2" v:langID="2052"><v:paragraph v:horizAlign="1"/><v:tabList/>dim=1</text>				</g>
				<g id="shape75-60" v:mID="75" v:groupContext="shape" transform="translate(-181,193.619) rotate(-90)">
					<title>工作表.75</title>
					<desc>dim=0</desc>
					<v:textBlock v:margins="rect(4,4,4,4)" v:tabSpace="42.5197"/>
					<v:textRect cx="14.3361" cy="188.087" width="28.68" height="14.1732"/>
					<rect x="0" y="181" width="28.6723" height="14.1732" class="st1"/>
					<text x="6.84" y="189.89" class="st2" v:langID="2052"><v:paragraph v:horizAlign="1"/><v:tabList/>dim=0</text>				</g>
			</g>
			<g id="shape83-63" v:mID="83" v:groupContext="shape" v:layerMember="0" transform="translate(82.2047,-86.4567)">
				<title>动态连接线.83</title>
				<path d="M2.83 195.17 L11.34 261.79" class="st7"/>
			</g>
			<g id="shape85-69" v:mID="85" v:groupContext="shape" v:layerMember="0" transform="translate(99.2126,-86.4567)">
				<title>动态连接线.85</title>
				<path d="M2.83 195.17 L11.34 261.79" class="st7"/>
			</g>
			<g id="shape87-74" v:mID="87" v:groupContext="shape" v:layerMember="0" transform="translate(116.22,-86.4567)">
				<title>动态连接线.87</title>
				<path d="M2.83 195.17 L11.34 261.79" class="st7"/>
			</g>
			<g id="shape12-79" v:mID="12" v:groupContext="shape" transform="translate(161.575,-58.1103)">
				<title>正方形.12</title>
				<desc>7</desc>
				<v:userDefs>
					<v:ud v:nameU="visVersion" v:val="VT0(15):26"/>
				</v:userDefs>
				<v:textBlock v:margins="rect(4,4,4,4)" v:tabSpace="42.5197"/>
				<v:textRect cx="8.50394" cy="186.669" width="17.01" height="17.0079"/>
				<rect x="0" y="178.165" width="17.0079" height="17.0079" class="st4"/>
				<text x="7" y="188.47" class="st2" v:langID="2052"><v:paragraph v:horizAlign="1"/><v:tabList/>7</text>			</g>
			<g id="shape13-82" v:mID="13" v:groupContext="shape" transform="translate(178.583,-58.1103)">
				<title>正方形.13</title>
				<desc>1</desc>
				<v:userDefs>
					<v:ud v:nameU="visVersion" v:val="VT0(15):26"/>
				</v:userDefs>
				<v:textBlock v:margins="rect(4,4,4,4)" v:tabSpace="42.5197"/>
				<v:textRect cx="8.50394" cy="186.669" width="17.01" height="17.0079"/>
				<rect x="0" y="178.165" width="17.0079" height="17.0079" class="st4"/>
				<text x="7" y="188.47" class="st2" v:langID="2052"><v:paragraph v:horizAlign="1"/><v:tabList/>1</text>			</g>
			<g id="shape111-85" v:mID="111" v:groupContext="shape" transform="translate(1.80931E-06,-87.874)">
				<title>工作表.111</title>
				<desc>Convert Input</desc>
				<v:textBlock v:margins="rect(4,4,4,4)" v:tabSpace="42.5197"/>
				<v:textRect cx="28.3465" cy="188.087" width="56.7" height="14.1732"/>
				<rect x="0" y="181" width="56.6929" height="14.1732" class="st1"/>
				<text x="8.85" y="189.89" class="st9" v:langID="2052"><v:paragraph v:horizAlign="1"/><v:tabList/>Convert Input</text>			</g>
			<g id="shape121-88" v:mID="121" v:groupContext="shape" v:layerMember="0" transform="translate(65.1969,-86.4567)">
				<title>动态连接线.121</title>
				<path d="M2.83 195.17 L11.34 261.79" class="st7"/>
			</g>
			<g id="shape126-93" v:mID="126" v:groupContext="shape" transform="translate(161.575,-29.7638)">
				<title>正方形.126</title>
				<desc>1</desc>
				<v:userDefs>
					<v:ud v:nameU="visVersion" v:val="VT0(15):26"/>
				</v:userDefs>
				<v:textBlock v:margins="rect(4,4,4,4)" v:tabSpace="42.5197"/>
				<v:textRect cx="8.50394" cy="186.669" width="17.01" height="17.0079"/>
				<rect x="0" y="178.165" width="17.0079" height="17.0079" class="st10"/>
				<text x="7" y="188.47" class="st9" v:langID="2052"><v:paragraph v:horizAlign="1"/><v:tabList/>1</text>			</g>
			<g id="shape127-96" v:mID="127" v:groupContext="shape" transform="translate(178.583,-29.7638)">
				<title>正方形.127</title>
				<desc>7</desc>
				<v:userDefs>
					<v:ud v:nameU="visVersion" v:val="VT0(15):26"/>
				</v:userDefs>
				<v:textBlock v:margins="rect(4,4,4,4)" v:tabSpace="42.5197"/>
				<v:textRect cx="8.50394" cy="186.669" width="17.01" height="17.0079"/>
				<rect x="0" y="178.165" width="17.0079" height="17.0079" class="st10"/>
				<text x="7" y="188.47" class="st9" v:langID="2052"><v:paragraph v:horizAlign="1"/><v:tabList/>7</text>			</g>
			<g id="shape129-99" v:mID="129" v:groupContext="shape" transform="translate(65.1969,-24.0945)">
				<title>工作表.129</title>
				<desc>1</desc>
				<v:textBlock v:margins="rect(4,4,4,4)" v:tabSpace="42.5197"/>
				<v:textRect cx="4.25197" cy="189.504" width="8.51" height="11.3386"/>
				<rect x="0" y="183.835" width="8.50394" height="11.3386" class="st1"/>
				<text x="4" y="191.3" class="st9" v:langID="2052"><v:paragraph v:horizAlign="1"/><v:tabList/>1</text>			</g>
			<g id="shape130-102" v:mID="130" v:groupContext="shape" transform="translate(82.2047,-24.0945)">
				<title>工作表.130</title>
				<desc>1</desc>
				<v:textBlock v:margins="rect(4,4,4,4)" v:tabSpace="42.5197"/>
				<v:textRect cx="4.25197" cy="189.504" width="8.51" height="11.3386"/>
				<rect x="0" y="183.835" width="8.50394" height="11.3386" class="st1"/>
				<text x="4" y="191.3" class="st9" v:langID="2052"><v:paragraph v:horizAlign="1"/><v:tabList/>1</text>			</g>
			<g id="shape131-105" v:mID="131" v:groupContext="shape" transform="translate(99.2126,-24.0945)">
				<title>工作表.131</title>
				<desc>1</desc>
				<v:textBlock v:margins="rect(4,4,4,4)" v:tabSpace="42.5197"/>
				<v:textRect cx="4.25197" cy="189.504" width="8.51" height="11.3386"/>
				<rect x="0" y="183.835" width="8.50394" height="11.3386" class="st1"/>
				<text x="4" y="191.3" class="st9" v:langID="2052"><v:paragraph v:horizAlign="1"/><v:tabList/>1</text>			</g>
			<g id="shape132-108" v:mID="132" v:groupContext="shape" transform="translate(116.22,-24.0945)">
				<title>工作表.132</title>
				<desc>1</desc>
				<v:textBlock v:margins="rect(4,4,4,4)" v:tabSpace="42.5197"/>
				<v:textRect cx="4.25197" cy="189.504" width="8.51" height="11.3386"/>
				<rect x="0" y="183.835" width="8.50394" height="11.3386" class="st1"/>
				<text x="4" y="191.3" class="st9" v:langID="2052"><v:paragraph v:horizAlign="1"/><v:tabList/>1</text>			</g>
			<g id="shape133-111" v:mID="133" v:groupContext="shape" transform="translate(73.7008,-24.0945)">
				<title>工作表.133</title>
				<desc>7</desc>
				<v:textBlock v:margins="rect(4,4,4,4)" v:tabSpace="42.5197"/>
				<v:textRect cx="4.25197" cy="189.504" width="8.51" height="11.3386"/>
				<rect x="0" y="183.835" width="8.50394" height="11.3386" class="st1"/>
				<text x="4" y="191.3" class="st9" v:langID="2052"><v:paragraph v:horizAlign="1"/><v:tabList/>7</text>			</g>
			<g id="shape134-114" v:mID="134" v:groupContext="shape" transform="translate(90.7087,-24.0945)">
				<title>工作表.134</title>
				<desc>7</desc>
				<v:textBlock v:margins="rect(4,4,4,4)" v:tabSpace="42.5197"/>
				<v:textRect cx="4.25197" cy="189.504" width="8.51" height="11.3386"/>
				<rect x="0" y="183.835" width="8.50394" height="11.3386" class="st1"/>
				<text x="4" y="191.3" class="st9" v:langID="2052"><v:paragraph v:horizAlign="1"/><v:tabList/>7</text>			</g>
			<g id="shape135-117" v:mID="135" v:groupContext="shape" transform="translate(107.717,-24.0945)">
				<title>工作表.135</title>
				<desc>7</desc>
				<v:textBlock v:margins="rect(4,4,4,4)" v:tabSpace="42.5197"/>
				<v:textRect cx="4.25197" cy="189.504" width="8.51" height="11.3386"/>
				<rect x="0" y="183.835" width="8.50394" height="11.3386" class="st1"/>
				<text x="4" y="191.3" class="st9" v:langID="2052"><v:paragraph v:horizAlign="1"/><v:tabList/>7</text>			</g>
			<g id="shape136-120" v:mID="136" v:groupContext="shape" transform="translate(124.724,-24.0945)">
				<title>工作表.136</title>
				<desc>7</desc>
				<v:textBlock v:margins="rect(4,4,4,4)" v:tabSpace="42.5197"/>
				<v:textRect cx="4.25197" cy="189.504" width="8.51" height="11.3386"/>
				<rect x="0" y="183.835" width="8.50394" height="11.3386" class="st1"/>
				<text x="4" y="191.3" class="st9" v:langID="2052"><v:paragraph v:horizAlign="1"/><v:tabList/>7</text>			</g>
			<g id="shape137-123" v:mID="137" v:groupContext="shape" transform="translate(0,-31.1811)">
				<title>工作表.137</title>
				<desc>Convert Kernel</desc>
				<v:textBlock v:margins="rect(4,4,4,4)" v:tabSpace="42.5197"/>
				<v:textRect cx="28.3465" cy="188.087" width="56.7" height="14.1732"/>
				<rect x="0" y="181" width="56.6929" height="14.1732" class="st1"/>
				<text x="7.35" y="189.89" class="st9" v:langID="2052"><v:paragraph v:horizAlign="1"/><v:tabList/>Convert Kernel</text>			</g>
			<g id="shape138-126" v:mID="138" v:groupContext="shape" transform="translate(66.6142,0)">
				<title>椭圆形.36</title>
				<v:userDefs>
					<v:ud v:nameU="visVersion" v:val="VT0(15):26"/>
				</v:userDefs>
				<path d="M0 185.25 A9.92126 9.92126 0 0 1 19.84 185.25 A9.92126 9.92126 0 1 1 0 185.25 Z" class="st11"/>
			</g>
			<g id="shape139-128" v:mID="139" v:groupContext="shape" transform="translate(83.6221,-1.29572E-05)">
				<title>椭圆形.57</title>
				<v:userDefs>
					<v:ud v:nameU="visVersion" v:val="VT0(15):26"/>
				</v:userDefs>
				<path d="M0 185.25 A9.92126 9.92126 0 0 1 19.84 185.25 A9.92126 9.92126 0 1 1 0 185.25 Z" class="st12"/>
			</g>
			<g id="shape140-130" v:mID="140" v:groupContext="shape" transform="translate(100.63,-8.51123E-06)">
				<title>椭圆形.58</title>
				<v:userDefs>
					<v:ud v:nameU="visVersion" v:val="VT0(15):26"/>
				</v:userDefs>
				<path d="M0 185.25 A9.92126 9.92126 0 0 1 19.84 185.25 A9.92126 9.92126 0 1 1 0 185.25 Z" class="st13"/>
			</g>
			<g id="shape141-132" v:mID="141" v:groupContext="shape" transform="translate(117.638,-8.51123E-06)">
				<title>椭圆形.59</title>
				<v:userDefs>
					<v:ud v:nameU="visVersion" v:val="VT0(15):26"/>
				</v:userDefs>
				<path d="M0 185.25 A9.92126 9.92126 0 0 1 19.84 185.25 A9.92126 9.92126 0 1 1 0 185.25 Z" class="st14"/>
			</g>
			<g id="shape142-134" v:mID="142" v:groupContext="shape" transform="translate(158.74,-26.9292)">
				<title>椭圆形.245</title>
				<v:userDefs>
					<v:ud v:nameU="visVersion" v:val="VT0(15):26"/>
				</v:userDefs>
				<path d="M0 183.83 A19.8425 11.3386 0 1 1 39.69 183.83 A19.8425 11.3386 0 1 1 0 183.83 Z" class="st15"/>
			</g>
			<g id="shape151-136" v:mID="151" v:groupContext="shape" transform="translate(158.74,-55.2756)">
				<title>椭圆形.151</title>
				<v:userDefs>
					<v:ud v:nameU="visVersion" v:val="VT0(15):26"/>
				</v:userDefs>
				<path d="M0 183.83 A19.8425 11.3386 0 1 1 39.69 183.83 A19.8425 11.3386 0 1 1 0 183.83 Z" class="st15"/>
			</g>
			<g id="shape77-138" v:mID="77" v:groupContext="shape" v:layerMember="0" transform="translate(87.874,-86.4567)">
				<title>动态连接线</title>
				<path d="M-2.83 195.17 L-11.34 261.79" class="st16"/>
			</g>
			<g id="shape84-144" v:mID="84" v:groupContext="shape" v:layerMember="0" transform="translate(104.882,-86.4567)">
				<title>动态连接线.84</title>
				<path d="M-2.83 195.17 L-11.34 261.79" class="st16"/>
			</g>
			<g id="shape86-149" v:mID="86" v:groupContext="shape" v:layerMember="0" transform="translate(121.89,-86.4567)">
				<title>动态连接线.86</title>
				<path d="M-2.83 195.17 L-11.34 261.79" class="st16"/>
			</g>
			<g id="shape123-154" v:mID="123" v:groupContext="shape" v:layerMember="0" transform="translate(138.898,-86.4567)">
				<title>动态连接线.123</title>
				<path d="M-2.83 195.17 L-11.34 261.79" class="st16"/>
			</g>
			<g id="shape112-159" v:mID="112" v:groupContext="shape" transform="translate(76.5354,-86.4567)">
				<title>正方形.112</title>
				<desc>5</desc>
				<v:userDefs>
					<v:ud v:nameU="visVersion" v:val="VT0(15):26"/>
				</v:userDefs>
				<v:textBlock v:margins="rect(4,4,4,4)" v:tabSpace="42.5197"/>
				<v:textRect cx="8.50394" cy="186.669" width="17.01" height="17.0079"/>
				<rect x="0" y="178.165" width="17.0079" height="17.0079" class="st4"/>
				<text x="7" y="188.47" class="st2" v:langID="2052"><v:paragraph v:horizAlign="1"/><v:tabList/>5</text>			</g>
			<g id="shape113-162" v:mID="113" v:groupContext="shape" transform="translate(93.5433,-86.4567)">
				<title>正方形.113</title>
				<desc>3</desc>
				<v:userDefs>
					<v:ud v:nameU="visVersion" v:val="VT0(15):26"/>
				</v:userDefs>
				<v:textBlock v:margins="rect(4,4,4,4)" v:tabSpace="42.5197"/>
				<v:textRect cx="8.50394" cy="186.669" width="17.01" height="17.0079"/>
				<rect x="0" y="178.165" width="17.0079" height="17.0079" class="st4"/>
				<text x="7" y="188.47" class="st2" v:langID="2052"><v:paragraph v:horizAlign="1"/><v:tabList/>3</text>			</g>
			<g id="shape114-165" v:mID="114" v:groupContext="shape" transform="translate(110.551,-86.4567)">
				<title>正方形.114</title>
				<desc>6</desc>
				<v:userDefs>
					<v:ud v:nameU="visVersion" v:val="VT0(15):26"/>
				</v:userDefs>
				<v:textBlock v:margins="rect(4,4,4,4)" v:tabSpace="42.5197"/>
				<v:textRect cx="8.50394" cy="186.669" width="17.01" height="17.0079"/>
				<rect x="0" y="178.165" width="17.0079" height="17.0079" class="st4"/>
				<text x="7" y="188.47" class="st2" v:langID="2052"><v:paragraph v:horizAlign="1"/><v:tabList/>6</text>			</g>
			<g id="shape118-168" v:mID="118" v:groupContext="shape" transform="translate(59.5276,-86.4567)">
				<title>正方形.118</title>
				<desc>0</desc>
				<v:userDefs>
					<v:ud v:nameU="visVersion" v:val="VT0(15):26"/>
				</v:userDefs>
				<v:textBlock v:margins="rect(4,4,4,4)" v:tabSpace="42.5197"/>
				<v:textRect cx="8.50394" cy="186.669" width="17.01" height="17.0079"/>
				<rect x="0" y="178.165" width="17.0079" height="17.0079" class="st4"/>
				<text x="7" y="188.47" class="st2" v:langID="2052"><v:paragraph v:horizAlign="1"/><v:tabList/>0</text>			</g>
			<g id="shape119-171" v:mID="119" v:groupContext="shape" transform="translate(127.559,-86.4567)">
				<title>正方形.119</title>
				<desc>0</desc>
				<v:userDefs>
					<v:ud v:nameU="visVersion" v:val="VT0(15):26"/>
				</v:userDefs>
				<v:textBlock v:margins="rect(4,4,4,4)" v:tabSpace="42.5197"/>
				<v:textRect cx="8.50394" cy="186.669" width="17.01" height="17.0079"/>
				<rect x="0" y="178.165" width="17.0079" height="17.0079" class="st4"/>
				<text x="7" y="188.47" class="st2" v:langID="2052"><v:paragraph v:horizAlign="1"/><v:tabList/>0</text>			</g>
			<g id="group143-174" transform="translate(56.6929,-83.6221)" v:mID="143" v:groupContext="group">
				<title>工作表.143</title>
				<g id="shape144-175" v:mID="144" v:groupContext="shape">
					<title>椭圆形.64</title>
					<v:userDefs>
						<v:ud v:nameU="visVersion" v:val="VT0(15):26"/>
					</v:userDefs>
					<path d="M0 183.83 A19.8425 11.3386 0 1 1 39.69 183.83 A19.8425 11.3386 0 1 1 0 183.83 Z" class="st11"/>
				</g>
			</g>
			<g id="group145-177" transform="translate(73.7008,-83.6221)" v:mID="145" v:groupContext="group">
				<title>工作表.145</title>
				<g id="shape146-178" v:mID="146" v:groupContext="shape">
					<title>椭圆形.64</title>
					<v:userDefs>
						<v:ud v:nameU="visVersion" v:val="VT0(15):26"/>
					</v:userDefs>
					<path d="M0 183.83 A19.8425 11.3386 0 1 1 39.69 183.83 A19.8425 11.3386 0 1 1 0 183.83 Z" class="st18"/>
				</g>
			</g>
			<g id="group147-180" transform="translate(90.7087,-83.6221)" v:mID="147" v:groupContext="group">
				<title>工作表.147</title>
				<g id="shape148-181" v:mID="148" v:groupContext="shape">
					<title>椭圆形.64</title>
					<v:userDefs>
						<v:ud v:nameU="visVersion" v:val="VT0(15):26"/>
					</v:userDefs>
					<path d="M0 183.83 A19.8425 11.3386 0 1 1 39.69 183.83 A19.8425 11.3386 0 1 1 0 183.83 Z" class="st13"/>
				</g>
			</g>
			<g id="group149-183" transform="translate(107.717,-83.6221)" v:mID="149" v:groupContext="group">
				<title>工作表.149</title>
				<g id="shape150-184" v:mID="150" v:groupContext="shape">
					<title>椭圆形.64</title>
					<v:userDefs>
						<v:ud v:nameU="visVersion" v:val="VT0(15):26"/>
					</v:userDefs>
					<path d="M0 183.83 A19.8425 11.3386 0 1 1 39.69 183.83 A19.8425 11.3386 0 1 1 0 183.83 Z" class="st14"/>
				</g>
			</g>
		</g>
	</g>
</svg>
