<?xml version="1.0" encoding="UTF-8" standalone="no"?>
<!DOCTYPE svg PUBLIC "-//W3C//DTD SVG 1.1//EN" "http://www.w3.org/Graphics/SVG/1.1/DTD/svg11.dtd">
<!-- 由 Microsoft Visio, SVG Export 生成 Pytorch.torch.nn.Transformer_figure_1.SVG 页-1 -->
<svg xmlns="http://www.w3.org/2000/svg" xmlns:xlink="http://www.w3.org/1999/xlink" xmlns:ev="http://www.w3.org/2001/xml-events"
		xmlns:v="http://schemas.microsoft.com/visio/2003/SVGExtensions/" width="5.28948in" height="4.99073in"
		viewBox="0 0 380.843 359.333" xml:space="preserve" color-interpolation-filters="sRGB" class="st14">
	<v:documentProperties v:langID="2052" v:metric="true" v:viewMarkup="false"/>

	<style type="text/css">
	<![CDATA[
		.st1 {fill:#f2f2f2;stroke:#000000;stroke-width:0.5}
		.st2 {marker-end:url(#mrkr4-10);stroke:#000000;stroke-linecap:round;stroke-linejoin:round;stroke-width:0.5}
		.st3 {fill:#000000;fill-opacity:1;stroke:#000000;stroke-opacity:1;stroke-width:0.16556291390728}
		.st4 {fill:#f7cbac;stroke:#000000;stroke-width:0.5}
		.st5 {fill:#000000;font-family:Calibri;font-size:0.583328em}
		.st6 {font-size:1em}
		.st7 {fill:#ffffcc;stroke:#000000;stroke-width:0.5}
		.st8 {fill:#bdd7ee;stroke:#000000;stroke-width:0.5}
		.st9 {marker-end:url(#mrkr4-98);stroke:#000000;stroke-linecap:round;stroke-linejoin:round;stroke-width:0.5}
		.st10 {fill:none;stroke:none;stroke-width:0.5}
		.st11 {fill:#ff0000;font-family:Calibri;font-size:1.00001em}
		.st12 {fill:#00b050;font-family:Calibri;font-size:1.00001em}
		.st13 {fill:#3399ff;font-family:Calibri;font-size:1.00001em}
		.st14 {fill:none;fill-rule:evenodd;font-size:12px;overflow:visible;stroke-linecap:square;stroke-miterlimit:3}
	]]>
	</style>

	<defs id="Markers">
		<g id="lend4">
			<path d="M 2 1 L 0 0 L 2 -1 L 2 1 " style="stroke:none"/>
		</g>
		<marker id="mrkr4-10" class="st3" v:arrowType="4" v:arrowSize="2" v:setback="12.08" refX="-12.08" orient="auto"
				markerUnits="strokeWidth" overflow="visible">
			<use xlink:href="#lend4" transform="scale(-6.04,-6.04) "/>
		</marker>
		<marker id="mrkr4-98" class="st3" v:arrowType="4" v:arrowSize="2" v:setback="0" refX="-0" orient="auto"
				markerUnits="strokeWidth" overflow="visible">
			<use xlink:href="#lend4" transform="scale(-6.04,-6.04) "/>
		</marker>
	</defs>
	<g v:mID="0" v:index="1" v:groupContext="foregroundPage">
		<title>页-1</title>
		<v:pageProperties v:drawingScale="0.0393701" v:pageScale="0.0393701" v:drawingUnits="24" v:shadowOffsetX="8.50394"
				v:shadowOffsetY="-8.50394"/>
		<v:layer v:name="连接线" v:index="0"/>
		<g id="shape87-1" v:mID="87" v:groupContext="shape" transform="translate(28.8465,-26.5954)">
			<title>矩形.87</title>
			<v:userDefs>
				<v:ud v:nameU="visVersion" v:val="VT0(15):26"/>
			</v:userDefs>
			<rect x="0" y="152.404" width="138.898" height="206.929" rx="8.50394" ry="8.50394" class="st1"/>
		</g>
		<g id="shape200-3" v:mID="200" v:groupContext="shape" transform="translate(213.098,-26.5955)">
			<title>矩形.200</title>
			<v:userDefs>
				<v:ud v:nameU="visVersion" v:val="VT0(15):26"/>
			</v:userDefs>
			<rect x="0" y="56.0256" width="138.898" height="303.307" rx="8.50394" ry="8.50394" class="st1"/>
		</g>
		<g id="shape108-5" v:mID="108" v:groupContext="shape" v:layerMember="0" transform="translate(98.2953,-6.75293)">
			<title>动态连接线.108</title>
			<path d="M7.09 359.33 L7.09 308.68" class="st2"/>
		</g>
		<g id="shape110-11" v:mID="110" v:groupContext="shape" transform="translate(48.689,-63.4458)">
			<title>矩形.110</title>
			<desc>Multi-Head Attention</desc>
			<v:userDefs>
				<v:ud v:nameU="visVersion" v:val="VT0(15):26"/>
			</v:userDefs>
			<v:textBlock v:margins="rect(4,4,4,4)" v:tabSpace="42.5197"/>
			<v:textRect cx="56.6929" cy="345.159" width="113.39" height="28.3465"/>
			<rect x="0" y="330.986" width="113.386" height="28.3465" rx="5.66929" ry="5.66929" class="st4"/>
			<text x="40.57" y="343.06" class="st5" v:langID="2052"><v:paragraph v:horizAlign="1"/><v:tabList/>Multi-Head<v:newlineChar/><tspan
						x="43.08" dy="1.2em" class="st6">Attention</tspan></text>		</g>
		<g id="shape124-15" v:mID="124" v:groupContext="shape" transform="translate(48.689,-103.131)">
			<title>矩形.124</title>
			<desc>Add &#38; Norm</desc>
			<v:userDefs>
				<v:ud v:nameU="visVersion" v:val="VT0(15):26"/>
			</v:userDefs>
			<v:textBlock v:margins="rect(4,4,4,4)" v:tabSpace="42.5197"/>
			<v:textRect cx="56.6929" cy="345.159" width="113.39" height="28.3465"/>
			<rect x="0" y="330.986" width="113.386" height="28.3465" rx="5.66929" ry="5.66929" class="st7"/>
			<text x="38.9" y="347.26" class="st5" v:langID="2052"><v:paragraph v:horizAlign="1"/><v:tabList/>Add &#38; Norm</text>		</g>
		<g id="shape125-18" v:mID="125" v:groupContext="shape" v:layerMember="0" transform="translate(98.2953,-90.375)">
			<title>动态连接线.125</title>
			<path d="M7.09 357.92 L7.09 352.62" class="st2"/>
		</g>
		<g id="shape141-23" v:mID="141" v:groupContext="shape" v:layerMember="0" transform="translate(105.382,-32.2647)">
			<title>动态连接线</title>
			<path d="M0 359.33 L-62.36 359.33 A8.50394 8.50394 0 0 1 -70.87 350.83 L-70.87 281.38 A7.08662 7.08662 0 0 1 -63.78 274.29
						 L-62.73 274.29" class="st2"/>
		</g>
		<g id="shape144-28" v:mID="144" v:groupContext="shape" v:layerMember="0" transform="translate(105.382,-46.438)">
			<title>动态连接线.144</title>
			<path d="M0 359.33 L-22.68 359.33 A5.66929 5.66929 0 0 1 -28.35 353.66 L-28.35 348.36" class="st2"/>
		</g>
		<g id="shape146-33" v:mID="146" v:groupContext="shape" v:layerMember="0" transform="translate(105.382,-46.438)">
			<title>动态连接线.146</title>
			<path d="M0 359.33 L22.68 359.33 A5.66929 5.66929 -180 0 0 28.35 353.66 L28.35 348.36" class="st2"/>
		</g>
		<g id="shape147-38" v:mID="147" v:groupContext="shape" v:layerMember="0" transform="translate(98.2953,-131.477)">
			<title>动态连接线.147</title>
			<path d="M7.09 359.33 L7.09 337.03" class="st2"/>
		</g>
		<g id="shape148-43" v:mID="148" v:groupContext="shape" transform="translate(48.689,-159.824)">
			<title>矩形.148</title>
			<desc>Feed Forward</desc>
			<v:userDefs>
				<v:ud v:nameU="visVersion" v:val="VT0(15):26"/>
			</v:userDefs>
			<v:textBlock v:margins="rect(4,4,4,4)" v:tabSpace="42.5197"/>
			<v:textRect cx="56.6929" cy="345.159" width="113.39" height="28.3465"/>
			<rect x="0" y="330.986" width="113.386" height="28.3465" rx="5.66929" ry="5.66929" class="st8"/>
			<text x="49.76" y="343.06" class="st5" v:langID="2052"><v:paragraph v:horizAlign="1"/><v:tabList/>Feed<v:newlineChar/><tspan
						x="44.78" dy="1.2em" class="st6">Forward</tspan></text>		</g>
		<g id="shape149-47" v:mID="149" v:groupContext="shape" transform="translate(48.689,-199.509)">
			<title>矩形.149</title>
			<desc>Add &#38; Norm</desc>
			<v:userDefs>
				<v:ud v:nameU="visVersion" v:val="VT0(15):26"/>
			</v:userDefs>
			<v:textBlock v:margins="rect(4,4,4,4)" v:tabSpace="42.5197"/>
			<v:textRect cx="56.6929" cy="345.159" width="113.39" height="28.3465"/>
			<rect x="0" y="330.986" width="113.386" height="28.3465" rx="5.66929" ry="5.66929" class="st7"/>
			<text x="38.9" y="347.26" class="st5" v:langID="2052"><v:paragraph v:horizAlign="1"/><v:tabList/>Add &#38; Norm</text>		</g>
		<g id="shape150-50" v:mID="150" v:groupContext="shape" v:layerMember="0" transform="translate(98.2953,-186.753)">
			<title>动态连接线.150</title>
			<path d="M7.09 357.92 L7.09 352.62" class="st2"/>
		</g>
		<g id="shape151-55" v:mID="151" v:groupContext="shape" v:layerMember="0" transform="translate(105.382,-145.651)">
			<title>动态连接线.151</title>
			<path d="M0 359.33 L-62.36 359.33 A8.50394 8.50394 0 0 1 -70.87 350.83 L-70.87 298.39 A7.08661 7.08661 0 0 1 -63.78 291.3
						 L-62.73 291.3" class="st2"/>
		</g>
		<g id="shape152-60" v:mID="152" v:groupContext="shape" transform="translate(218.768,-63.4458)">
			<title>矩形.152</title>
			<desc>Masked Multi-Head Attention</desc>
			<v:userDefs>
				<v:ud v:nameU="visVersion" v:val="VT0(15):26"/>
			</v:userDefs>
			<v:textBlock v:margins="rect(4,4,4,4)" v:tabSpace="42.5197"/>
			<v:textRect cx="56.6929" cy="345.159" width="113.39" height="28.3465"/>
			<rect x="0" y="330.986" width="113.386" height="28.3465" rx="5.66929" ry="5.66929" class="st4"/>
			<text x="45.48" y="338.86" class="st5" v:langID="2052"><v:paragraph v:horizAlign="1"/><v:tabList/>Masked<v:newlineChar/><tspan
						x="40.57" dy="1.2em" class="st6">Multi</tspan>-Head<v:newlineChar/><tspan x="43.08" dy="1.2em" class="st6">Attention</tspan></text>		</g>
		<g id="shape153-65" v:mID="153" v:groupContext="shape" transform="translate(218.768,-103.131)">
			<title>矩形.153</title>
			<desc>Add &#38; Norm</desc>
			<v:userDefs>
				<v:ud v:nameU="visVersion" v:val="VT0(15):26"/>
			</v:userDefs>
			<v:textBlock v:margins="rect(4,4,4,4)" v:tabSpace="42.5197"/>
			<v:textRect cx="56.6929" cy="345.159" width="113.39" height="28.3465"/>
			<rect x="0" y="330.986" width="113.386" height="28.3465" rx="5.66929" ry="5.66929" class="st7"/>
			<text x="38.9" y="347.26" class="st5" v:langID="2052"><v:paragraph v:horizAlign="1"/><v:tabList/>Add &#38; Norm</text>		</g>
		<g id="shape154-68" v:mID="154" v:groupContext="shape" v:layerMember="0" transform="translate(268.374,-90.375)">
			<title>动态连接线.154</title>
			<path d="M7.09 357.92 L7.09 352.62" class="st2"/>
		</g>
		<g id="shape155-73" v:mID="155" v:groupContext="shape" v:layerMember="0" transform="translate(275.461,-46.438)">
			<title>动态连接线.155</title>
			<path d="M0 359.33 L-22.68 359.33 A5.66929 5.66929 0 0 1 -28.35 353.66 L-28.35 348.36" class="st2"/>
		</g>
		<g id="shape156-78" v:mID="156" v:groupContext="shape" v:layerMember="0" transform="translate(275.461,-46.438)">
			<title>动态连接线.156</title>
			<path d="M0 359.33 L22.68 359.33 A5.66929 5.66929 -180 0 0 28.35 353.66 L28.35 348.36" class="st2"/>
		</g>
		<g id="shape161-83" v:mID="161" v:groupContext="shape" v:layerMember="0" transform="translate(275.461,-32.2647)">
			<title>动态连接线.161</title>
			<path d="M0 359.33 L62.36 359.33 A8.50394 8.50394 -180 0 0 70.87 350.83 L70.87 281.38 A7.08662 7.08662 -180 0 0 63.78
						 274.29 L62.73 274.29" class="st2"/>
		</g>
		<g id="shape176-88" v:mID="176" v:groupContext="shape" v:layerMember="0" transform="translate(268.374,-6.75293)">
			<title>动态连接线.176</title>
			<path d="M7.09 359.33 L7.09 308.68" class="st2"/>
		</g>
		<g id="shape177-93" v:mID="177" v:groupContext="shape" v:layerMember="0" transform="translate(275.461,-131.477)">
			<title>动态连接线.177</title>
			<path d="M0 359.33 L0 350.83 A8.50393 8.50393 0 0 1 8.5 342.32 L22.68 342.32 A5.6693 5.6693 -180 0 0 28.35 336.66 L28.35
						 330.99" class="st9"/>
		</g>
		<g id="shape183-99" v:mID="183" v:groupContext="shape" v:layerMember="0" transform="translate(275.461,-139.981)">
			<title>动态连接线.183</title>
			<path d="M0 359.33 L62.36 359.33 A8.50394 8.50394 -180 0 0 70.87 350.83 L70.87 292.72 A7.08662 7.08662 -180 0 0 63.78
						 285.63 L62.73 285.63" class="st2"/>
		</g>
		<g id="shape184-104" v:mID="184" v:groupContext="shape" transform="translate(218.768,-159.824)">
			<title>矩形.184</title>
			<desc>Multi-Head Attention</desc>
			<v:userDefs>
				<v:ud v:nameU="visVersion" v:val="VT0(15):26"/>
			</v:userDefs>
			<v:textBlock v:margins="rect(4,4,4,4)" v:tabSpace="42.5197"/>
			<v:textRect cx="56.6929" cy="345.159" width="113.39" height="28.3465"/>
			<rect x="0" y="330.986" width="113.386" height="28.3465" rx="5.66929" ry="5.66929" class="st4"/>
			<text x="40.57" y="343.06" class="st5" v:langID="2052"><v:paragraph v:horizAlign="1"/><v:tabList/>Multi-Head<v:newlineChar/><tspan
						x="43.08" dy="1.2em" class="st6">Attention</tspan></text>		</g>
		<g id="shape185-108" v:mID="185" v:groupContext="shape" transform="translate(218.768,-199.509)">
			<title>矩形.185</title>
			<desc>Add &#38; Norm</desc>
			<v:userDefs>
				<v:ud v:nameU="visVersion" v:val="VT0(15):26"/>
			</v:userDefs>
			<v:textBlock v:margins="rect(4,4,4,4)" v:tabSpace="42.5197"/>
			<v:textRect cx="56.6929" cy="345.159" width="113.39" height="28.3465"/>
			<rect x="0" y="330.986" width="113.386" height="28.3465" rx="5.66929" ry="5.66929" class="st7"/>
			<text x="38.9" y="347.26" class="st5" v:langID="2052"><v:paragraph v:horizAlign="1"/><v:tabList/>Add &#38; Norm</text>		</g>
		<g id="shape186-111" v:mID="186" v:groupContext="shape" v:layerMember="0" transform="translate(105.382,-227.855)">
			<title>动态连接线.186</title>
			<path d="M0 359.33 L0 352.25 A7.08662 7.08662 0 0 1 7.09 345.16 L76.54 345.16 A8.50394 8.50394 0 0 1 85.04 353.66 L85.04
						 430.2 A8.50394 8.50394 -180 0 0 93.54 438.7 L164.41 438.7 A5.6693 5.6693 -180 0 0 170.08 433.03 L170.08
						 427.36" class="st9"/>
		</g>
		<g id="shape187-116" v:mID="187" v:groupContext="shape" v:layerMember="0" transform="translate(105.382,-227.855)">
			<title>动态连接线.187</title>
			<path d="M0 359.33 L0 352.25 A7.08662 7.08662 0 0 1 7.09 345.16 L76.54 345.16 A8.50394 8.50394 0 0 1 85.04 353.66 L85.04
						 430.2 A8.50394 8.50394 -180 0 0 93.54 438.7 L136.06 438.7 A5.6693 5.6693 -180 0 0 141.73 433.03 L141.73
						 427.36" class="st9"/>
		</g>
		<g id="shape188-121" v:mID="188" v:groupContext="shape" v:layerMember="0" transform="translate(268.374,-227.855)">
			<title>动态连接线.188</title>
			<path d="M7.09 359.33 L7.09 337.03" class="st2"/>
		</g>
		<g id="shape189-126" v:mID="189" v:groupContext="shape" transform="translate(218.768,-256.202)">
			<title>矩形.189</title>
			<desc>Feed Forward</desc>
			<v:userDefs>
				<v:ud v:nameU="visVersion" v:val="VT0(15):26"/>
			</v:userDefs>
			<v:textBlock v:margins="rect(4,4,4,4)" v:tabSpace="42.5197"/>
			<v:textRect cx="56.6929" cy="345.159" width="113.39" height="28.3465"/>
			<rect x="0" y="330.986" width="113.386" height="28.3465" rx="5.66929" ry="5.66929" class="st8"/>
			<text x="49.76" y="343.06" class="st5" v:langID="2052"><v:paragraph v:horizAlign="1"/><v:tabList/>Feed<v:newlineChar/><tspan
						x="44.78" dy="1.2em" class="st6">Forward</tspan></text>		</g>
		<g id="shape190-130" v:mID="190" v:groupContext="shape" transform="translate(218.768,-295.887)">
			<title>矩形.190</title>
			<desc>Add &#38; Norm</desc>
			<v:userDefs>
				<v:ud v:nameU="visVersion" v:val="VT0(15):26"/>
			</v:userDefs>
			<v:textBlock v:margins="rect(4,4,4,4)" v:tabSpace="42.5197"/>
			<v:textRect cx="56.6929" cy="345.159" width="113.39" height="28.3465"/>
			<rect x="0" y="330.986" width="113.386" height="28.3465" rx="5.66929" ry="5.66929" class="st7"/>
			<text x="38.9" y="347.26" class="st5" v:langID="2052"><v:paragraph v:horizAlign="1"/><v:tabList/>Add &#38; Norm</text>		</g>
		<g id="shape191-133" v:mID="191" v:groupContext="shape" v:layerMember="0" transform="translate(268.374,-283.131)">
			<title>动态连接线.191</title>
			<path d="M7.09 357.92 L7.09 352.62" class="st2"/>
		</g>
		<g id="shape192-138" v:mID="192" v:groupContext="shape" v:layerMember="0" transform="translate(275.461,-242.029)">
			<title>动态连接线.192</title>
			<path d="M0 359.33 L62.36 359.33 A8.50394 8.50394 -180 0 0 70.87 350.83 L70.87 298.39 A7.08662 7.08662 -180 0 0 63.78
						 291.3 L62.73 291.3" class="st2"/>
		</g>
		<g id="shape193-143" v:mID="193" v:groupContext="shape" v:layerMember="0" transform="translate(268.374,-324.233)">
			<title>动态连接线.193</title>
			<path d="M7.09 359.33 L7.09 337.03" class="st2"/>
		</g>
		<g id="shape201-148" v:mID="201" v:groupContext="shape" transform="translate(0.5,-122.973)">
			<title>矩形.201</title>
			<desc>N×</desc>
			<v:textBlock v:margins="rect(4,4,4,4)" v:tabSpace="42.5197"/>
			<v:textRect cx="14.1732" cy="352.246" width="28.35" height="14.1732"/>
			<rect x="0" y="345.159" width="28.3465" height="14.1732" rx="5.66929" ry="5.66929" class="st10"/>
			<text x="10.17" y="354.35" class="st5" v:langID="2052"><v:paragraph v:horizAlign="1"/><v:tabList/>N×</text>		</g>
		<g id="shape202-151" v:mID="202" v:groupContext="shape" transform="translate(351.996,-171.162)">
			<title>矩形.202</title>
			<desc>N×</desc>
			<v:textBlock v:margins="rect(4,4,4,4)" v:tabSpace="42.5197"/>
			<v:textRect cx="14.1732" cy="352.246" width="28.35" height="14.1732"/>
			<rect x="0" y="345.159" width="28.3465" height="14.1732" rx="5.66929" ry="5.66929" class="st10"/>
			<text x="10.17" y="354.35" class="st5" v:langID="2052"><v:paragraph v:horizAlign="1"/><v:tabList/>N×</text>		</g>
		<g id="group211-154" transform="translate(224.437,-36.5167)" v:mID="211" v:groupContext="group">
			<title>工作表.211</title>
			<g id="shape208-155" v:mID="208" v:groupContext="shape">
				<title>工作表.208</title>
				<desc>V</desc>
				<v:textBlock v:margins="rect(4,4,4,4)" v:tabSpace="42.5197"/>
				<v:textRect cx="14.1732" cy="345.159" width="28.35" height="28.3465"/>
				<rect x="0" y="330.986" width="28.3465" height="28.3465" class="st10"/>
				<text x="10.77" y="348.76" class="st11" v:langID="2052"><v:paragraph v:horizAlign="1"/><v:tabList/>V</text>			</g>
			<g id="shape209-158" v:mID="209" v:groupContext="shape" transform="translate(28.3465,-9.04657E-07)">
				<title>工作表.209</title>
				<desc>K</desc>
				<v:textBlock v:margins="rect(4,4,4,4)" v:tabSpace="42.5197"/>
				<v:textRect cx="14.1732" cy="345.159" width="28.35" height="28.3465"/>
				<rect x="0" y="330.986" width="28.3465" height="28.3465" class="st10"/>
				<text x="11.06" y="348.76" class="st12" v:langID="2052"><v:paragraph v:horizAlign="1"/><v:tabList/>K</text>			</g>
			<g id="shape210-161" v:mID="210" v:groupContext="shape" transform="translate(56.6929,-9.04657E-07)">
				<title>工作表.210</title>
				<desc>Q</desc>
				<v:textBlock v:margins="rect(4,4,4,4)" v:tabSpace="42.5197"/>
				<v:textRect cx="14.1732" cy="345.159" width="28.35" height="28.3465"/>
				<rect x="0" y="330.986" width="28.3465" height="28.3465" class="st10"/>
				<text x="10.14" y="348.76" class="st13" v:langID="2052"><v:paragraph v:horizAlign="1"/><v:tabList/>Q</text>			</g>
		</g>
		<g id="group212-164" transform="translate(224.437,-138.564)" v:mID="212" v:groupContext="group">
			<title>工作表.212</title>
			<g id="shape204-165" v:mID="204" v:groupContext="shape">
				<title>工作表.204</title>
				<desc>V</desc>
				<v:textBlock v:margins="rect(4,4,4,4)" v:tabSpace="42.5197"/>
				<v:textRect cx="14.1732" cy="345.159" width="28.35" height="28.3465"/>
				<rect x="0" y="330.986" width="28.3465" height="28.3465" class="st10"/>
				<text x="10.77" y="348.76" class="st11" v:langID="2052"><v:paragraph v:horizAlign="1"/><v:tabList/>V</text>			</g>
			<g id="shape205-168" v:mID="205" v:groupContext="shape" transform="translate(28.3465,-9.04657E-07)">
				<title>工作表.205</title>
				<desc>K</desc>
				<v:textBlock v:margins="rect(4,4,4,4)" v:tabSpace="42.5197"/>
				<v:textRect cx="14.1732" cy="345.159" width="28.35" height="28.3465"/>
				<rect x="0" y="330.986" width="28.3465" height="28.3465" class="st10"/>
				<text x="11.06" y="348.76" class="st12" v:langID="2052"><v:paragraph v:horizAlign="1"/><v:tabList/>K</text>			</g>
			<g id="shape206-171" v:mID="206" v:groupContext="shape" transform="translate(56.6929,-9.04657E-07)">
				<title>工作表.206</title>
				<desc>Q</desc>
				<v:textBlock v:margins="rect(4,4,4,4)" v:tabSpace="42.5197"/>
				<v:textRect cx="14.1732" cy="345.159" width="28.35" height="28.3465"/>
				<rect x="0" y="330.986" width="28.3465" height="28.3465" class="st10"/>
				<text x="10.14" y="348.76" class="st13" v:langID="2052"><v:paragraph v:horizAlign="1"/><v:tabList/>Q</text>			</g>
		</g>
		<g id="group213-174" transform="translate(55.7756,-36.5167)" v:mID="213" v:groupContext="group">
			<title>工作表.213</title>
			<g id="shape214-175" v:mID="214" v:groupContext="shape">
				<title>工作表.214</title>
				<desc>V</desc>
				<v:textBlock v:margins="rect(4,4,4,4)" v:tabSpace="42.5197"/>
				<v:textRect cx="14.1732" cy="345.159" width="28.35" height="28.3465"/>
				<rect x="0" y="330.986" width="28.3465" height="28.3465" class="st10"/>
				<text x="10.77" y="348.76" class="st11" v:langID="2052"><v:paragraph v:horizAlign="1"/><v:tabList/>V</text>			</g>
			<g id="shape215-178" v:mID="215" v:groupContext="shape" transform="translate(28.3465,-9.04657E-07)">
				<title>工作表.215</title>
				<desc>K</desc>
				<v:textBlock v:margins="rect(4,4,4,4)" v:tabSpace="42.5197"/>
				<v:textRect cx="14.1732" cy="345.159" width="28.35" height="28.3465"/>
				<rect x="0" y="330.986" width="28.3465" height="28.3465" class="st10"/>
				<text x="11.06" y="348.76" class="st12" v:langID="2052"><v:paragraph v:horizAlign="1"/><v:tabList/>K</text>			</g>
			<g id="shape216-181" v:mID="216" v:groupContext="shape" transform="translate(56.6929,-9.04657E-07)">
				<title>工作表.216</title>
				<desc>Q</desc>
				<v:textBlock v:margins="rect(4,4,4,4)" v:tabSpace="42.5197"/>
				<v:textRect cx="14.1732" cy="345.159" width="28.35" height="28.3465"/>
				<rect x="0" y="330.986" width="28.3465" height="28.3465" class="st10"/>
				<text x="10.14" y="348.76" class="st13" v:langID="2052"><v:paragraph v:horizAlign="1"/><v:tabList/>Q</text>			</g>
		</g>
	</g>
</svg>
