<?xml version="1.0" encoding="UTF-8" standalone="no"?>
<!DOCTYPE svg PUBLIC "-//W3C//DTD SVG 1.1//EN" "http://www.w3.org/Graphics/SVG/1.1/DTD/svg11.dtd">
<!-- 由 Microsoft Visio, SVG Export 生成 torch.nn.ConvTransposed1d_figure_4.svg 页-1 -->
<svg xmlns="http://www.w3.org/2000/svg" xmlns:xlink="http://www.w3.org/1999/xlink" xmlns:ev="http://www.w3.org/2001/xml-events"
		xmlns:v="http://schemas.microsoft.com/visio/2003/SVGExtensions/" width="2.87365in" height="2.86822in"
		viewBox="0 0 206.903 206.512" xml:space="preserve" color-interpolation-filters="sRGB" class="st27">
	<v:documentProperties v:langID="2052" v:metric="true" v:viewMarkup="false"/>

	<style type="text/css">
	<![CDATA[
		.st1 {marker-end:url(#mrkr3-6);stroke:#5b9bd5;stroke-dasharray:1.75,1.25;stroke-linecap:round;stroke-linejoin:round;stroke-opacity:0.5;stroke-width:0.25}
		.st2 {fill:#5b9bd5;fill-opacity:0.5;stroke:#5b9bd5;stroke-opacity:0.5;stroke-width:0.14792899408284}
		.st3 {fill:#ffffff;stroke:#000000;stroke-opacity:0.5;stroke-width:0.5}
		.st4 {fill:#000000;font-family:宋体;font-size:0.250008em}
		.st5 {fill:none;stroke:#ff0000;stroke-opacity:0.5;stroke-width:0.5}
		.st6 {fill:none;stroke:#4672c4;stroke-opacity:0.5;stroke-width:0.5}
		.st7 {fill:none;stroke:#70ad47;stroke-opacity:0.5;stroke-width:0.5}
		.st8 {fill:none;stroke:#7030a0;stroke-opacity:0.5;stroke-width:0.5}
		.st9 {fill:#ffffff;stroke:#ff0000;stroke-width:0.5}
		.st10 {fill:#ff0000;font-family:宋体;font-size:0.250008em}
		.st11 {fill:#ffffff;stroke:#000000;stroke-width:0.5}
		.st12 {fill:none;stroke:none;stroke-width:0.5}
		.st13 {fill:#000000;font-family:宋体;font-size:0.499992em}
		.st14 {fill:#ff0000;font-size:1em}
		.st15 {font-size:1em}
		.st16 {marker-end:url(#mrkr7-95);stroke:#000000;stroke-linecap:round;stroke-linejoin:round;stroke-width:0.5}
		.st17 {fill:#000000;fill-opacity:1;stroke:#000000;stroke-opacity:1;stroke-width:0.21739130434783}
		.st18 {fill:#ff0000;font-family:宋体;font-size:0.499992em}
		.st19 {fill:none;stroke:#000000;stroke-width:0.5}
		.st20 {fill:none;stroke:#ff0000;stroke-width:0.5}
		.st21 {fill:none;stroke:#4672c4;stroke-width:0.5}
		.st22 {fill:none;stroke:#70ad47;stroke-width:0.5}
		.st23 {fill:none;stroke:#7030a0;stroke-width:0.5}
		.st24 {fill:none;stroke:#5b9bd5;stroke-width:0.5}
		.st25 {marker-end:url(#mrkr3-183);stroke:#5b9bd5;stroke-linecap:round;stroke-linejoin:round;stroke-width:0.25}
		.st26 {fill:#5b9bd5;fill-opacity:1;stroke:#5b9bd5;stroke-opacity:1;stroke-width:0.14792899408284}
		.st27 {fill:none;fill-rule:evenodd;font-size:12px;overflow:visible;stroke-linecap:square;stroke-miterlimit:3}
	]]>
	</style>

	<defs id="Markers">
		<g id="lend3">
			<path d="M 2 1 L 0 0 L 2 -1 " style="stroke-linecap:round;stroke-linejoin:round;fill:none"/>
		</g>
		<marker id="mrkr3-6" class="st2" v:arrowType="3" v:arrowSize="0" orient="auto" markerUnits="strokeWidth" overflow="visible">
			<use xlink:href="#lend3" transform="scale(-6.76,-6.76) "/>
		</marker>
		<g id="lend7">
			<path
					d="M 1.84309 -0.959456 C 1.43792 -0.380801 0.784503 -0.0260255 0.078527 -0.00137091 L 0.0785229 0.00137043 C 0.784499 0.0260231 1.43791 0.380798 1.84309 0.959452 "
					style="stroke-linecap:round;stroke-linejoin:round;fill:none"/>
		</g>
		<marker id="mrkr7-95" class="st17" v:arrowType="7" v:arrowSize="1" orient="auto" markerUnits="strokeWidth"
				overflow="visible">
			<use xlink:href="#lend7" transform="scale(-4.6,-4.6) "/>
		</marker>
		<marker id="mrkr3-183" class="st26" v:arrowType="3" v:arrowSize="0" orient="auto" markerUnits="strokeWidth"
				overflow="visible">
			<use xlink:href="#lend3" transform="scale(-6.76,-6.76) "/>
		</marker>
	</defs>
	<g v:mID="0" v:index="1" v:groupContext="foregroundPage">
		<title>页-1</title>
		<v:pageProperties v:drawingScale="0.0393701" v:pageScale="0.0393701" v:drawingUnits="24" v:shadowOffsetX="8.50394"
				v:shadowOffsetY="-8.50394"/>
		<v:layer v:name="连接线" v:index="0"/>
		<g id="shape217-1" v:mID="217" v:groupContext="shape" v:layerMember="0" transform="translate(91.2087,-108.217)">
			<title>动态连接线.217</title>
			<path d="M-2.83 206.51 L-11.34 300.06" class="st1"/>
		</g>
		<g id="group243-7" transform="translate(77.0354,-109.634)" v:mID="243" v:groupContext="group">
			<title>工作表.243</title>
			<g id="shape195-8" v:mID="195" v:groupContext="shape" transform="translate(11.3386,-5.01743E-06)">
				<title>正方形.195</title>
				<desc>3</desc>
				<v:userDefs>
					<v:ud v:nameU="visVersion" v:val="VT0(15):26"/>
				</v:userDefs>
				<v:textBlock v:margins="rect(4,4,4,4)" v:tabSpace="42.5197"/>
				<v:textRect cx="5.66929" cy="200.843" width="11.34" height="11.3386"/>
				<rect x="0" y="195.173" width="11.3386" height="11.3386" class="st3"/>
				<text x="4.92" y="201.74" class="st4" v:langID="2052"><v:paragraph v:horizAlign="1"/><v:tabList/>3</text>			</g>
			<g id="shape196-11" v:mID="196" v:groupContext="shape" transform="translate(22.6772,-5.01743E-06)">
				<title>正方形.196</title>
				<desc>7</desc>
				<v:userDefs>
					<v:ud v:nameU="visVersion" v:val="VT0(15):26"/>
				</v:userDefs>
				<v:textBlock v:margins="rect(4,4,4,4)" v:tabSpace="42.5197"/>
				<v:textRect cx="5.66929" cy="200.843" width="11.34" height="11.3386"/>
				<rect x="0" y="195.173" width="11.3386" height="11.3386" class="st3"/>
				<text x="4.92" y="201.74" class="st4" v:langID="2052"><v:paragraph v:horizAlign="1"/><v:tabList/>7</text>			</g>
			<g id="shape197-14" v:mID="197" v:groupContext="shape" transform="translate(34.0158,-2.84217E-14)">
				<title>正方形.197</title>
				<desc>2</desc>
				<v:userDefs>
					<v:ud v:nameU="visVersion" v:val="VT0(15):26"/>
				</v:userDefs>
				<v:textBlock v:margins="rect(4,4,4,4)" v:tabSpace="42.5197"/>
				<v:textRect cx="5.66929" cy="200.843" width="11.34" height="11.3386"/>
				<rect x="0" y="195.173" width="11.3386" height="11.3386" class="st3"/>
				<text x="4.92" y="201.74" class="st4" v:langID="2052"><v:paragraph v:horizAlign="1"/><v:tabList/>2</text>			</g>
			<g id="shape198-17" v:mID="198" v:groupContext="shape" transform="translate(0,-5.01743E-06)">
				<title>正方形.198</title>
				<desc>0</desc>
				<v:userDefs>
					<v:ud v:nameU="visVersion" v:val="VT0(15):26"/>
				</v:userDefs>
				<v:textBlock v:margins="rect(4,4,4,4)" v:tabSpace="42.5197"/>
				<v:textRect cx="5.66929" cy="200.843" width="11.34" height="11.3386"/>
				<rect x="0" y="195.173" width="11.3386" height="11.3386" class="st3"/>
				<text x="4.92" y="201.74" class="st4" v:langID="2052"><v:paragraph v:horizAlign="1"/><v:tabList/>0</text>			</g>
			<g id="shape199-20" v:mID="199" v:groupContext="shape" transform="translate(45.3543,-2.84217E-14)">
				<title>正方形.199</title>
				<desc>0</desc>
				<v:userDefs>
					<v:ud v:nameU="visVersion" v:val="VT0(15):26"/>
				</v:userDefs>
				<v:textBlock v:margins="rect(4,4,4,4)" v:tabSpace="42.5197"/>
				<v:textRect cx="5.66929" cy="200.843" width="11.34" height="11.3386"/>
				<rect x="0" y="195.173" width="11.3386" height="11.3386" class="st3"/>
				<text x="4.92" y="201.74" class="st4" v:langID="2052"><v:paragraph v:horizAlign="1"/><v:tabList/>0</text>			</g>
		</g>
		<g id="shape238-23" v:mID="238" v:groupContext="shape" transform="translate(75.6181,-108.217)">
			<title>椭圆形</title>
			<v:userDefs>
				<v:ud v:nameU="visVersion" v:val="VT0(15):26"/>
			</v:userDefs>
			<path d="M0 199.43 A12.7559 7.08661 0 0 1 25.51 199.43 A12.7559 7.08661 0 0 1 0 199.43 Z" class="st5"/>
		</g>
		<g id="shape239-25" v:mID="239" v:groupContext="shape" transform="translate(86.9567,-108.217)">
			<title>椭圆形.33</title>
			<v:userDefs>
				<v:ud v:nameU="visVersion" v:val="VT0(15):26"/>
			</v:userDefs>
			<path d="M0 199.43 A12.7559 7.08661 0 0 1 25.51 199.43 A12.7559 7.08661 0 0 1 0 199.43 Z" class="st6"/>
		</g>
		<g id="shape240-27" v:mID="240" v:groupContext="shape" transform="translate(98.2953,-108.217)">
			<title>椭圆形.34</title>
			<v:userDefs>
				<v:ud v:nameU="visVersion" v:val="VT0(15):26"/>
			</v:userDefs>
			<path d="M0 199.43 A12.7559 7.08661 0 0 1 25.51 199.43 A12.7559 7.08661 0 0 1 0 199.43 Z" class="st7"/>
		</g>
		<g id="shape241-29" v:mID="241" v:groupContext="shape" transform="translate(109.634,-108.217)">
			<title>椭圆形.35</title>
			<v:userDefs>
				<v:ud v:nameU="visVersion" v:val="VT0(15):26"/>
			</v:userDefs>
			<path d="M0 199.43 A12.7559 7.08661 0 0 1 25.51 199.43 A12.7559 7.08661 0 0 1 0 199.43 Z" class="st8"/>
		</g>
		<g id="shape150-31" v:mID="150" v:groupContext="shape" transform="translate(136.563,-30.2638)">
			<title>正方形.150</title>
			<desc>4</desc>
			<v:userDefs>
				<v:ud v:nameU="visVersion" v:val="VT0(15):26"/>
			</v:userDefs>
			<v:textBlock v:margins="rect(4,4,4,4)" v:tabSpace="42.5197"/>
			<v:textRect cx="5.66929" cy="200.843" width="11.34" height="11.3386"/>
			<rect x="0" y="195.173" width="11.3386" height="11.3386" class="st9"/>
			<text x="4.92" y="201.74" class="st10" v:langID="2052"><v:paragraph v:horizAlign="1"/><v:tabList/>4</text>		</g>
		<g id="shape194-34" v:mID="194" v:groupContext="shape" transform="translate(147.902,-30.2638)">
			<title>正方形.194</title>
			<desc>3</desc>
			<v:userDefs>
				<v:ud v:nameU="visVersion" v:val="VT0(15):26"/>
			</v:userDefs>
			<v:textBlock v:margins="rect(4,4,4,4)" v:tabSpace="42.5197"/>
			<v:textRect cx="5.66929" cy="200.843" width="11.34" height="11.3386"/>
			<rect x="0" y="195.173" width="11.3386" height="11.3386" class="st9"/>
			<text x="4.92" y="201.74" class="st10" v:langID="2052"><v:paragraph v:horizAlign="1"/><v:tabList/>3</text>		</g>
		<g id="shape141-37" v:mID="141" v:groupContext="shape" transform="translate(136.563,-72.7835)">
			<title>正方形.141</title>
			<desc>3</desc>
			<v:userDefs>
				<v:ud v:nameU="visVersion" v:val="VT0(15):26"/>
			</v:userDefs>
			<v:textBlock v:margins="rect(4,4,4,4)" v:tabSpace="42.5197"/>
			<v:textRect cx="5.66929" cy="200.843" width="11.34" height="11.3386"/>
			<rect x="0" y="195.173" width="11.3386" height="11.3386" class="st11"/>
			<text x="4.92" y="201.74" class="st4" v:langID="2052"><v:paragraph v:horizAlign="1"/><v:tabList/>3</text>		</g>
		<g id="shape142-40" v:mID="142" v:groupContext="shape" transform="translate(147.902,-72.7835)">
			<title>正方形.142</title>
			<desc>4</desc>
			<v:userDefs>
				<v:ud v:nameU="visVersion" v:val="VT0(15):26"/>
			</v:userDefs>
			<v:textBlock v:margins="rect(4,4,4,4)" v:tabSpace="42.5197"/>
			<v:textRect cx="5.66929" cy="200.843" width="11.34" height="11.3386"/>
			<rect x="0" y="195.173" width="11.3386" height="11.3386" class="st11"/>
			<text x="4.92" y="201.74" class="st4" v:langID="2052"><v:paragraph v:horizAlign="1"/><v:tabList/>4</text>		</g>
		<g id="shape138-43" v:mID="138" v:groupContext="shape" transform="translate(88.374,-137.98)">
			<title>正方形.138</title>
			<desc>3</desc>
			<v:userDefs>
				<v:ud v:nameU="visVersion" v:val="VT0(15):26"/>
			</v:userDefs>
			<v:textBlock v:margins="rect(4,4,4,4)" v:tabSpace="42.5197"/>
			<v:textRect cx="5.66929" cy="200.843" width="11.34" height="11.3386"/>
			<rect x="0" y="195.173" width="11.3386" height="11.3386" class="st11"/>
			<text x="4.92" y="201.74" class="st4" v:langID="2052"><v:paragraph v:horizAlign="1"/><v:tabList/>3</text>		</g>
		<g id="shape139-46" v:mID="139" v:groupContext="shape" transform="translate(99.7126,-137.98)">
			<title>正方形.139</title>
			<desc>7</desc>
			<v:userDefs>
				<v:ud v:nameU="visVersion" v:val="VT0(15):26"/>
			</v:userDefs>
			<v:textBlock v:margins="rect(4,4,4,4)" v:tabSpace="42.5197"/>
			<v:textRect cx="5.66929" cy="200.843" width="11.34" height="11.3386"/>
			<rect x="0" y="195.173" width="11.3386" height="11.3386" class="st11"/>
			<text x="4.92" y="201.74" class="st4" v:langID="2052"><v:paragraph v:horizAlign="1"/><v:tabList/>7</text>		</g>
		<g id="shape140-49" v:mID="140" v:groupContext="shape" transform="translate(111.051,-137.98)">
			<title>正方形.140</title>
			<desc>2</desc>
			<v:userDefs>
				<v:ud v:nameU="visVersion" v:val="VT0(15):26"/>
			</v:userDefs>
			<v:textBlock v:margins="rect(4,4,4,4)" v:tabSpace="42.5197"/>
			<v:textRect cx="5.66929" cy="200.843" width="11.34" height="11.3386"/>
			<rect x="0" y="195.173" width="11.3386" height="11.3386" class="st11"/>
			<text x="4.92" y="201.74" class="st4" v:langID="2052"><v:paragraph v:horizAlign="1"/><v:tabList/>2</text>		</g>
		<g id="shape5-52" v:mID="5" v:groupContext="shape" transform="translate(0.500004,-160.657)">
			<title>工作表.5</title>
			<desc>输入的维度为(1,2,3) 卷积核的维度为(2,1,2) 输出的维度为(1,1,4)</desc>
			<v:textBlock v:margins="rect(4,4,4,4)" v:tabSpace="42.5197"/>
			<v:textRect cx="56.6929" cy="183.835" width="113.39" height="45.3543"/>
			<rect x="0" y="161.157" width="113.386" height="45.3543" class="st12"/>
			<text x="4" y="178.43" class="st13" v:langID="2052"><v:paragraph/><v:tabList/>输入的维度为(1,<tspan class="st14">2</tspan>,3)<v:newlineChar/><tspan
						x="4" dy="1.2em" class="st15">卷积核的维度为</tspan>(<tspan class="st14">2</tspan>,1,2)<v:newlineChar/><tspan
						x="4" dy="1.2em" class="st15">输出的维度为</tspan>(1,1,4)</text>		</g>
		<g id="shape9-59" v:mID="9" v:groupContext="shape" transform="translate(0.500002,-128.059)">
			<title>工作表.9</title>
			<desc>Input</desc>
			<v:textBlock v:margins="rect(4,4,4,4)" v:tabSpace="42.5197"/>
			<v:textRect cx="28.3465" cy="199.425" width="56.7" height="14.1732"/>
			<rect x="0" y="192.339" width="56.6929" height="14.1732" class="st12"/>
			<text x="20.85" y="201.23" class="st13" v:langID="2052"><v:paragraph v:horizAlign="1"/><v:tabList/>Input</text>		</g>
		<g id="shape10-62" v:mID="10" v:groupContext="shape" transform="translate(0.500002,-71.3661)">
			<title>工作表.10</title>
			<desc>Kernel</desc>
			<v:textBlock v:margins="rect(4,4,4,4)" v:tabSpace="42.5197"/>
			<v:textRect cx="28.3465" cy="199.425" width="56.7" height="14.1732"/>
			<rect x="0" y="192.339" width="56.6929" height="14.1732" class="st12"/>
			<text x="19.35" y="201.23" class="st13" v:langID="2052"><v:paragraph v:horizAlign="1"/><v:tabList/>Kernel</text>		</g>
		<g id="shape11-65" v:mID="11" v:groupContext="shape" transform="translate(0.5,-0.500011)">
			<title>工作表.11</title>
			<desc>Output</desc>
			<v:textBlock v:margins="rect(4,4,4,4)" v:tabSpace="42.5197"/>
			<v:textRect cx="28.3465" cy="199.425" width="56.7" height="14.1732"/>
			<rect x="0" y="192.339" width="56.6929" height="14.1732" class="st12"/>
			<text x="19.35" y="201.23" class="st13" v:langID="2052"><v:paragraph v:horizAlign="1"/><v:tabList/>Output</text>		</g>
		<g id="shape15-68" v:mID="15" v:groupContext="shape" transform="translate(74.2008,-1.91734)">
			<title>正方形.15</title>
			<desc>44</desc>
			<v:userDefs>
				<v:ud v:nameU="visVersion" v:val="VT0(15):26"/>
			</v:userDefs>
			<v:textBlock v:margins="rect(4,4,4,4)" v:tabSpace="42.5197"/>
			<v:textRect cx="5.66929" cy="200.843" width="11.34" height="11.3386"/>
			<rect x="0" y="195.173" width="11.3386" height="11.3386" class="st11"/>
			<text x="4.17" y="201.74" class="st4" v:langID="2052"><v:paragraph v:horizAlign="1"/><v:tabList/>44</text>		</g>
		<g id="shape16-71" v:mID="16" v:groupContext="shape" transform="translate(85.5394,-1.91734)">
			<title>正方形.16</title>
			<desc>59</desc>
			<v:userDefs>
				<v:ud v:nameU="visVersion" v:val="VT0(15):26"/>
			</v:userDefs>
			<v:textBlock v:margins="rect(4,4,4,4)" v:tabSpace="42.5197"/>
			<v:textRect cx="5.66929" cy="200.843" width="11.34" height="11.3386"/>
			<rect x="0" y="195.173" width="11.3386" height="11.3386" class="st11"/>
			<text x="4.17" y="201.74" class="st4" v:langID="2052"><v:paragraph v:horizAlign="1"/><v:tabList/>59</text>		</g>
		<g id="shape17-74" v:mID="17" v:groupContext="shape" transform="translate(96.878,-1.91734)">
			<title>正方形.17</title>
			<desc>79</desc>
			<v:userDefs>
				<v:ud v:nameU="visVersion" v:val="VT0(15):26"/>
			</v:userDefs>
			<v:textBlock v:margins="rect(4,4,4,4)" v:tabSpace="42.5197"/>
			<v:textRect cx="5.66929" cy="200.843" width="11.34" height="11.3386"/>
			<rect x="0" y="195.173" width="11.3386" height="11.3386" class="st11"/>
			<text x="4.17" y="201.74" class="st4" v:langID="2052"><v:paragraph v:horizAlign="1"/><v:tabList/>79</text>		</g>
		<g id="shape18-77" v:mID="18" v:groupContext="shape" transform="translate(108.217,-1.91734)">
			<title>正方形.18</title>
			<desc>14</desc>
			<v:userDefs>
				<v:ud v:nameU="visVersion" v:val="VT0(15):26"/>
			</v:userDefs>
			<v:textBlock v:margins="rect(4,4,4,4)" v:tabSpace="42.5197"/>
			<v:textRect cx="5.66929" cy="200.843" width="11.34" height="11.3386"/>
			<rect x="0" y="195.173" width="11.3386" height="11.3386" class="st11"/>
			<text x="4.17" y="201.74" class="st4" v:langID="2052"><v:paragraph v:horizAlign="1"/><v:tabList/>14</text>		</g>
		<g id="shape1-80" v:mID="1" v:groupContext="shape" transform="translate(79.8701,-129.476)">
			<title>正方形</title>
			<desc>5</desc>
			<v:userDefs>
				<v:ud v:nameU="visVersion" v:val="VT0(15):26"/>
			</v:userDefs>
			<v:textBlock v:margins="rect(4,4,4,4)" v:tabSpace="42.5197"/>
			<v:textRect cx="5.66929" cy="200.843" width="11.34" height="11.3386"/>
			<rect x="0" y="195.173" width="11.3386" height="11.3386" class="st11"/>
			<text x="4.92" y="201.74" class="st4" v:langID="2052"><v:paragraph v:horizAlign="1"/><v:tabList/>5</text>		</g>
		<g id="shape2-83" v:mID="2" v:groupContext="shape" transform="translate(91.2087,-129.476)">
			<title>正方形.2</title>
			<desc>3</desc>
			<v:userDefs>
				<v:ud v:nameU="visVersion" v:val="VT0(15):26"/>
			</v:userDefs>
			<v:textBlock v:margins="rect(4,4,4,4)" v:tabSpace="42.5197"/>
			<v:textRect cx="5.66929" cy="200.843" width="11.34" height="11.3386"/>
			<rect x="0" y="195.173" width="11.3386" height="11.3386" class="st11"/>
			<text x="4.92" y="201.74" class="st4" v:langID="2052"><v:paragraph v:horizAlign="1"/><v:tabList/>3</text>		</g>
		<g id="shape3-86" v:mID="3" v:groupContext="shape" transform="translate(102.547,-129.476)">
			<title>正方形.3</title>
			<desc>6</desc>
			<v:userDefs>
				<v:ud v:nameU="visVersion" v:val="VT0(15):26"/>
			</v:userDefs>
			<v:textBlock v:margins="rect(4,4,4,4)" v:tabSpace="42.5197"/>
			<v:textRect cx="5.66929" cy="200.843" width="11.34" height="11.3386"/>
			<rect x="0" y="195.173" width="11.3386" height="11.3386" class="st11"/>
			<text x="4.92" y="201.74" class="st4" v:langID="2052"><v:paragraph v:horizAlign="1"/><v:tabList/>6</text>		</g>
		<g id="group76-89" transform="translate(162.075,-149.319)" v:mID="76" v:groupContext="group">
			<title>工作表.76</title>
			<g id="shape70-90" v:mID="70" v:groupContext="shape" v:layerMember="0" transform="translate(4.25196,-28.6723)">
				<title>动态连接线.156</title>
				<path d="M7.09 206.51 L7.09 235.18" class="st16"/>
			</g>
			<g id="shape71-96" v:mID="71" v:groupContext="shape" v:layerMember="0" transform="translate(11.3386,-21.5857)">
				<title>动态连接线.157</title>
				<path d="M0 199.43 L28.35 199.43" class="st16"/>
			</g>
			<g id="shape72-101" v:mID="72" v:groupContext="shape" v:layerMember="0" transform="translate(11.3386,-28.6723)">
				<title>动态连接线.158</title>
				<path d="M0 206.51 L19.84 186.44" class="st16"/>
			</g>
			<g id="shape73-106" v:mID="73" v:groupContext="shape" transform="translate(11.3386,-15.7698)">
				<title>工作表.73</title>
				<desc>dim=2</desc>
				<v:textBlock v:margins="rect(4,4,4,4)" v:tabSpace="42.5197"/>
				<v:textRect cx="14.1732" cy="199.344" width="28.35" height="14.3361"/>
				<rect x="0" y="192.176" width="28.3465" height="14.3361" class="st12"/>
				<text x="6.67" y="201.14" class="st13" v:langID="2052"><v:paragraph v:horizAlign="1"/><v:tabList/>dim=2</text>			</g>
			<g id="shape74-109" v:mID="74" v:groupContext="shape" transform="translate(-132.727,34.1182) rotate(-45)">
				<title>工作表.74</title>
				<desc>dim=1</desc>
				<v:textBlock v:margins="rect(4,4,4,4)" v:tabSpace="42.5197"/>
				<v:textRect cx="14.2547" cy="199.384" width="28.51" height="14.2547"/>
				<rect x="0" y="192.257" width="28.5094" height="14.2547" class="st12"/>
				<text x="6.75" y="201.18" class="st13" v:langID="2052"><v:paragraph v:horizAlign="1"/><v:tabList/>dim=1</text>			</g>
			<g id="shape75-112" v:mID="75" v:groupContext="shape" transform="translate(-192.339,204.957) rotate(-90)">
				<title>工作表.75</title>
				<desc>dim=0</desc>
				<v:textBlock v:margins="rect(4,4,4,4)" v:tabSpace="42.5197"/>
				<v:textRect cx="14.3361" cy="199.425" width="28.68" height="14.1732"/>
				<rect x="0" y="192.339" width="28.6723" height="14.1732" class="st12"/>
				<text x="6.84" y="201.23" class="st13" v:langID="2052"><v:paragraph v:horizAlign="1"/><v:tabList/>dim=0</text>			</g>
		</g>
		<g id="shape12-115" v:mID="12" v:groupContext="shape" transform="translate(136.563,-86.9567)">
			<title>正方形.12</title>
			<desc>7</desc>
			<v:userDefs>
				<v:ud v:nameU="visVersion" v:val="VT0(15):26"/>
			</v:userDefs>
			<v:textBlock v:margins="rect(4,4,4,4)" v:tabSpace="42.5197"/>
			<v:textRect cx="5.66929" cy="200.843" width="11.34" height="11.3386"/>
			<rect x="0" y="195.173" width="11.3386" height="11.3386" class="st11"/>
			<text x="4.92" y="201.74" class="st4" v:langID="2052"><v:paragraph v:horizAlign="1"/><v:tabList/>7</text>		</g>
		<g id="shape13-118" v:mID="13" v:groupContext="shape" transform="translate(147.902,-86.9567)">
			<title>正方形.13</title>
			<desc>1</desc>
			<v:userDefs>
				<v:ud v:nameU="visVersion" v:val="VT0(15):26"/>
			</v:userDefs>
			<v:textBlock v:margins="rect(4,4,4,4)" v:tabSpace="42.5197"/>
			<v:textRect cx="5.66929" cy="200.843" width="11.34" height="11.3386"/>
			<rect x="0" y="195.173" width="11.3386" height="11.3386" class="st11"/>
			<text x="4.92" y="201.74" class="st4" v:langID="2052"><v:paragraph v:horizAlign="1"/><v:tabList/>1</text>		</g>
		<g id="shape111-121" v:mID="111" v:groupContext="shape" transform="translate(0.5,-99.7126)">
			<title>工作表.111</title>
			<desc>Convert Input</desc>
			<v:textBlock v:margins="rect(4,4,4,4)" v:tabSpace="42.5197"/>
			<v:textRect cx="28.3465" cy="199.425" width="56.7" height="14.1732"/>
			<rect x="0" y="192.339" width="56.6929" height="14.1732" class="st12"/>
			<text x="8.85" y="201.23" class="st18" v:langID="2052"><v:paragraph v:horizAlign="1"/><v:tabList/>Convert Input</text>		</g>
		<g id="shape126-124" v:mID="126" v:groupContext="shape" transform="translate(136.563,-44.437)">
			<title>正方形.126</title>
			<desc>1</desc>
			<v:userDefs>
				<v:ud v:nameU="visVersion" v:val="VT0(15):26"/>
			</v:userDefs>
			<v:textBlock v:margins="rect(4,4,4,4)" v:tabSpace="42.5197"/>
			<v:textRect cx="5.66929" cy="200.843" width="11.34" height="11.3386"/>
			<rect x="0" y="195.173" width="11.3386" height="11.3386" class="st9"/>
			<text x="4.92" y="201.74" class="st10" v:langID="2052"><v:paragraph v:horizAlign="1"/><v:tabList/>1</text>		</g>
		<g id="shape127-127" v:mID="127" v:groupContext="shape" transform="translate(147.902,-44.437)">
			<title>正方形.127</title>
			<desc>7</desc>
			<v:userDefs>
				<v:ud v:nameU="visVersion" v:val="VT0(15):26"/>
			</v:userDefs>
			<v:textBlock v:margins="rect(4,4,4,4)" v:tabSpace="42.5197"/>
			<v:textRect cx="5.66929" cy="200.843" width="11.34" height="11.3386"/>
			<rect x="0" y="195.173" width="11.3386" height="11.3386" class="st9"/>
			<text x="4.92" y="201.74" class="st10" v:langID="2052"><v:paragraph v:horizAlign="1"/><v:tabList/>7</text>		</g>
		<g id="shape137-130" v:mID="137" v:groupContext="shape" transform="translate(3.33465,-28.8465)">
			<title>工作表.137</title>
			<desc>Convert Kernel</desc>
			<v:textBlock v:margins="rect(4,4,4,4)" v:tabSpace="42.5197"/>
			<v:textRect cx="28.3465" cy="199.425" width="56.7" height="14.1732"/>
			<rect x="0" y="192.339" width="56.6929" height="14.1732" class="st12"/>
			<text x="7.35" y="201.23" class="st18" v:langID="2052"><v:paragraph v:horizAlign="1"/><v:tabList/>Convert Kernel</text>		</g>
		<g id="group225-133" transform="translate(135.146,-71.3661)" v:mID="225" v:groupContext="group">
			<title>工作表.225</title>
			<g id="shape226-134" v:mID="226" v:groupContext="shape">
				<title>椭圆形.64</title>
				<v:userDefs>
					<v:ud v:nameU="visVersion" v:val="VT0(15):26"/>
				</v:userDefs>
				<path d="M0 199.43 A12.7559 7.08661 0 0 1 25.51 199.43 A12.7559 7.08661 0 1 1 0 199.43 Z" class="st19"/>
			</g>
		</g>
		<g id="group227-136" transform="translate(135.146,-85.5394)" v:mID="227" v:groupContext="group">
			<title>工作表.227</title>
			<g id="shape228-137" v:mID="228" v:groupContext="shape">
				<title>椭圆形.64</title>
				<v:userDefs>
					<v:ud v:nameU="visVersion" v:val="VT0(15):26"/>
				</v:userDefs>
				<path d="M0 199.43 A12.7559 7.08661 0 0 1 25.51 199.43 A12.7559 7.08661 0 1 1 0 199.43 Z" class="st19"/>
			</g>
		</g>
		<g id="shape244-139" v:mID="244" v:groupContext="shape" transform="translate(135.146,-43.0197)">
			<title>椭圆形.64</title>
			<v:userDefs>
				<v:ud v:nameU="visVersion" v:val="VT0(15):26"/>
			</v:userDefs>
			<path d="M0 199.43 A12.7559 7.08661 0 0 1 25.51 199.43 A12.7559 7.08661 0 1 1 0 199.43 Z" class="st19"/>
		</g>
		<g id="shape245-141" v:mID="245" v:groupContext="shape" transform="translate(135.146,-28.8465)">
			<title>椭圆形.245</title>
			<v:userDefs>
				<v:ud v:nameU="visVersion" v:val="VT0(15):26"/>
			</v:userDefs>
			<path d="M0 199.43 A12.7559 7.08661 0 0 1 25.51 199.43 A12.7559 7.08661 0 1 1 0 199.43 Z" class="st19"/>
		</g>
		<g id="shape246-143" v:mID="246" v:groupContext="shape" transform="translate(72.7835,-0.5)">
			<title>椭圆形.36</title>
			<v:userDefs>
				<v:ud v:nameU="visVersion" v:val="VT0(15):26"/>
			</v:userDefs>
			<path d="M0 199.43 A7.08661 7.08661 0 0 1 14.17 199.43 A7.08661 7.08661 0 0 1 0 199.43 Z" class="st20"/>
		</g>
		<g id="shape247-145" v:mID="247" v:groupContext="shape" transform="translate(84.122,-0.500013)">
			<title>椭圆形.57</title>
			<v:userDefs>
				<v:ud v:nameU="visVersion" v:val="VT0(15):26"/>
			</v:userDefs>
			<path d="M0 199.43 A7.08661 7.08661 0 0 1 14.17 199.43 A7.08661 7.08661 0 0 1 0 199.43 Z" class="st21"/>
		</g>
		<g id="shape248-147" v:mID="248" v:groupContext="shape" transform="translate(95.4606,-0.500013)">
			<title>椭圆形.58</title>
			<v:userDefs>
				<v:ud v:nameU="visVersion" v:val="VT0(15):26"/>
			</v:userDefs>
			<path d="M0 199.43 A7.08661 7.08661 0 0 1 14.17 199.43 A7.08661 7.08661 0 0 1 0 199.43 Z" class="st22"/>
		</g>
		<g id="shape249-149" v:mID="249" v:groupContext="shape" transform="translate(106.799,-0.50001)">
			<title>椭圆形.59</title>
			<v:userDefs>
				<v:ud v:nameU="visVersion" v:val="VT0(15):26"/>
			</v:userDefs>
			<path d="M0 199.43 A7.08661 7.08661 0 0 1 14.17 199.43 A7.08661 7.08661 0 0 1 0 199.43 Z" class="st23"/>
		</g>
		<g id="shape112-151" v:mID="112" v:groupContext="shape" transform="translate(79.8701,-101.13)">
			<title>正方形.112</title>
			<desc>5</desc>
			<v:userDefs>
				<v:ud v:nameU="visVersion" v:val="VT0(15):26"/>
			</v:userDefs>
			<v:textBlock v:margins="rect(4,4,4,4)" v:tabSpace="42.5197"/>
			<v:textRect cx="5.66929" cy="200.843" width="11.34" height="11.3386"/>
			<rect x="0" y="195.173" width="11.3386" height="11.3386" class="st11"/>
			<text x="4.92" y="201.74" class="st4" v:langID="2052"><v:paragraph v:horizAlign="1"/><v:tabList/>5</text>		</g>
		<g id="shape113-154" v:mID="113" v:groupContext="shape" transform="translate(91.2087,-101.13)">
			<title>正方形.113</title>
			<desc>3</desc>
			<v:userDefs>
				<v:ud v:nameU="visVersion" v:val="VT0(15):26"/>
			</v:userDefs>
			<v:textBlock v:margins="rect(4,4,4,4)" v:tabSpace="42.5197"/>
			<v:textRect cx="5.66929" cy="200.843" width="11.34" height="11.3386"/>
			<rect x="0" y="195.173" width="11.3386" height="11.3386" class="st11"/>
			<text x="4.92" y="201.74" class="st4" v:langID="2052"><v:paragraph v:horizAlign="1"/><v:tabList/>3</text>		</g>
		<g id="shape114-157" v:mID="114" v:groupContext="shape" transform="translate(102.547,-101.13)">
			<title>正方形.114</title>
			<desc>6</desc>
			<v:userDefs>
				<v:ud v:nameU="visVersion" v:val="VT0(15):26"/>
			</v:userDefs>
			<v:textBlock v:margins="rect(4,4,4,4)" v:tabSpace="42.5197"/>
			<v:textRect cx="5.66929" cy="200.843" width="11.34" height="11.3386"/>
			<rect x="0" y="195.173" width="11.3386" height="11.3386" class="st11"/>
			<text x="4.92" y="201.74" class="st4" v:langID="2052"><v:paragraph v:horizAlign="1"/><v:tabList/>6</text>		</g>
		<g id="shape118-160" v:mID="118" v:groupContext="shape" transform="translate(68.5315,-101.13)">
			<title>正方形.118</title>
			<desc>0</desc>
			<v:userDefs>
				<v:ud v:nameU="visVersion" v:val="VT0(15):26"/>
			</v:userDefs>
			<v:textBlock v:margins="rect(4,4,4,4)" v:tabSpace="42.5197"/>
			<v:textRect cx="5.66929" cy="200.843" width="11.34" height="11.3386"/>
			<rect x="0" y="195.173" width="11.3386" height="11.3386" class="st11"/>
			<text x="4.92" y="201.74" class="st4" v:langID="2052"><v:paragraph v:horizAlign="1"/><v:tabList/>0</text>		</g>
		<g id="shape119-163" v:mID="119" v:groupContext="shape" transform="translate(113.886,-101.13)">
			<title>正方形.119</title>
			<desc>0</desc>
			<v:userDefs>
				<v:ud v:nameU="visVersion" v:val="VT0(15):26"/>
			</v:userDefs>
			<v:textBlock v:margins="rect(4,4,4,4)" v:tabSpace="42.5197"/>
			<v:textRect cx="5.66929" cy="200.843" width="11.34" height="11.3386"/>
			<rect x="0" y="195.173" width="11.3386" height="11.3386" class="st11"/>
			<text x="4.92" y="201.74" class="st4" v:langID="2052"><v:paragraph v:horizAlign="1"/><v:tabList/>0</text>		</g>
		<g id="group229-166" transform="translate(67.1142,-99.7126)" v:mID="229" v:groupContext="group">
			<title>工作表.229</title>
			<g id="shape230-167" v:mID="230" v:groupContext="shape">
				<title>椭圆形.64</title>
				<v:userDefs>
					<v:ud v:nameU="visVersion" v:val="VT0(15):26"/>
				</v:userDefs>
				<path d="M0 199.43 A12.7559 7.08661 0 0 1 25.51 199.43 A12.7559 7.08661 0 1 1 0 199.43 Z" class="st20"/>
			</g>
		</g>
		<g id="group231-169" transform="translate(78.4528,-99.7126)" v:mID="231" v:groupContext="group">
			<title>工作表.231</title>
			<g id="shape232-170" v:mID="232" v:groupContext="shape">
				<title>椭圆形.64</title>
				<v:userDefs>
					<v:ud v:nameU="visVersion" v:val="VT0(15):26"/>
				</v:userDefs>
				<path d="M0 199.43 A12.7559 7.08661 0 0 1 25.51 199.43 A12.7559 7.08661 0 1 1 0 199.43 Z" class="st24"/>
			</g>
		</g>
		<g id="group233-172" transform="translate(89.7913,-99.7126)" v:mID="233" v:groupContext="group">
			<title>工作表.233</title>
			<g id="shape234-173" v:mID="234" v:groupContext="shape">
				<title>椭圆形.64</title>
				<v:userDefs>
					<v:ud v:nameU="visVersion" v:val="VT0(15):26"/>
				</v:userDefs>
				<path d="M0 199.43 A12.7559 7.08661 0 0 1 25.51 199.43 A12.7559 7.08661 0 1 1 0 199.43 Z" class="st22"/>
			</g>
		</g>
		<g id="group235-175" transform="translate(101.13,-99.7126)" v:mID="235" v:groupContext="group">
			<title>工作表.235</title>
			<g id="shape236-176" v:mID="236" v:groupContext="shape">
				<title>椭圆形.64</title>
				<v:userDefs>
					<v:ud v:nameU="visVersion" v:val="VT0(15):26"/>
				</v:userDefs>
				<path d="M0 199.43 A12.7559 7.08661 0 0 1 25.51 199.43 A12.7559 7.08661 0 1 1 0 199.43 Z" class="st23"/>
			</g>
		</g>
		<g id="shape121-178" v:mID="121" v:groupContext="shape" v:layerMember="0" transform="translate(86.9567,-99.7126)">
			<title>动态连接线.121</title>
			<path d="M-7.09 206.51 L-7.09 291.55" class="st25"/>
		</g>
		<g id="shape221-184" v:mID="221" v:groupContext="shape" v:layerMember="0" transform="translate(147.902,-43.0197)">
			<title>动态连接线.221</title>
			<path d="M0 206.51 L-68.03 234.86" class="st25"/>
		</g>
		<g id="shape223-189" v:mID="223" v:groupContext="shape" v:layerMember="0" transform="translate(147.902,-28.8465)">
			<title>动态连接线.223</title>
			<path d="M0 206.51 L-68.03 220.69" class="st1"/>
		</g>
	</g>
</svg>
