<?xml version="1.0" encoding="UTF-8" standalone="no"?>
<!DOCTYPE svg PUBLIC "-//W3C//DTD SVG 1.1//EN" "http://www.w3.org/Graphics/SVG/1.1/DTD/svg11.dtd">
<!-- 由 Microsoft Visio, SVG Export 生成 torch.nn.Conv1d_figure_2.svg 页-1 -->
<svg xmlns="http://www.w3.org/2000/svg" xmlns:xlink="http://www.w3.org/1999/xlink" xmlns:ev="http://www.w3.org/2001/xml-events"
		xmlns:v="http://schemas.microsoft.com/visio/2003/SVGExtensions/" width="3.1635in" height="2.50754in"
		viewBox="0 0 227.772 180.543" xml:space="preserve" color-interpolation-filters="sRGB" class="st21">
	<v:documentProperties v:langID="2052" v:metric="true" v:viewMarkup="false"/>

	<style type="text/css">
	<![CDATA[
		.st1 {marker-end:url(#mrkr7-7);stroke:#000000;stroke-dasharray:3.5,2.5;stroke-linecap:round;stroke-linejoin:round;stroke-opacity:0.5;stroke-width:0.5}
		.st2 {fill:#000000;fill-opacity:0.5;stroke:#000000;stroke-opacity:0.5;stroke-width:0.21739130434783}
		.st3 {fill:#ffffff;stroke:#c8c8c8;stroke-opacity:0.5;stroke-width:0.5}
		.st4 {fill:#000000;font-family:宋体;font-size:0.499992em}
		.st5 {fill:none;stroke:#c8c8c8;stroke-opacity:0.5;stroke-width:0.5}
		.st6 {fill:none;stroke:#ff0000;stroke-opacity:0.5;stroke-width:0.5}
		.st7 {fill:none;stroke:#4672c4;stroke-opacity:0.5;stroke-width:0.5}
		.st8 {fill:none;stroke:#70ad47;stroke-opacity:0.5;stroke-width:0.5}
		.st9 {fill:none;stroke:#7030a0;stroke-opacity:0.5;stroke-width:0.5}
		.st10 {fill:none;stroke:none;stroke-width:0.5}
		.st11 {fill:#ff0000;font-size:1em}
		.st12 {font-size:1em}
		.st13 {marker-end:url(#mrkr7-68);stroke:#000000;stroke-linecap:round;stroke-linejoin:round;stroke-width:0.5}
		.st14 {fill:#000000;fill-opacity:1;stroke:#000000;stroke-opacity:1;stroke-width:0.21739130434783}
		.st15 {fill:#ffffff;stroke:#000000;stroke-width:0.5}
		.st16 {fill:none;stroke:#ff0000;stroke-width:0.5}
		.st17 {fill:none;stroke:#4672c4;stroke-width:0.5}
		.st18 {fill:none;stroke:#70ad47;stroke-width:0.5}
		.st19 {fill:none;stroke:#7030a0;stroke-width:0.5}
		.st20 {fill:none;stroke:#000000;stroke-width:0.5}
		.st21 {fill:none;fill-rule:evenodd;font-size:12px;overflow:visible;stroke-linecap:square;stroke-miterlimit:3}
	]]>
	</style>

	<defs id="Markers">
		<g id="lend7">
			<path
					d="M 1.84309 -0.959456 C 1.43792 -0.380801 0.784503 -0.0260255 0.078527 -0.00137091 L 0.0785229 0.00137043 C 0.784499 0.0260231 1.43791 0.380798 1.84309 0.959452 "
					style="stroke-linecap:round;stroke-linejoin:round;fill:none"/>
		</g>
		<marker id="mrkr7-7" class="st2" v:arrowType="7" v:arrowSize="1" orient="auto" markerUnits="strokeWidth" overflow="visible">
			<use xlink:href="#lend7" transform="scale(-4.6,-4.6) "/>
		</marker>
		<marker id="mrkr7-68" class="st14" v:arrowType="7" v:arrowSize="1" orient="auto" markerUnits="strokeWidth"
				overflow="visible">
			<use xlink:href="#lend7" transform="scale(-4.6,-4.6) "/>
		</marker>
	</defs>
	<g v:mID="0" v:index="1" v:groupContext="foregroundPage">
		<title>页-1</title>
		<v:pageProperties v:drawingScale="0.0393701" v:pageScale="0.0393701" v:drawingUnits="24" v:shadowOffsetX="8.50394"
				v:shadowOffsetY="-8.50394"/>
		<v:layer v:name="连接线" v:index="0"/>
		<g id="group132-1" transform="translate(0.5,-0.5)" v:mID="132" v:groupContext="group">
			<title>工作表.132</title>
			<g id="shape121-2" v:mID="121" v:groupContext="shape" v:layerMember="0" transform="translate(174.331,-53.8583)">
				<title>动态连接线.121</title>
				<path d="M0 180.54 L-89.29 214.56" class="st1"/>
			</g>
			<g id="group116-8" transform="translate(157.323,-53.8583)" v:mID="116" v:groupContext="group">
				<title>工作表.116</title>
				<g id="shape112-9" v:mID="112" v:groupContext="shape" transform="translate(2.83465,-2.83465)">
					<title>正方形.112</title>
					<desc>2</desc>
					<v:userDefs>
						<v:ud v:nameU="visVersion" v:val="VT0(15):26"/>
					</v:userDefs>
					<v:textBlock v:margins="rect(4,4,4,4)" v:tabSpace="42.5197"/>
					<v:textRect cx="7.08661" cy="173.457" width="14.18" height="14.1732"/>
					<rect x="0" y="166.37" width="14.1732" height="14.1732" class="st3"/>
					<text x="5.59" y="175.26" class="st4" v:langID="2052"><v:paragraph v:horizAlign="1"/><v:tabList/>2</text>				</g>
				<g id="shape113-12" v:mID="113" v:groupContext="shape" transform="translate(17.0079,-2.83465)">
					<title>正方形.113</title>
					<desc>-1</desc>
					<v:userDefs>
						<v:ud v:nameU="visVersion" v:val="VT0(15):26"/>
					</v:userDefs>
					<v:textBlock v:margins="rect(4,4,4,4)" v:tabSpace="42.5197"/>
					<v:textRect cx="7.08661" cy="173.457" width="14.18" height="14.1732"/>
					<rect x="0" y="166.37" width="14.1732" height="14.1732" class="st3"/>
					<text x="4.09" y="175.26" class="st4" v:langID="2052"><v:paragraph v:horizAlign="1"/><v:tabList/>-1</text>				</g>
				<g id="shape114-15" v:mID="114" v:groupContext="shape">
					<title>椭圆形.114</title>
					<v:userDefs>
						<v:ud v:nameU="visVersion" v:val="VT0(15):26"/>
					</v:userDefs>
					<path d="M0 170.62 A17.0079 9.92126 0 0 1 34.02 170.62 A17.0079 9.92126 0 0 1 0 170.62 Z" class="st5"/>
				</g>
			</g>
			<g id="shape117-17" v:mID="117" v:groupContext="shape" v:layerMember="0" transform="translate(103.465,-96.378)">
				<title>动态连接线.117</title>
				<path d="M0 180.54 L-18.43 257.08" class="st1"/>
			</g>
			<g id="group105-22" transform="translate(89.2913,-99.2126)" v:mID="105" v:groupContext="group">
				<title>工作表.105</title>
				<g id="shape96-23" v:mID="96" v:groupContext="shape" transform="translate(42.5197,0)">
					<title>正方形.4</title>
					<desc>5</desc>
					<v:userDefs>
						<v:ud v:nameU="visVersion" v:val="VT0(15):26"/>
					</v:userDefs>
					<v:textBlock v:margins="rect(4,4,4,4)" v:tabSpace="42.5197"/>
					<v:textRect cx="7.08661" cy="173.457" width="14.18" height="14.1732"/>
					<rect x="0" y="166.37" width="14.1732" height="14.1732" class="st3"/>
					<text x="5.59" y="175.26" class="st4" v:langID="2052"><v:paragraph v:horizAlign="1"/><v:tabList/>5</text>				</g>
				<g id="shape97-26" v:mID="97" v:groupContext="shape" transform="translate(56.6929,0)">
					<title>正方形.7</title>
					<desc>1</desc>
					<v:userDefs>
						<v:ud v:nameU="visVersion" v:val="VT0(15):26"/>
					</v:userDefs>
					<v:textBlock v:margins="rect(4,4,4,4)" v:tabSpace="42.5197"/>
					<v:textRect cx="7.08661" cy="173.457" width="14.18" height="14.1732"/>
					<rect x="0" y="166.37" width="14.1732" height="14.1732" class="st3"/>
					<text x="5.59" y="175.26" class="st4" v:langID="2052"><v:paragraph v:horizAlign="1"/><v:tabList/>1</text>				</g>
				<g id="shape102-29" v:mID="102" v:groupContext="shape" transform="translate(5.19584E-14,-1.43191E-07)">
					<title>正方形.102</title>
					<desc>3</desc>
					<v:userDefs>
						<v:ud v:nameU="visVersion" v:val="VT0(15):26"/>
					</v:userDefs>
					<v:textBlock v:margins="rect(4,4,4,4)" v:tabSpace="42.5197"/>
					<v:textRect cx="7.08661" cy="173.457" width="14.18" height="14.1732"/>
					<rect x="0" y="166.37" width="14.1732" height="14.1732" class="st3"/>
					<text x="5.59" y="175.26" class="st4" v:langID="2052"><v:paragraph v:horizAlign="1"/><v:tabList/>3</text>				</g>
				<g id="shape103-32" v:mID="103" v:groupContext="shape" transform="translate(14.1732,-1.43191E-07)">
					<title>正方形.103</title>
					<desc>7</desc>
					<v:userDefs>
						<v:ud v:nameU="visVersion" v:val="VT0(15):26"/>
					</v:userDefs>
					<v:textBlock v:margins="rect(4,4,4,4)" v:tabSpace="42.5197"/>
					<v:textRect cx="7.08661" cy="173.457" width="14.18" height="14.1732"/>
					<rect x="0" y="166.37" width="14.1732" height="14.1732" class="st3"/>
					<text x="5.59" y="175.26" class="st4" v:langID="2052"><v:paragraph v:horizAlign="1"/><v:tabList/>7</text>				</g>
				<g id="shape104-35" v:mID="104" v:groupContext="shape" transform="translate(28.3465,-1.43191E-07)">
					<title>正方形.104</title>
					<desc>2</desc>
					<v:userDefs>
						<v:ud v:nameU="visVersion" v:val="VT0(15):26"/>
					</v:userDefs>
					<v:textBlock v:margins="rect(4,4,4,4)" v:tabSpace="42.5197"/>
					<v:textRect cx="7.08661" cy="173.457" width="14.18" height="14.1732"/>
					<rect x="0" y="166.37" width="14.1732" height="14.1732" class="st3"/>
					<text x="5.59" y="175.26" class="st4" v:langID="2052"><v:paragraph v:horizAlign="1"/><v:tabList/>2</text>				</g>
			</g>
			<g id="group110-38" transform="translate(86.4567,-96.378)" v:mID="110" v:groupContext="group">
				<title>工作表.110</title>
				<g id="shape98-39" v:mID="98" v:groupContext="shape" transform="translate(-2.9976E-14,-1.13082E-06)">
					<title>椭圆形</title>
					<v:userDefs>
						<v:ud v:nameU="visVersion" v:val="VT0(15):26"/>
					</v:userDefs>
					<path d="M0 170.62 A17.0079 9.92126 0 0 1 34.02 170.62 A17.0079 9.92126 0 0 1 0 170.62 Z" class="st6"/>
				</g>
				<g id="shape99-41" v:mID="99" v:groupContext="shape" transform="translate(14.1732,-1.13082E-06)">
					<title>椭圆形.33</title>
					<v:userDefs>
						<v:ud v:nameU="visVersion" v:val="VT0(15):26"/>
					</v:userDefs>
					<path d="M0 170.62 A17.0079 9.92126 0 0 1 34.02 170.62 A17.0079 9.92126 0 0 1 0 170.62 Z" class="st7"/>
				</g>
				<g id="shape100-43" v:mID="100" v:groupContext="shape" transform="translate(28.3465,5.68434E-14)">
					<title>椭圆形.34</title>
					<v:userDefs>
						<v:ud v:nameU="visVersion" v:val="VT0(15):26"/>
					</v:userDefs>
					<path d="M0 170.62 A17.0079 9.92126 0 0 1 34.02 170.62 A17.0079 9.92126 0 0 1 0 170.62 Z" class="st8"/>
				</g>
				<g id="shape101-45" v:mID="101" v:groupContext="shape" transform="translate(42.5197,-1.13082E-06)">
					<title>椭圆形.35</title>
					<v:userDefs>
						<v:ud v:nameU="visVersion" v:val="VT0(15):26"/>
					</v:userDefs>
					<path d="M0 170.62 A17.0079 9.92126 0 0 1 34.02 170.62 A17.0079 9.92126 0 0 1 0 170.62 Z" class="st9"/>
				</g>
			</g>
			<g id="shape5-47" v:mID="5" v:groupContext="shape" transform="translate(3.19744E-14,-116.22)">
				<title>工作表.5</title>
				<desc>输入的维度为(1,2,5) 卷积核的维度为(1,2,2) 输出的维度为(1,1,4)</desc>
				<v:textBlock v:margins="rect(4,4,4,4)" v:tabSpace="42.5197"/>
				<v:textRect cx="56.6929" cy="159.283" width="113.39" height="42.5197"/>
				<rect x="0" y="138.024" width="113.386" height="42.5197" class="st10"/>
				<text x="4" y="153.88" class="st4" v:langID="2052"><v:paragraph/><v:tabList/>输入的维度为(1,<tspan class="st11">2</tspan>,5)<v:newlineChar/><tspan
							x="4" dy="1.2em" class="st12">卷积核的维度为</tspan>(1,<tspan class="st11">2</tspan>,2)<v:newlineChar/><tspan
							x="4" dy="1.2em" class="st12">输出的维度为</tspan>(1,1,4)</text>			</g>
			<g id="shape9-54" v:mID="9" v:groupContext="shape" transform="translate(3.27738E-13,-87.874)">
				<title>工作表.9</title>
				<desc>Input</desc>
				<v:textBlock v:margins="rect(4,4,4,4)" v:tabSpace="42.5197"/>
				<v:textRect cx="28.3465" cy="173.457" width="56.7" height="14.1732"/>
				<rect x="0" y="166.37" width="56.6929" height="14.1732" class="st10"/>
				<text x="20.85" y="175.26" class="st4" v:langID="2052"><v:paragraph v:horizAlign="1"/><v:tabList/>Input</text>			</g>
			<g id="shape10-57" v:mID="10" v:groupContext="shape" transform="translate(3.27738E-13,-45.3543)">
				<title>工作表.10</title>
				<desc>Kernel</desc>
				<v:textBlock v:margins="rect(4,4,4,4)" v:tabSpace="42.5197"/>
				<v:textRect cx="28.3465" cy="173.457" width="56.7" height="14.1732"/>
				<rect x="0" y="166.37" width="56.6929" height="14.1732" class="st10"/>
				<text x="19.35" y="175.26" class="st4" v:langID="2052"><v:paragraph v:horizAlign="1"/><v:tabList/>Kernel</text>			</g>
			<g id="shape11-60" v:mID="11" v:groupContext="shape" transform="translate(6.6899E-07,-2.83465)">
				<title>工作表.11</title>
				<desc>Output</desc>
				<v:textBlock v:margins="rect(4,4,4,4)" v:tabSpace="42.5197"/>
				<v:textRect cx="28.3465" cy="173.457" width="56.7" height="14.1732"/>
				<rect x="0" y="166.37" width="56.6929" height="14.1732" class="st10"/>
				<text x="19.35" y="175.26" class="st4" v:langID="2052"><v:paragraph v:horizAlign="1"/><v:tabList/>Output</text>			</g>
			<g id="shape60-63" v:mID="60" v:groupContext="shape" v:layerMember="0" transform="translate(95.6693,-85.0394)">
				<title>动态连接线</title>
				<path d="M-3.54 180.54 L-10.63 245.74" class="st13"/>
			</g>
			<g id="shape65-69" v:mID="65" v:groupContext="shape" v:layerMember="0" transform="translate(162.992,-42.5197)">
				<title>动态连接线.65</title>
				<path d="M0 180.54 L-77.95 203.22" class="st13"/>
			</g>
			<g id="group79-74" transform="translate(75.1181,-5.68434E-14)" v:mID="79" v:groupContext="group">
				<title>工作表.79</title>
				<g id="shape15-75" v:mID="15" v:groupContext="shape" transform="translate(2.83465,-2.83465)">
					<title>正方形.15</title>
					<desc>37</desc>
					<v:userDefs>
						<v:ud v:nameU="visVersion" v:val="VT0(15):26"/>
					</v:userDefs>
					<v:textBlock v:margins="rect(4,4,4,4)" v:tabSpace="42.5197"/>
					<v:textRect cx="7.08661" cy="173.457" width="14.18" height="14.1732"/>
					<rect x="0" y="166.37" width="14.1732" height="14.1732" class="st15"/>
					<text x="4.09" y="175.26" class="st4" v:langID="2052"><v:paragraph v:horizAlign="1"/><v:tabList/>37</text>				</g>
				<g id="shape16-78" v:mID="16" v:groupContext="shape" transform="translate(17.0079,-2.83465)">
					<title>正方形.16</title>
					<desc>39</desc>
					<v:userDefs>
						<v:ud v:nameU="visVersion" v:val="VT0(15):26"/>
					</v:userDefs>
					<v:textBlock v:margins="rect(4,4,4,4)" v:tabSpace="42.5197"/>
					<v:textRect cx="7.08661" cy="173.457" width="14.18" height="14.1732"/>
					<rect x="0" y="166.37" width="14.1732" height="14.1732" class="st15"/>
					<text x="4.09" y="175.26" class="st4" v:langID="2052"><v:paragraph v:horizAlign="1"/><v:tabList/>39</text>				</g>
				<g id="shape17-81" v:mID="17" v:groupContext="shape" transform="translate(31.1811,-2.83465)">
					<title>正方形.17</title>
					<desc>42</desc>
					<v:userDefs>
						<v:ud v:nameU="visVersion" v:val="VT0(15):26"/>
					</v:userDefs>
					<v:textBlock v:margins="rect(4,4,4,4)" v:tabSpace="42.5197"/>
					<v:textRect cx="7.08661" cy="173.457" width="14.18" height="14.1732"/>
					<rect x="0" y="166.37" width="14.1732" height="14.1732" class="st15"/>
					<text x="4.09" y="175.26" class="st4" v:langID="2052"><v:paragraph v:horizAlign="1"/><v:tabList/>42</text>				</g>
				<g id="shape18-84" v:mID="18" v:groupContext="shape" transform="translate(45.3543,-2.83465)">
					<title>正方形.18</title>
					<desc>24</desc>
					<v:userDefs>
						<v:ud v:nameU="visVersion" v:val="VT0(15):26"/>
					</v:userDefs>
					<v:textBlock v:margins="rect(4,4,4,4)" v:tabSpace="42.5197"/>
					<v:textRect cx="7.08661" cy="173.457" width="14.18" height="14.1732"/>
					<rect x="0" y="166.37" width="14.1732" height="14.1732" class="st15"/>
					<text x="4.09" y="175.26" class="st4" v:langID="2052"><v:paragraph v:horizAlign="1"/><v:tabList/>24</text>				</g>
				<g id="shape36-87" v:mID="36" v:groupContext="shape">
					<title>椭圆形.36</title>
					<v:userDefs>
						<v:ud v:nameU="visVersion" v:val="VT0(15):26"/>
					</v:userDefs>
					<path d="M0 170.62 A9.92126 9.92126 0 0 1 19.84 170.62 A9.92126 9.92126 0 1 1 0 170.62 Z" class="st16"/>
				</g>
				<g id="shape57-89" v:mID="57" v:groupContext="shape" transform="translate(14.1732,8.52651E-14)">
					<title>椭圆形.57</title>
					<v:userDefs>
						<v:ud v:nameU="visVersion" v:val="VT0(15):26"/>
					</v:userDefs>
					<path d="M0 170.62 A9.92126 9.92126 0 0 1 19.84 170.62 A9.92126 9.92126 0 1 1 0 170.62 Z" class="st17"/>
				</g>
				<g id="shape58-91" v:mID="58" v:groupContext="shape" transform="translate(28.3465,-7.29537E-06)">
					<title>椭圆形.58</title>
					<v:userDefs>
						<v:ud v:nameU="visVersion" v:val="VT0(15):26"/>
					</v:userDefs>
					<path d="M0 170.62 A9.92126 9.92126 0 0 1 19.84 170.62 A9.92126 9.92126 0 1 1 0 170.62 Z" class="st18"/>
				</g>
				<g id="shape59-93" v:mID="59" v:groupContext="shape" transform="translate(42.5197,-7.29537E-06)">
					<title>椭圆形.59</title>
					<v:userDefs>
						<v:ud v:nameU="visVersion" v:val="VT0(15):26"/>
					</v:userDefs>
					<path d="M0 170.62 A9.92126 9.92126 0 0 1 19.84 170.62 A9.92126 9.92126 0 1 1 0 170.62 Z" class="st19"/>
				</g>
			</g>
			<g id="group109-95" transform="translate(75.1181,-85.0394)" v:mID="109" v:groupContext="group">
				<title>工作表.109</title>
				<g id="shape1-96" v:mID="1" v:groupContext="shape" transform="translate(2.83465,-2.83465)">
					<title>正方形</title>
					<desc>5</desc>
					<v:userDefs>
						<v:ud v:nameU="visVersion" v:val="VT0(15):26"/>
					</v:userDefs>
					<v:textBlock v:margins="rect(4,4,4,4)" v:tabSpace="42.5197"/>
					<v:textRect cx="7.08661" cy="173.457" width="14.18" height="14.1732"/>
					<rect x="0" y="166.37" width="14.1732" height="14.1732" class="st15"/>
					<text x="5.59" y="175.26" class="st4" v:langID="2052"><v:paragraph v:horizAlign="1"/><v:tabList/>5</text>				</g>
				<g id="shape2-99" v:mID="2" v:groupContext="shape" transform="translate(17.0079,-2.83465)">
					<title>正方形.2</title>
					<desc>3</desc>
					<v:userDefs>
						<v:ud v:nameU="visVersion" v:val="VT0(15):26"/>
					</v:userDefs>
					<v:textBlock v:margins="rect(4,4,4,4)" v:tabSpace="42.5197"/>
					<v:textRect cx="7.08661" cy="173.457" width="14.18" height="14.1732"/>
					<rect x="0" y="166.37" width="14.1732" height="14.1732" class="st15"/>
					<text x="5.59" y="175.26" class="st4" v:langID="2052"><v:paragraph v:horizAlign="1"/><v:tabList/>3</text>				</g>
				<g id="shape3-102" v:mID="3" v:groupContext="shape" transform="translate(31.1811,-2.83465)">
					<title>正方形.3</title>
					<desc>6</desc>
					<v:userDefs>
						<v:ud v:nameU="visVersion" v:val="VT0(15):26"/>
					</v:userDefs>
					<v:textBlock v:margins="rect(4,4,4,4)" v:tabSpace="42.5197"/>
					<v:textRect cx="7.08661" cy="173.457" width="14.18" height="14.1732"/>
					<rect x="0" y="166.37" width="14.1732" height="14.1732" class="st15"/>
					<text x="5.59" y="175.26" class="st4" v:langID="2052"><v:paragraph v:horizAlign="1"/><v:tabList/>6</text>				</g>
				<g id="shape4-105" v:mID="4" v:groupContext="shape" transform="translate(45.3543,-2.83465)">
					<title>正方形.4</title>
					<desc>1</desc>
					<v:userDefs>
						<v:ud v:nameU="visVersion" v:val="VT0(15):26"/>
					</v:userDefs>
					<v:textBlock v:margins="rect(4,4,4,4)" v:tabSpace="42.5197"/>
					<v:textRect cx="7.08661" cy="173.457" width="14.18" height="14.1732"/>
					<rect x="0" y="166.37" width="14.1732" height="14.1732" class="st15"/>
					<text x="5.59" y="175.26" class="st4" v:langID="2052"><v:paragraph v:horizAlign="1"/><v:tabList/>1</text>				</g>
				<g id="shape7-108" v:mID="7" v:groupContext="shape" transform="translate(59.5276,-2.83465)">
					<title>正方形.7</title>
					<desc>8</desc>
					<v:userDefs>
						<v:ud v:nameU="visVersion" v:val="VT0(15):26"/>
					</v:userDefs>
					<v:textBlock v:margins="rect(4,4,4,4)" v:tabSpace="42.5197"/>
					<v:textRect cx="7.08661" cy="173.457" width="14.18" height="14.1732"/>
					<rect x="0" y="166.37" width="14.1732" height="14.1732" class="st15"/>
					<text x="5.59" y="175.26" class="st4" v:langID="2052"><v:paragraph v:horizAlign="1"/><v:tabList/>8</text>				</g>
				<g id="shape32-111" v:mID="32" v:groupContext="shape" transform="translate(-9.39249E-14,-1.13082E-06)">
					<title>椭圆形.32</title>
					<v:userDefs>
						<v:ud v:nameU="visVersion" v:val="VT0(15):26"/>
					</v:userDefs>
					<path d="M0 170.62 A17.0079 9.92126 0 0 1 34.02 170.62 A17.0079 9.92126 0 0 1 0 170.62 Z" class="st16"/>
				</g>
				<g id="shape33-113" v:mID="33" v:groupContext="shape" transform="translate(14.1732,-1.13082E-06)">
					<title>椭圆形.33</title>
					<v:userDefs>
						<v:ud v:nameU="visVersion" v:val="VT0(15):26"/>
					</v:userDefs>
					<path d="M0 170.62 A17.0079 9.92126 0 0 1 34.02 170.62 A17.0079 9.92126 0 0 1 0 170.62 Z" class="st17"/>
				</g>
				<g id="shape34-115" v:mID="34" v:groupContext="shape" transform="translate(28.3465,5.68434E-14)">
					<title>椭圆形.34</title>
					<v:userDefs>
						<v:ud v:nameU="visVersion" v:val="VT0(15):26"/>
					</v:userDefs>
					<path d="M0 170.62 A17.0079 9.92126 0 0 1 34.02 170.62 A17.0079 9.92126 0 0 1 0 170.62 Z" class="st18"/>
				</g>
				<g id="shape35-117" v:mID="35" v:groupContext="shape" transform="translate(42.5197,-1.13082E-06)">
					<title>椭圆形.35</title>
					<v:userDefs>
						<v:ud v:nameU="visVersion" v:val="VT0(15):26"/>
					</v:userDefs>
					<path d="M0 170.62 A17.0079 9.92126 0 0 1 34.02 170.62 A17.0079 9.92126 0 0 1 0 170.62 Z" class="st19"/>
				</g>
			</g>
			<g id="group115-119" transform="translate(145.984,-42.5197)" v:mID="115" v:groupContext="group">
				<title>工作表.115</title>
				<g id="shape12-120" v:mID="12" v:groupContext="shape" transform="translate(2.83465,-2.83465)">
					<title>正方形.12</title>
					<desc>7</desc>
					<v:userDefs>
						<v:ud v:nameU="visVersion" v:val="VT0(15):26"/>
					</v:userDefs>
					<v:textBlock v:margins="rect(4,4,4,4)" v:tabSpace="42.5197"/>
					<v:textRect cx="7.08661" cy="173.457" width="14.18" height="14.1732"/>
					<rect x="0" y="166.37" width="14.1732" height="14.1732" class="st15"/>
					<text x="5.59" y="175.26" class="st4" v:langID="2052"><v:paragraph v:horizAlign="1"/><v:tabList/>7</text>				</g>
				<g id="shape13-123" v:mID="13" v:groupContext="shape" transform="translate(17.0079,-2.83465)">
					<title>正方形.13</title>
					<desc>1</desc>
					<v:userDefs>
						<v:ud v:nameU="visVersion" v:val="VT0(15):26"/>
					</v:userDefs>
					<v:textBlock v:margins="rect(4,4,4,4)" v:tabSpace="42.5197"/>
					<v:textRect cx="7.08661" cy="173.457" width="14.18" height="14.1732"/>
					<rect x="0" y="166.37" width="14.1732" height="14.1732" class="st15"/>
					<text x="5.59" y="175.26" class="st4" v:langID="2052"><v:paragraph v:horizAlign="1"/><v:tabList/>1</text>				</g>
				<g id="shape64-126" v:mID="64" v:groupContext="shape">
					<title>椭圆形.64</title>
					<v:userDefs>
						<v:ud v:nameU="visVersion" v:val="VT0(15):26"/>
					</v:userDefs>
					<path d="M0 170.62 A17.0079 9.92126 0 0 1 34.02 170.62 A17.0079 9.92126 0 0 1 0 170.62 Z" class="st20"/>
				</g>
			</g>
			<g id="group125-128" transform="translate(164.866,-102.167)" v:mID="125" v:groupContext="group">
				<title>工作表.125</title>
				<g id="shape126-129" v:mID="126" v:groupContext="shape" v:layerMember="0" transform="translate(12.2991,-40.983)">
					<title>动态连接线.156</title>
					<path d="M7.09 180.54 L7.09 208.89" class="st13"/>
				</g>
				<g id="shape127-134" v:mID="127" v:groupContext="shape" v:layerMember="0" transform="translate(19.3857,-33.8964)">
					<title>动态连接线.157</title>
					<path d="M0 173.46 L28.35 173.46" class="st13"/>
				</g>
				<g id="shape128-139" v:mID="128" v:groupContext="shape" v:layerMember="0" transform="translate(19.3857,-40.983)">
					<title>动态连接线.158</title>
					<path d="M0 180.54 L19.84 160.7" class="st13"/>
				</g>
				<g id="shape129-144" v:mID="129" v:groupContext="shape" transform="translate(5.21245,-28.2271)">
					<title>工作表.129</title>
					<desc>dim=2</desc>
					<v:textBlock v:margins="rect(4,4,4,4)" v:tabSpace="42.5197"/>
					<v:textRect cx="28.3465" cy="173.457" width="56.7" height="14.1732"/>
					<rect x="0" y="166.37" width="56.6929" height="14.1732" class="st10"/>
					<text x="20.85" y="175.26" class="st4" v:langID="2052"><v:paragraph v:horizAlign="1"/><v:tabList/>dim=2</text>				</g>
				<g id="shape130-147" v:mID="130" v:groupContext="shape" transform="translate(-117.641,25.6133) rotate(-45)">
					<title>工作表.130</title>
					<desc>dim=1</desc>
					<v:textBlock v:margins="rect(4,4,4,4)" v:tabSpace="42.5197"/>
					<v:textRect cx="28.3465" cy="173.457" width="56.7" height="14.1732"/>
					<rect x="0" y="166.37" width="56.6929" height="14.1732" class="st10"/>
					<text x="20.85" y="175.26" class="st4" v:langID="2052"><v:paragraph v:horizAlign="1"/><v:tabList/>dim=1</text>				</g>
				<g id="shape131-150" v:mID="131" v:groupContext="shape" transform="translate(-158.323,180.543) rotate(-90)">
					<title>工作表.131</title>
					<desc>dim=0</desc>
					<v:textBlock v:margins="rect(4,4,4,4)" v:tabSpace="42.5197"/>
					<v:textRect cx="28.3465" cy="173.457" width="56.7" height="14.1732"/>
					<rect x="0" y="166.37" width="56.6929" height="14.1732" class="st10"/>
					<text x="20.85" y="175.26" class="st4" v:langID="2052"><v:paragraph v:horizAlign="1"/><v:tabList/>dim=0</text>				</g>
			</g>
		</g>
	</g>
</svg>
