<?xml version="1.0" encoding="UTF-8" standalone="no"?>
<!DOCTYPE svg PUBLIC "-//W3C//DTD SVG 1.1//EN" "http://www.w3.org/Graphics/SVG/1.1/DTD/svg11.dtd">
<!-- 由 Microsoft Visio, SVG Export 生成 torch.nn.Conv1d_figure_1.svg 页-1 -->
<svg xmlns="http://www.w3.org/2000/svg" xmlns:xlink="http://www.w3.org/1999/xlink" xmlns:ev="http://www.w3.org/2001/xml-events"
		xmlns:v="http://schemas.microsoft.com/visio/2003/SVGExtensions/" width="3.1635in" height="2.50754in"
		viewBox="0 0 227.772 180.543" xml:space="preserve" color-interpolation-filters="sRGB" class="st12">
	<v:documentProperties v:langID="2052" v:metric="true" v:viewMarkup="false"/>

	<style type="text/css">
	<![CDATA[
		.st1 {fill:#ffffff;stroke:#000000;stroke-width:0.5}
		.st2 {fill:#000000;font-family:宋体;font-size:0.499992em}
		.st3 {fill:none;stroke:none;stroke-width:0.5}
		.st4 {font-size:1em}
		.st5 {fill:none;stroke:#ff0000;stroke-width:0.5}
		.st6 {fill:none;stroke:#4672c4;stroke-width:0.5}
		.st7 {fill:none;stroke:#70ad47;stroke-width:0.5}
		.st8 {fill:none;stroke:#7030a0;stroke-width:0.5}
		.st9 {marker-end:url(#mrkr7-70);stroke:#000000;stroke-linecap:round;stroke-linejoin:round;stroke-width:0.5}
		.st10 {fill:#000000;fill-opacity:1;stroke:#000000;stroke-opacity:1;stroke-width:0.21739130434783}
		.st11 {fill:none;stroke:#000000;stroke-width:0.5}
		.st12 {fill:none;fill-rule:evenodd;font-size:12px;overflow:visible;stroke-linecap:square;stroke-miterlimit:3}
	]]>
	</style>

	<defs id="Markers">
		<g id="lend7">
			<path
					d="M 1.84309 -0.959456 C 1.43792 -0.380801 0.784503 -0.0260255 0.078527 -0.00137091 L 0.0785229 0.00137043 C 0.784499 0.0260231 1.43791 0.380798 1.84309 0.959452 "
					style="stroke-linecap:round;stroke-linejoin:round;fill:none"/>
		</g>
		<marker id="mrkr7-70" class="st10" v:arrowType="7" v:arrowSize="1" orient="auto" markerUnits="strokeWidth"
				overflow="visible">
			<use xlink:href="#lend7" transform="scale(-4.6,-4.6) "/>
		</marker>
	</defs>
	<g v:mID="0" v:index="1" v:groupContext="foregroundPage">
		<title>页-1</title>
		<v:pageProperties v:drawingScale="0.0393701" v:pageScale="0.0393701" v:drawingUnits="24" v:shadowOffsetX="8.50394"
				v:shadowOffsetY="-8.50394"/>
		<v:layer v:name="连接线" v:index="0"/>
		<g id="group76-1" transform="translate(0.5,-0.5)" v:mID="76" v:groupContext="group">
			<title>工作表.76</title>
			<g id="shape1-2" v:mID="1" v:groupContext="shape" transform="translate(77.9528,-87.874)">
				<title>正方形</title>
				<desc>5</desc>
				<v:userDefs>
					<v:ud v:nameU="visVersion" v:val="VT0(15):26"/>
				</v:userDefs>
				<v:textBlock v:margins="rect(4,4,4,4)" v:tabSpace="42.5197"/>
				<v:textRect cx="7.08661" cy="173.457" width="14.18" height="14.1732"/>
				<rect x="0" y="166.37" width="14.1732" height="14.1732" class="st1"/>
				<text x="5.59" y="175.26" class="st2" v:langID="2052"><v:paragraph v:horizAlign="1"/><v:tabList/>5</text>			</g>
			<g id="shape2-5" v:mID="2" v:groupContext="shape" transform="translate(92.126,-87.874)">
				<title>正方形.2</title>
				<desc>3</desc>
				<v:userDefs>
					<v:ud v:nameU="visVersion" v:val="VT0(15):26"/>
				</v:userDefs>
				<v:textBlock v:margins="rect(4,4,4,4)" v:tabSpace="42.5197"/>
				<v:textRect cx="7.08661" cy="173.457" width="14.18" height="14.1732"/>
				<rect x="0" y="166.37" width="14.1732" height="14.1732" class="st1"/>
				<text x="5.59" y="175.26" class="st2" v:langID="2052"><v:paragraph v:horizAlign="1"/><v:tabList/>3</text>			</g>
			<g id="shape3-8" v:mID="3" v:groupContext="shape" transform="translate(106.299,-87.874)">
				<title>正方形.3</title>
				<desc>6</desc>
				<v:userDefs>
					<v:ud v:nameU="visVersion" v:val="VT0(15):26"/>
				</v:userDefs>
				<v:textBlock v:margins="rect(4,4,4,4)" v:tabSpace="42.5197"/>
				<v:textRect cx="7.08661" cy="173.457" width="14.18" height="14.1732"/>
				<rect x="0" y="166.37" width="14.1732" height="14.1732" class="st1"/>
				<text x="5.59" y="175.26" class="st2" v:langID="2052"><v:paragraph v:horizAlign="1"/><v:tabList/>6</text>			</g>
			<g id="shape4-11" v:mID="4" v:groupContext="shape" transform="translate(120.472,-87.874)">
				<title>正方形.4</title>
				<desc>1</desc>
				<v:userDefs>
					<v:ud v:nameU="visVersion" v:val="VT0(15):26"/>
				</v:userDefs>
				<v:textBlock v:margins="rect(4,4,4,4)" v:tabSpace="42.5197"/>
				<v:textRect cx="7.08661" cy="173.457" width="14.18" height="14.1732"/>
				<rect x="0" y="166.37" width="14.1732" height="14.1732" class="st1"/>
				<text x="5.59" y="175.26" class="st2" v:langID="2052"><v:paragraph v:horizAlign="1"/><v:tabList/>1</text>			</g>
			<g id="shape5-14" v:mID="5" v:groupContext="shape" transform="translate(3.19744E-14,-116.22)">
				<title>工作表.5</title>
				<desc>输入的维度为(1,1,5) 卷积核的维度为(1,1,2) 输出的维度为(1,1,4)</desc>
				<v:textBlock v:margins="rect(4,4,4,4)" v:tabSpace="42.5197"/>
				<v:textRect cx="56.6929" cy="159.283" width="113.39" height="42.5197"/>
				<rect x="0" y="138.024" width="113.386" height="42.5197" class="st3"/>
				<text x="4" y="153.88" class="st2" v:langID="2052"><v:paragraph/><v:tabList/>输入的维度为(1,1,5)<v:newlineChar/><tspan
							x="4" dy="1.2em" class="st4">卷积核的维度为</tspan>(1,1,2)<v:newlineChar/><tspan x="4" dy="1.2em" class="st4">输出的维度为</tspan>(1,1,4)</text>			</g>
			<g id="shape7-19" v:mID="7" v:groupContext="shape" transform="translate(134.646,-87.874)">
				<title>正方形.7</title>
				<desc>8</desc>
				<v:userDefs>
					<v:ud v:nameU="visVersion" v:val="VT0(15):26"/>
				</v:userDefs>
				<v:textBlock v:margins="rect(4,4,4,4)" v:tabSpace="42.5197"/>
				<v:textRect cx="7.08661" cy="173.457" width="14.18" height="14.1732"/>
				<rect x="0" y="166.37" width="14.1732" height="14.1732" class="st1"/>
				<text x="5.59" y="175.26" class="st2" v:langID="2052"><v:paragraph v:horizAlign="1"/><v:tabList/>8</text>			</g>
			<g id="shape9-22" v:mID="9" v:groupContext="shape" transform="translate(3.27738E-13,-87.874)">
				<title>工作表.9</title>
				<desc>Input</desc>
				<v:textBlock v:margins="rect(4,4,4,4)" v:tabSpace="42.5197"/>
				<v:textRect cx="28.3465" cy="173.457" width="56.7" height="14.1732"/>
				<rect x="0" y="166.37" width="56.6929" height="14.1732" class="st3"/>
				<text x="20.85" y="175.26" class="st2" v:langID="2052"><v:paragraph v:horizAlign="1"/><v:tabList/>Input</text>			</g>
			<g id="shape10-25" v:mID="10" v:groupContext="shape" transform="translate(3.27738E-13,-45.3543)">
				<title>工作表.10</title>
				<desc>Kernel</desc>
				<v:textBlock v:margins="rect(4,4,4,4)" v:tabSpace="42.5197"/>
				<v:textRect cx="28.3465" cy="173.457" width="56.7" height="14.1732"/>
				<rect x="0" y="166.37" width="56.6929" height="14.1732" class="st3"/>
				<text x="19.35" y="175.26" class="st2" v:langID="2052"><v:paragraph v:horizAlign="1"/><v:tabList/>Kernel</text>			</g>
			<g id="shape11-28" v:mID="11" v:groupContext="shape" transform="translate(6.6899E-07,-2.83465)">
				<title>工作表.11</title>
				<desc>Output</desc>
				<v:textBlock v:margins="rect(4,4,4,4)" v:tabSpace="42.5197"/>
				<v:textRect cx="28.3465" cy="173.457" width="56.7" height="14.1732"/>
				<rect x="0" y="166.37" width="56.6929" height="14.1732" class="st3"/>
				<text x="19.35" y="175.26" class="st2" v:langID="2052"><v:paragraph v:horizAlign="1"/><v:tabList/>Output</text>			</g>
			<g id="shape12-31" v:mID="12" v:groupContext="shape" transform="translate(148.819,-45.3543)">
				<title>正方形.12</title>
				<desc>7</desc>
				<v:userDefs>
					<v:ud v:nameU="visVersion" v:val="VT0(15):26"/>
				</v:userDefs>
				<v:textBlock v:margins="rect(4,4,4,4)" v:tabSpace="42.5197"/>
				<v:textRect cx="7.08661" cy="173.457" width="14.18" height="14.1732"/>
				<rect x="0" y="166.37" width="14.1732" height="14.1732" class="st1"/>
				<text x="5.59" y="175.26" class="st2" v:langID="2052"><v:paragraph v:horizAlign="1"/><v:tabList/>7</text>			</g>
			<g id="shape13-34" v:mID="13" v:groupContext="shape" transform="translate(162.992,-45.3543)">
				<title>正方形.13</title>
				<desc>1</desc>
				<v:userDefs>
					<v:ud v:nameU="visVersion" v:val="VT0(15):26"/>
				</v:userDefs>
				<v:textBlock v:margins="rect(4,4,4,4)" v:tabSpace="42.5197"/>
				<v:textRect cx="7.08661" cy="173.457" width="14.18" height="14.1732"/>
				<rect x="0" y="166.37" width="14.1732" height="14.1732" class="st1"/>
				<text x="5.59" y="175.26" class="st2" v:langID="2052"><v:paragraph v:horizAlign="1"/><v:tabList/>1</text>			</g>
			<g id="shape15-37" v:mID="15" v:groupContext="shape" transform="translate(77.9528,-2.83465)">
				<title>正方形.15</title>
				<desc>38</desc>
				<v:userDefs>
					<v:ud v:nameU="visVersion" v:val="VT0(15):26"/>
				</v:userDefs>
				<v:textBlock v:margins="rect(4,4,4,4)" v:tabSpace="42.5197"/>
				<v:textRect cx="7.08661" cy="173.457" width="14.18" height="14.1732"/>
				<rect x="0" y="166.37" width="14.1732" height="14.1732" class="st1"/>
				<text x="4.09" y="175.26" class="st2" v:langID="2052"><v:paragraph v:horizAlign="1"/><v:tabList/>38</text>			</g>
			<g id="shape16-40" v:mID="16" v:groupContext="shape" transform="translate(92.126,-2.83465)">
				<title>正方形.16</title>
				<desc>27</desc>
				<v:userDefs>
					<v:ud v:nameU="visVersion" v:val="VT0(15):26"/>
				</v:userDefs>
				<v:textBlock v:margins="rect(4,4,4,4)" v:tabSpace="42.5197"/>
				<v:textRect cx="7.08661" cy="173.457" width="14.18" height="14.1732"/>
				<rect x="0" y="166.37" width="14.1732" height="14.1732" class="st1"/>
				<text x="4.09" y="175.26" class="st2" v:langID="2052"><v:paragraph v:horizAlign="1"/><v:tabList/>27</text>			</g>
			<g id="shape17-43" v:mID="17" v:groupContext="shape" transform="translate(106.299,-2.83465)">
				<title>正方形.17</title>
				<desc>43</desc>
				<v:userDefs>
					<v:ud v:nameU="visVersion" v:val="VT0(15):26"/>
				</v:userDefs>
				<v:textBlock v:margins="rect(4,4,4,4)" v:tabSpace="42.5197"/>
				<v:textRect cx="7.08661" cy="173.457" width="14.18" height="14.1732"/>
				<rect x="0" y="166.37" width="14.1732" height="14.1732" class="st1"/>
				<text x="4.09" y="175.26" class="st2" v:langID="2052"><v:paragraph v:horizAlign="1"/><v:tabList/>43</text>			</g>
			<g id="shape18-46" v:mID="18" v:groupContext="shape" transform="translate(120.472,-2.83465)">
				<title>正方形.18</title>
				<desc>15</desc>
				<v:userDefs>
					<v:ud v:nameU="visVersion" v:val="VT0(15):26"/>
				</v:userDefs>
				<v:textBlock v:margins="rect(4,4,4,4)" v:tabSpace="42.5197"/>
				<v:textRect cx="7.08661" cy="173.457" width="14.18" height="14.1732"/>
				<rect x="0" y="166.37" width="14.1732" height="14.1732" class="st1"/>
				<text x="4.09" y="175.26" class="st2" v:langID="2052"><v:paragraph v:horizAlign="1"/><v:tabList/>15</text>			</g>
			<g id="shape32-49" v:mID="32" v:groupContext="shape" transform="translate(75.1181,-85.0394)">
				<title>椭圆形</title>
				<v:userDefs>
					<v:ud v:nameU="visVersion" v:val="VT0(15):26"/>
				</v:userDefs>
				<path d="M0 170.62 A17.0079 9.92126 0 0 1 34.02 170.62 A17.0079 9.92126 0 0 1 0 170.62 Z" class="st5"/>
			</g>
			<g id="shape33-51" v:mID="33" v:groupContext="shape" transform="translate(89.2913,-85.0394)">
				<title>椭圆形.33</title>
				<v:userDefs>
					<v:ud v:nameU="visVersion" v:val="VT0(15):26"/>
				</v:userDefs>
				<path d="M0 170.62 A17.0079 9.92126 0 0 1 34.02 170.62 A17.0079 9.92126 0 0 1 0 170.62 Z" class="st6"/>
			</g>
			<g id="shape34-53" v:mID="34" v:groupContext="shape" transform="translate(103.465,-85.0394)">
				<title>椭圆形.34</title>
				<v:userDefs>
					<v:ud v:nameU="visVersion" v:val="VT0(15):26"/>
				</v:userDefs>
				<path d="M0 170.62 A17.0079 9.92126 0 0 1 34.02 170.62 A17.0079 9.92126 0 0 1 0 170.62 Z" class="st7"/>
			</g>
			<g id="shape35-55" v:mID="35" v:groupContext="shape" transform="translate(117.638,-85.0394)">
				<title>椭圆形.35</title>
				<v:userDefs>
					<v:ud v:nameU="visVersion" v:val="VT0(15):26"/>
				</v:userDefs>
				<path d="M0 170.62 A17.0079 9.92126 0 0 1 34.02 170.62 A17.0079 9.92126 0 0 1 0 170.62 Z" class="st8"/>
			</g>
			<g id="shape36-57" v:mID="36" v:groupContext="shape" transform="translate(75.1181,2.84217E-14)">
				<title>椭圆形.36</title>
				<v:userDefs>
					<v:ud v:nameU="visVersion" v:val="VT0(15):26"/>
				</v:userDefs>
				<path d="M0 170.62 A9.92126 9.92126 0 0 1 19.84 170.62 A9.92126 9.92126 0 1 1 0 170.62 Z" class="st5"/>
			</g>
			<g id="shape57-59" v:mID="57" v:groupContext="shape" transform="translate(89.2913,2.84217E-14)">
				<title>椭圆形.57</title>
				<v:userDefs>
					<v:ud v:nameU="visVersion" v:val="VT0(15):26"/>
				</v:userDefs>
				<path d="M0 170.62 A9.92126 9.92126 0 0 1 19.84 170.62 A9.92126 9.92126 0 1 1 0 170.62 Z" class="st6"/>
			</g>
			<g id="shape58-61" v:mID="58" v:groupContext="shape" transform="translate(103.465,-7.29537E-06)">
				<title>椭圆形.58</title>
				<v:userDefs>
					<v:ud v:nameU="visVersion" v:val="VT0(15):26"/>
				</v:userDefs>
				<path d="M0 170.62 A9.92126 9.92126 0 0 1 19.84 170.62 A9.92126 9.92126 0 1 1 0 170.62 Z" class="st7"/>
			</g>
			<g id="shape59-63" v:mID="59" v:groupContext="shape" transform="translate(117.638,-7.29537E-06)">
				<title>椭圆形.59</title>
				<v:userDefs>
					<v:ud v:nameU="visVersion" v:val="VT0(15):26"/>
				</v:userDefs>
				<path d="M0 170.62 A9.92126 9.92126 0 0 1 19.84 170.62 A9.92126 9.92126 0 1 1 0 170.62 Z" class="st8"/>
			</g>
			<g id="shape60-65" v:mID="60" v:groupContext="shape" v:layerMember="0" transform="translate(95.6693,-85.0394)">
				<title>动态连接线</title>
				<path d="M-3.54 180.54 L-10.63 245.74" class="st9"/>
			</g>
			<g id="shape64-71" v:mID="64" v:groupContext="shape" transform="translate(145.984,-42.5197)">
				<title>椭圆形.64</title>
				<v:userDefs>
					<v:ud v:nameU="visVersion" v:val="VT0(15):26"/>
				</v:userDefs>
				<path d="M0 170.62 A17.0079 9.92126 0 0 1 34.02 170.62 A17.0079 9.92126 0 0 1 0 170.62 Z" class="st11"/>
			</g>
			<g id="shape65-73" v:mID="65" v:groupContext="shape" v:layerMember="0" transform="translate(162.992,-42.5197)">
				<title>动态连接线.65</title>
				<path d="M0 180.54 L-77.95 203.22" class="st9"/>
			</g>
			<g id="group69-78" transform="translate(164.866,-102.167)" v:mID="69" v:groupContext="group">
				<title>工作表.69</title>
				<g id="shape70-79" v:mID="70" v:groupContext="shape" v:layerMember="0" transform="translate(12.2991,-40.983)">
					<title>动态连接线.156</title>
					<path d="M7.09 180.54 L7.09 208.89" class="st9"/>
				</g>
				<g id="shape71-84" v:mID="71" v:groupContext="shape" v:layerMember="0" transform="translate(19.3857,-33.8964)">
					<title>动态连接线.157</title>
					<path d="M0 173.46 L28.35 173.46" class="st9"/>
				</g>
				<g id="shape72-89" v:mID="72" v:groupContext="shape" v:layerMember="0" transform="translate(19.3857,-40.983)">
					<title>动态连接线.158</title>
					<path d="M0 180.54 L19.84 160.7" class="st9"/>
				</g>
				<g id="shape73-94" v:mID="73" v:groupContext="shape" transform="translate(5.21245,-28.2271)">
					<title>工作表.73</title>
					<desc>dim=2</desc>
					<v:textBlock v:margins="rect(4,4,4,4)" v:tabSpace="42.5197"/>
					<v:textRect cx="28.3465" cy="173.457" width="56.7" height="14.1732"/>
					<rect x="0" y="166.37" width="56.6929" height="14.1732" class="st3"/>
					<text x="20.85" y="175.26" class="st2" v:langID="2052"><v:paragraph v:horizAlign="1"/><v:tabList/>dim=2</text>				</g>
				<g id="shape74-97" v:mID="74" v:groupContext="shape" transform="translate(-117.641,25.6133) rotate(-45)">
					<title>工作表.74</title>
					<desc>dim=1</desc>
					<v:textBlock v:margins="rect(4,4,4,4)" v:tabSpace="42.5197"/>
					<v:textRect cx="28.3465" cy="173.457" width="56.7" height="14.1732"/>
					<rect x="0" y="166.37" width="56.6929" height="14.1732" class="st3"/>
					<text x="20.85" y="175.26" class="st2" v:langID="2052"><v:paragraph v:horizAlign="1"/><v:tabList/>dim=1</text>				</g>
				<g id="shape75-100" v:mID="75" v:groupContext="shape" transform="translate(-158.323,180.543) rotate(-90)">
					<title>工作表.75</title>
					<desc>dim=0</desc>
					<v:textBlock v:margins="rect(4,4,4,4)" v:tabSpace="42.5197"/>
					<v:textRect cx="28.3465" cy="173.457" width="56.7" height="14.1732"/>
					<rect x="0" y="166.37" width="56.6929" height="14.1732" class="st3"/>
					<text x="20.85" y="175.26" class="st2" v:langID="2052"><v:paragraph v:horizAlign="1"/><v:tabList/>dim=0</text>				</g>
			</g>
		</g>
	</g>
</svg>
