<?xml version="1.0" encoding="UTF-8" standalone="no"?>
<!DOCTYPE svg PUBLIC "-//W3C//DTD SVG 1.1//EN" "http://www.w3.org/Graphics/SVG/1.1/DTD/svg11.dtd">
<!-- 由 Microsoft Visio, SVG Export 生成 torch.nn.ConvTransposed1d_figure_5.svg 页-1 -->
<svg xmlns="http://www.w3.org/2000/svg" xmlns:xlink="http://www.w3.org/1999/xlink" xmlns:ev="http://www.w3.org/2001/xml-events"
		xmlns:v="http://schemas.microsoft.com/visio/2003/SVGExtensions/" width="2.87365in" height="2.86822in"
		viewBox="0 0 206.903 206.512" xml:space="preserve" color-interpolation-filters="sRGB" class="st37">
	<v:documentProperties v:langID="2052" v:metric="true" v:viewMarkup="false"/>

	<style type="text/css">
	<![CDATA[
		.st1 {fill:#ffffff;stroke:#000000;stroke-opacity:0.5;stroke-width:0.5}
		.st2 {fill:#000000;font-family:宋体;font-size:0.250008em}
		.st3 {fill:none;stroke:#ff0000;stroke-opacity:0.5;stroke-width:0.5}
		.st4 {fill:none;stroke:#4672c4;stroke-opacity:0.5;stroke-width:0.5}
		.st5 {fill:none;stroke:#70ad47;stroke-opacity:0.5;stroke-width:0.5}
		.st6 {fill:none;stroke:#7030a0;stroke-opacity:0.5;stroke-width:0.5}
		.st7 {marker-end:url(#mrkr3-29);stroke:#7030a0;stroke-dasharray:1.75,1.25;stroke-linecap:round;stroke-linejoin:round;stroke-opacity:0.5;stroke-width:0.25}
		.st8 {fill:#7030a0;fill-opacity:0.5;stroke:#7030a0;stroke-opacity:0.5;stroke-width:0.14792899408284}
		.st9 {marker-end:url(#mrkr3-35);stroke:#7030a0;stroke-linecap:round;stroke-linejoin:round;stroke-width:0.25}
		.st10 {fill:#7030a0;fill-opacity:1;stroke:#7030a0;stroke-opacity:1;stroke-width:0.14792899408284}
		.st11 {marker-end:url(#mrkr3-46);stroke:#5b9bd5;stroke-dasharray:1.75,1.25;stroke-linecap:round;stroke-linejoin:round;stroke-opacity:0.5;stroke-width:0.25}
		.st12 {fill:#5b9bd5;fill-opacity:0.5;stroke:#5b9bd5;stroke-opacity:0.5;stroke-width:0.14792899408284}
		.st13 {fill:#ffffff;stroke:#ff0000;stroke-opacity:0.5;stroke-width:0.5}
		.st14 {fill:#ff0000;font-family:宋体;font-size:0.250008em}
		.st15 {fill:none;stroke:#c8c8c8;stroke-opacity:0.5;stroke-width:0.5}
		.st16 {fill:none;stroke:#99ff33;stroke-opacity:0.5;stroke-width:0.5}
		.st17 {fill:none;stroke:#ffc000;stroke-opacity:0.5;stroke-width:0.5}
		.st18 {fill:none;stroke:#ccccff;stroke-opacity:0.5;stroke-width:0.5}
		.st19 {fill:none;stroke:#ed7d31;stroke-opacity:0.5;stroke-width:0.5}
		.st20 {fill:#ffffff;stroke:#ff0000;stroke-width:0.5}
		.st21 {fill:#ffffff;stroke:#000000;stroke-width:0.5}
		.st22 {fill:none;stroke:none;stroke-width:0.5}
		.st23 {fill:#000000;font-family:宋体;font-size:0.499992em}
		.st24 {font-size:1em}
		.st25 {fill:#ff0000;font-size:1em}
		.st26 {marker-end:url(#mrkr7-165);stroke:#000000;stroke-linecap:round;stroke-linejoin:round;stroke-width:0.5}
		.st27 {fill:#000000;fill-opacity:1;stroke:#000000;stroke-opacity:1;stroke-width:0.21739130434783}
		.st28 {fill:#ff0000;font-family:宋体;font-size:0.499992em}
		.st29 {fill:none;stroke:#ff0000;stroke-width:0.5}
		.st30 {fill:none;stroke:#4672c4;stroke-width:0.5}
		.st31 {fill:none;stroke:#70ad47;stroke-width:0.5}
		.st32 {fill:none;stroke:#7030a0;stroke-width:0.5}
		.st33 {fill:none;stroke:#000000;stroke-width:0.5}
		.st34 {marker-end:url(#mrkr3-231);stroke:#5b9bd5;stroke-linecap:round;stroke-linejoin:round;stroke-width:0.25}
		.st35 {fill:#5b9bd5;fill-opacity:1;stroke:#5b9bd5;stroke-opacity:1;stroke-width:0.14792899408284}
		.st36 {fill:none;stroke:#5b9bd5;stroke-width:0.5}
		.st37 {fill:none;fill-rule:evenodd;font-size:12px;overflow:visible;stroke-linecap:square;stroke-miterlimit:3}
	]]>
	</style>

	<defs id="Markers">
		<g id="lend3">
			<path d="M 2 1 L 0 0 L 2 -1 " style="stroke-linecap:round;stroke-linejoin:round;fill:none"/>
		</g>
		<marker id="mrkr3-29" class="st8" v:arrowType="3" v:arrowSize="0" orient="auto" markerUnits="strokeWidth"
				overflow="visible">
			<use xlink:href="#lend3" transform="scale(-6.76,-6.76) "/>
		</marker>
		<marker id="mrkr3-35" class="st10" v:arrowType="3" v:arrowSize="0" orient="auto" markerUnits="strokeWidth"
				overflow="visible">
			<use xlink:href="#lend3" transform="scale(-6.76,-6.76) "/>
		</marker>
		<marker id="mrkr3-46" class="st12" v:arrowType="3" v:arrowSize="0" orient="auto" markerUnits="strokeWidth"
				overflow="visible">
			<use xlink:href="#lend3" transform="scale(-6.76,-6.76) "/>
		</marker>
		<g id="lend7">
			<path
					d="M 1.84309 -0.959456 C 1.43792 -0.380801 0.784503 -0.0260255 0.078527 -0.00137091 L 0.0785229 0.00137043 C 0.784499 0.0260231 1.43791 0.380798 1.84309 0.959452 "
					style="stroke-linecap:round;stroke-linejoin:round;fill:none"/>
		</g>
		<marker id="mrkr7-165" class="st27" v:arrowType="7" v:arrowSize="1" orient="auto" markerUnits="strokeWidth"
				overflow="visible">
			<use xlink:href="#lend7" transform="scale(-4.6,-4.6) "/>
		</marker>
		<marker id="mrkr3-231" class="st35" v:arrowType="3" v:arrowSize="0" orient="auto" markerUnits="strokeWidth"
				overflow="visible">
			<use xlink:href="#lend3" transform="scale(-6.76,-6.76) "/>
		</marker>
	</defs>
	<g v:mID="0" v:index="1" v:groupContext="foregroundPage">
		<title>页-1</title>
		<v:pageProperties v:drawingScale="0.0393701" v:pageScale="0.0393701" v:drawingUnits="24" v:shadowOffsetX="8.50394"
				v:shadowOffsetY="-8.50394"/>
		<v:layer v:name="连接线" v:index="0"/>
		<g id="shape195-1" v:mID="195" v:groupContext="shape" transform="translate(88.374,-109.634)">
			<title>正方形.195</title>
			<desc>3</desc>
			<v:userDefs>
				<v:ud v:nameU="visVersion" v:val="VT0(15):26"/>
			</v:userDefs>
			<v:textBlock v:margins="rect(4,4,4,4)" v:tabSpace="42.5197"/>
			<v:textRect cx="5.66929" cy="200.843" width="11.34" height="11.3386"/>
			<rect x="0" y="195.173" width="11.3386" height="11.3386" class="st1"/>
			<text x="4.92" y="201.74" class="st2" v:langID="2052"><v:paragraph v:horizAlign="1"/><v:tabList/>3</text>		</g>
		<g id="shape196-4" v:mID="196" v:groupContext="shape" transform="translate(99.7126,-109.634)">
			<title>正方形.196</title>
			<desc>7</desc>
			<v:userDefs>
				<v:ud v:nameU="visVersion" v:val="VT0(15):26"/>
			</v:userDefs>
			<v:textBlock v:margins="rect(4,4,4,4)" v:tabSpace="42.5197"/>
			<v:textRect cx="5.66929" cy="200.843" width="11.34" height="11.3386"/>
			<rect x="0" y="195.173" width="11.3386" height="11.3386" class="st1"/>
			<text x="4.92" y="201.74" class="st2" v:langID="2052"><v:paragraph v:horizAlign="1"/><v:tabList/>7</text>		</g>
		<g id="shape197-7" v:mID="197" v:groupContext="shape" transform="translate(111.051,-109.634)">
			<title>正方形.197</title>
			<desc>2</desc>
			<v:userDefs>
				<v:ud v:nameU="visVersion" v:val="VT0(15):26"/>
			</v:userDefs>
			<v:textBlock v:margins="rect(4,4,4,4)" v:tabSpace="42.5197"/>
			<v:textRect cx="5.66929" cy="200.843" width="11.34" height="11.3386"/>
			<rect x="0" y="195.173" width="11.3386" height="11.3386" class="st1"/>
			<text x="4.92" y="201.74" class="st2" v:langID="2052"><v:paragraph v:horizAlign="1"/><v:tabList/>2</text>		</g>
		<g id="shape198-10" v:mID="198" v:groupContext="shape" transform="translate(77.0354,-109.634)">
			<title>正方形.198</title>
			<desc>0</desc>
			<v:userDefs>
				<v:ud v:nameU="visVersion" v:val="VT0(15):26"/>
			</v:userDefs>
			<v:textBlock v:margins="rect(4,4,4,4)" v:tabSpace="42.5197"/>
			<v:textRect cx="5.66929" cy="200.843" width="11.34" height="11.3386"/>
			<rect x="0" y="195.173" width="11.3386" height="11.3386" class="st1"/>
			<text x="4.92" y="201.74" class="st2" v:langID="2052"><v:paragraph v:horizAlign="1"/><v:tabList/>0</text>		</g>
		<g id="shape199-13" v:mID="199" v:groupContext="shape" transform="translate(122.39,-109.634)">
			<title>正方形.199</title>
			<desc>0</desc>
			<v:userDefs>
				<v:ud v:nameU="visVersion" v:val="VT0(15):26"/>
			</v:userDefs>
			<v:textBlock v:margins="rect(4,4,4,4)" v:tabSpace="42.5197"/>
			<v:textRect cx="5.66929" cy="200.843" width="11.34" height="11.3386"/>
			<rect x="0" y="195.173" width="11.3386" height="11.3386" class="st1"/>
			<text x="4.92" y="201.74" class="st2" v:langID="2052"><v:paragraph v:horizAlign="1"/><v:tabList/>0</text>		</g>
		<g id="shape274-16" v:mID="274" v:groupContext="shape" transform="translate(75.6181,-108.217)">
			<title>椭圆形</title>
			<v:userDefs>
				<v:ud v:nameU="visVersion" v:val="VT0(15):26"/>
			</v:userDefs>
			<path d="M0 199.43 A12.7559 7.08661 0 0 1 25.51 199.43 A12.7559 7.08661 0 1 1 -0 199.43 Z" class="st3"/>
		</g>
		<g id="shape275-18" v:mID="275" v:groupContext="shape" transform="translate(86.9567,-108.217)">
			<title>椭圆形.33</title>
			<v:userDefs>
				<v:ud v:nameU="visVersion" v:val="VT0(15):26"/>
			</v:userDefs>
			<path d="M0 199.43 A12.7559 7.08661 0 0 1 25.51 199.43 A12.7559 7.08661 0 1 1 -0 199.43 Z" class="st4"/>
		</g>
		<g id="shape276-20" v:mID="276" v:groupContext="shape" transform="translate(98.2953,-108.217)">
			<title>椭圆形.34</title>
			<v:userDefs>
				<v:ud v:nameU="visVersion" v:val="VT0(15):26"/>
			</v:userDefs>
			<path d="M0 199.43 A12.7559 7.08661 0 0 1 25.51 199.43 A12.7559 7.08661 0 1 1 -0 199.43 Z" class="st5"/>
		</g>
		<g id="shape277-22" v:mID="277" v:groupContext="shape" transform="translate(109.634,-108.217)">
			<title>椭圆形.35</title>
			<v:userDefs>
				<v:ud v:nameU="visVersion" v:val="VT0(15):26"/>
			</v:userDefs>
			<path d="M0 199.43 A12.7559 7.08661 0 0 1 25.51 199.43 A12.7559 7.08661 0 1 1 -0 199.43 Z" class="st6"/>
		</g>
		<g id="shape239-24" v:mID="239" v:groupContext="shape" v:layerMember="0" transform="translate(95.4606,-108.217)">
			<title>动态连接线.239</title>
			<path d="M-7.09 206.51 L-7.09 291.55" class="st7"/>
		</g>
		<g id="shape242-30" v:mID="242" v:groupContext="shape" v:layerMember="0" transform="translate(156.406,-54.4777)">
			<title>动态连接线.242</title>
			<path d="M0 206.51 L-68.03 237.81" class="st9"/>
		</g>
		<g id="shape244-36" v:mID="244" v:groupContext="shape" v:layerMember="0" transform="translate(156.406,-37.4698)">
			<title>动态连接线.244</title>
			<path d="M0 206.51 L-68.03 220.8" class="st7"/>
		</g>
		<g id="shape217-41" v:mID="217" v:groupContext="shape" v:layerMember="0" transform="translate(91.2087,-108.217)">
			<title>动态连接线.217</title>
			<path d="M-2.83 206.51 L-11.34 300.06" class="st11"/>
		</g>
		<g id="shape234-47" v:mID="234" v:groupContext="shape" transform="translate(94.0433,-10.4213)">
			<title>正方形.234</title>
			<desc>9</desc>
			<v:userDefs>
				<v:ud v:nameU="visVersion" v:val="VT0(15):26"/>
			</v:userDefs>
			<v:textBlock v:margins="rect(4,4,4,4)" v:tabSpace="42.5197"/>
			<v:textRect cx="5.66929" cy="200.843" width="11.34" height="11.3386"/>
			<rect x="0" y="195.173" width="11.3386" height="11.3386" class="st1"/>
			<text x="4.92" y="201.74" class="st2" v:langID="2052"><v:paragraph v:horizAlign="1"/><v:tabList/>9</text>		</g>
		<g id="shape235-50" v:mID="235" v:groupContext="shape" transform="translate(105.382,-10.4213)">
			<title>正方形.235</title>
			<desc>42</desc>
			<v:userDefs>
				<v:ud v:nameU="visVersion" v:val="VT0(15):26"/>
			</v:userDefs>
			<v:textBlock v:margins="rect(4,4,4,4)" v:tabSpace="42.5197"/>
			<v:textRect cx="5.66929" cy="200.843" width="11.34" height="11.3386"/>
			<rect x="0" y="195.173" width="11.3386" height="11.3386" class="st1"/>
			<text x="4.17" y="201.74" class="st2" v:langID="2052"><v:paragraph v:horizAlign="1"/><v:tabList/>42</text>		</g>
		<g id="shape236-53" v:mID="236" v:groupContext="shape" transform="translate(116.72,-10.4213)">
			<title>正方形.236</title>
			<desc>4</desc>
			<v:userDefs>
				<v:ud v:nameU="visVersion" v:val="VT0(15):26"/>
			</v:userDefs>
			<v:textBlock v:margins="rect(4,4,4,4)" v:tabSpace="42.5197"/>
			<v:textRect cx="5.66929" cy="200.843" width="11.34" height="11.3386"/>
			<rect x="0" y="195.173" width="11.3386" height="11.3386" class="st1"/>
			<text x="4.92" y="201.74" class="st2" v:langID="2052"><v:paragraph v:horizAlign="1"/><v:tabList/>4</text>		</g>
		<g id="shape233-56" v:mID="233" v:groupContext="shape" transform="translate(82.7047,-10.4213)">
			<title>正方形.233</title>
			<desc>7</desc>
			<v:userDefs>
				<v:ud v:nameU="visVersion" v:val="VT0(15):26"/>
			</v:userDefs>
			<v:textBlock v:margins="rect(4,4,4,4)" v:tabSpace="42.5197"/>
			<v:textRect cx="5.66929" cy="200.843" width="11.34" height="11.3386"/>
			<rect x="0" y="195.173" width="11.3386" height="11.3386" class="st1"/>
			<text x="4.92" y="201.74" class="st2" v:langID="2052"><v:paragraph v:horizAlign="1"/><v:tabList/>7</text>		</g>
		<g id="shape225-59" v:mID="225" v:groupContext="shape" transform="translate(145.067,-81.2874)">
			<title>正方形.225</title>
			<desc>-1</desc>
			<v:userDefs>
				<v:ud v:nameU="visVersion" v:val="VT0(15):26"/>
			</v:userDefs>
			<v:textBlock v:margins="rect(4,4,4,4)" v:tabSpace="42.5197"/>
			<v:textRect cx="5.66929" cy="200.843" width="11.34" height="11.3386"/>
			<rect x="0" y="195.173" width="11.3386" height="11.3386" class="st1"/>
			<text x="4.17" y="201.74" class="st2" v:langID="2052"><v:paragraph v:horizAlign="1"/><v:tabList/>-1</text>		</g>
		<g id="shape226-62" v:mID="226" v:groupContext="shape" transform="translate(156.406,-81.2874)">
			<title>正方形.226</title>
			<desc>5</desc>
			<v:userDefs>
				<v:ud v:nameU="visVersion" v:val="VT0(15):26"/>
			</v:userDefs>
			<v:textBlock v:margins="rect(4,4,4,4)" v:tabSpace="42.5197"/>
			<v:textRect cx="5.66929" cy="200.843" width="11.34" height="11.3386"/>
			<rect x="0" y="195.173" width="11.3386" height="11.3386" class="st1"/>
			<text x="4.92" y="201.74" class="st2" v:langID="2052"><v:paragraph v:horizAlign="1"/><v:tabList/>5</text>		</g>
		<g id="shape227-65" v:mID="227" v:groupContext="shape" transform="translate(145.067,-98.2953)">
			<title>正方形.227</title>
			<desc>2</desc>
			<v:userDefs>
				<v:ud v:nameU="visVersion" v:val="VT0(15):26"/>
			</v:userDefs>
			<v:textBlock v:margins="rect(4,4,4,4)" v:tabSpace="42.5197"/>
			<v:textRect cx="5.66929" cy="200.843" width="11.34" height="11.3386"/>
			<rect x="0" y="195.173" width="11.3386" height="11.3386" class="st1"/>
			<text x="4.92" y="201.74" class="st2" v:langID="2052"><v:paragraph v:horizAlign="1"/><v:tabList/>2</text>		</g>
		<g id="shape228-68" v:mID="228" v:groupContext="shape" transform="translate(156.406,-98.2953)">
			<title>正方形.228</title>
			<desc>-1</desc>
			<v:userDefs>
				<v:ud v:nameU="visVersion" v:val="VT0(15):26"/>
			</v:userDefs>
			<v:textBlock v:margins="rect(4,4,4,4)" v:tabSpace="42.5197"/>
			<v:textRect cx="5.66929" cy="200.843" width="11.34" height="11.3386"/>
			<rect x="0" y="195.173" width="11.3386" height="11.3386" class="st1"/>
			<text x="4.17" y="201.74" class="st2" v:langID="2052"><v:paragraph v:horizAlign="1"/><v:tabList/>-1</text>		</g>
		<g id="shape229-71" v:mID="229" v:groupContext="shape" transform="translate(145.067,-38.7677)">
			<title>正方形.229</title>
			<desc>5</desc>
			<v:userDefs>
				<v:ud v:nameU="visVersion" v:val="VT0(15):26"/>
			</v:userDefs>
			<v:textBlock v:margins="rect(4,4,4,4)" v:tabSpace="42.5197"/>
			<v:textRect cx="5.66929" cy="200.843" width="11.34" height="11.3386"/>
			<rect x="0" y="195.173" width="11.3386" height="11.3386" class="st13"/>
			<text x="4.92" y="201.74" class="st14" v:langID="2052"><v:paragraph v:horizAlign="1"/><v:tabList/>5</text>		</g>
		<g id="shape230-74" v:mID="230" v:groupContext="shape" transform="translate(156.406,-38.7677)">
			<title>正方形.230</title>
			<desc>-1</desc>
			<v:userDefs>
				<v:ud v:nameU="visVersion" v:val="VT0(15):26"/>
			</v:userDefs>
			<v:textBlock v:margins="rect(4,4,4,4)" v:tabSpace="42.5197"/>
			<v:textRect cx="5.66929" cy="200.843" width="11.34" height="11.3386"/>
			<rect x="0" y="195.173" width="11.3386" height="11.3386" class="st13"/>
			<text x="4.17" y="201.74" class="st14" v:langID="2052"><v:paragraph v:horizAlign="1"/><v:tabList/>-1</text>		</g>
		<g id="shape231-77" v:mID="231" v:groupContext="shape" transform="translate(145.067,-55.7756)">
			<title>正方形.231</title>
			<desc>-1</desc>
			<v:userDefs>
				<v:ud v:nameU="visVersion" v:val="VT0(15):26"/>
			</v:userDefs>
			<v:textBlock v:margins="rect(4,4,4,4)" v:tabSpace="42.5197"/>
			<v:textRect cx="5.66929" cy="200.843" width="11.34" height="11.3386"/>
			<rect x="0" y="195.173" width="11.3386" height="11.3386" class="st13"/>
			<text x="4.17" y="201.74" class="st14" v:langID="2052"><v:paragraph v:horizAlign="1"/><v:tabList/>-1</text>		</g>
		<g id="shape232-80" v:mID="232" v:groupContext="shape" transform="translate(156.406,-55.7756)">
			<title>正方形.232</title>
			<desc>2</desc>
			<v:userDefs>
				<v:ud v:nameU="visVersion" v:val="VT0(15):26"/>
			</v:userDefs>
			<v:textBlock v:margins="rect(4,4,4,4)" v:tabSpace="42.5197"/>
			<v:textRect cx="5.66929" cy="200.843" width="11.34" height="11.3386"/>
			<rect x="0" y="195.173" width="11.3386" height="11.3386" class="st13"/>
			<text x="4.92" y="201.74" class="st14" v:langID="2052"><v:paragraph v:horizAlign="1"/><v:tabList/>2</text>		</g>
		<g id="group268-83" transform="translate(143.65,-79.9895)" v:mID="268" v:groupContext="group">
			<title>工作表.268</title>
			<g id="shape269-84" v:mID="269" v:groupContext="shape">
				<title>椭圆形.64</title>
				<v:userDefs>
					<v:ud v:nameU="visVersion" v:val="VT0(15):26"/>
				</v:userDefs>
				<path d="M0 199.43 A12.7559 7.08661 0 0 1 25.51 199.43 A12.7559 7.08661 0 0 1 -0 199.43 Z" class="st15"/>
			</g>
		</g>
		<g id="group270-86" transform="translate(143.65,-96.9973)" v:mID="270" v:groupContext="group">
			<title>工作表.270</title>
			<g id="shape271-87" v:mID="271" v:groupContext="shape">
				<title>椭圆形.64</title>
				<v:userDefs>
					<v:ud v:nameU="visVersion" v:val="VT0(15):26"/>
				</v:userDefs>
				<path d="M0 199.43 A12.7559 7.08661 0 0 1 25.51 199.43 A12.7559 7.08661 0 0 1 -0 199.43 Z" class="st15"/>
			</g>
		</g>
		<g id="shape272-89" v:mID="272" v:groupContext="shape" transform="translate(143.65,-54.4777)">
			<title>椭圆形.272</title>
			<v:userDefs>
				<v:ud v:nameU="visVersion" v:val="VT0(15):26"/>
			</v:userDefs>
			<path d="M0 199.43 A12.7559 7.08661 0 0 1 25.51 199.43 A12.7559 7.08661 0 0 1 -0 199.43 Z" class="st15"/>
		</g>
		<g id="shape273-91" v:mID="273" v:groupContext="shape" transform="translate(143.65,-37.4698)">
			<title>椭圆形.273</title>
			<v:userDefs>
				<v:ud v:nameU="visVersion" v:val="VT0(15):26"/>
			</v:userDefs>
			<path d="M0 199.43 A12.7559 7.08661 0 0 1 25.51 199.43 A12.7559 7.08661 0 0 1 -0 199.43 Z" class="st15"/>
		</g>
		<g id="shape258-93" v:mID="258" v:groupContext="shape" transform="translate(81.2874,-9.00394)">
			<title>椭圆形.258</title>
			<v:userDefs>
				<v:ud v:nameU="visVersion" v:val="VT0(15):26"/>
			</v:userDefs>
			<path d="M0 199.43 A7.08661 7.08661 0 1 1 14.17 199.43 A7.08661 7.08661 0 1 1 -0 199.43 Z" class="st16"/>
		</g>
		<g id="shape259-95" v:mID="259" v:groupContext="shape" transform="translate(92.626,-9.00394)">
			<title>椭圆形.259</title>
			<v:userDefs>
				<v:ud v:nameU="visVersion" v:val="VT0(15):26"/>
			</v:userDefs>
			<path d="M0 199.43 A7.08661 7.08661 0 1 1 14.17 199.43 A7.08661 7.08661 0 1 1 -0 199.43 Z" class="st17"/>
		</g>
		<g id="shape260-97" v:mID="260" v:groupContext="shape" transform="translate(103.965,-9.00394)">
			<title>椭圆形.260</title>
			<v:userDefs>
				<v:ud v:nameU="visVersion" v:val="VT0(15):26"/>
			</v:userDefs>
			<path d="M0 199.43 A7.08661 7.08661 0 1 1 14.17 199.43 A7.08661 7.08661 0 1 1 -0 199.43 Z" class="st18"/>
		</g>
		<g id="shape261-99" v:mID="261" v:groupContext="shape" transform="translate(115.303,-9.00394)">
			<title>椭圆形.261</title>
			<v:userDefs>
				<v:ud v:nameU="visVersion" v:val="VT0(15):26"/>
			</v:userDefs>
			<path d="M0 199.43 A7.08661 7.08661 0 1 1 14.17 199.43 A7.08661 7.08661 0 1 1 -0 199.43 Z" class="st19"/>
		</g>
		<g id="shape150-101" v:mID="150" v:groupContext="shape" transform="translate(136.563,-30.2638)">
			<title>正方形.150</title>
			<desc>4</desc>
			<v:userDefs>
				<v:ud v:nameU="visVersion" v:val="VT0(15):26"/>
			</v:userDefs>
			<v:textBlock v:margins="rect(4,4,4,4)" v:tabSpace="42.5197"/>
			<v:textRect cx="5.66929" cy="200.843" width="11.34" height="11.3386"/>
			<rect x="0" y="195.173" width="11.3386" height="11.3386" class="st20"/>
			<text x="4.92" y="201.74" class="st14" v:langID="2052"><v:paragraph v:horizAlign="1"/><v:tabList/>4</text>		</g>
		<g id="shape194-104" v:mID="194" v:groupContext="shape" transform="translate(147.902,-30.2638)">
			<title>正方形.194</title>
			<desc>3</desc>
			<v:userDefs>
				<v:ud v:nameU="visVersion" v:val="VT0(15):26"/>
			</v:userDefs>
			<v:textBlock v:margins="rect(4,4,4,4)" v:tabSpace="42.5197"/>
			<v:textRect cx="5.66929" cy="200.843" width="11.34" height="11.3386"/>
			<rect x="0" y="195.173" width="11.3386" height="11.3386" class="st20"/>
			<text x="4.92" y="201.74" class="st14" v:langID="2052"><v:paragraph v:horizAlign="1"/><v:tabList/>3</text>		</g>
		<g id="shape141-107" v:mID="141" v:groupContext="shape" transform="translate(136.563,-72.7835)">
			<title>正方形.141</title>
			<desc>3</desc>
			<v:userDefs>
				<v:ud v:nameU="visVersion" v:val="VT0(15):26"/>
			</v:userDefs>
			<v:textBlock v:margins="rect(4,4,4,4)" v:tabSpace="42.5197"/>
			<v:textRect cx="5.66929" cy="200.843" width="11.34" height="11.3386"/>
			<rect x="0" y="195.173" width="11.3386" height="11.3386" class="st21"/>
			<text x="4.92" y="201.74" class="st2" v:langID="2052"><v:paragraph v:horizAlign="1"/><v:tabList/>3</text>		</g>
		<g id="shape142-110" v:mID="142" v:groupContext="shape" transform="translate(147.902,-72.7835)">
			<title>正方形.142</title>
			<desc>4</desc>
			<v:userDefs>
				<v:ud v:nameU="visVersion" v:val="VT0(15):26"/>
			</v:userDefs>
			<v:textBlock v:margins="rect(4,4,4,4)" v:tabSpace="42.5197"/>
			<v:textRect cx="5.66929" cy="200.843" width="11.34" height="11.3386"/>
			<rect x="0" y="195.173" width="11.3386" height="11.3386" class="st21"/>
			<text x="4.92" y="201.74" class="st2" v:langID="2052"><v:paragraph v:horizAlign="1"/><v:tabList/>4</text>		</g>
		<g id="shape138-113" v:mID="138" v:groupContext="shape" transform="translate(88.374,-137.98)">
			<title>正方形.138</title>
			<desc>3</desc>
			<v:userDefs>
				<v:ud v:nameU="visVersion" v:val="VT0(15):26"/>
			</v:userDefs>
			<v:textBlock v:margins="rect(4,4,4,4)" v:tabSpace="42.5197"/>
			<v:textRect cx="5.66929" cy="200.843" width="11.34" height="11.3386"/>
			<rect x="0" y="195.173" width="11.3386" height="11.3386" class="st21"/>
			<text x="4.92" y="201.74" class="st2" v:langID="2052"><v:paragraph v:horizAlign="1"/><v:tabList/>3</text>		</g>
		<g id="shape139-116" v:mID="139" v:groupContext="shape" transform="translate(99.7126,-137.98)">
			<title>正方形.139</title>
			<desc>7</desc>
			<v:userDefs>
				<v:ud v:nameU="visVersion" v:val="VT0(15):26"/>
			</v:userDefs>
			<v:textBlock v:margins="rect(4,4,4,4)" v:tabSpace="42.5197"/>
			<v:textRect cx="5.66929" cy="200.843" width="11.34" height="11.3386"/>
			<rect x="0" y="195.173" width="11.3386" height="11.3386" class="st21"/>
			<text x="4.92" y="201.74" class="st2" v:langID="2052"><v:paragraph v:horizAlign="1"/><v:tabList/>7</text>		</g>
		<g id="shape140-119" v:mID="140" v:groupContext="shape" transform="translate(111.051,-137.98)">
			<title>正方形.140</title>
			<desc>2</desc>
			<v:userDefs>
				<v:ud v:nameU="visVersion" v:val="VT0(15):26"/>
			</v:userDefs>
			<v:textBlock v:margins="rect(4,4,4,4)" v:tabSpace="42.5197"/>
			<v:textRect cx="5.66929" cy="200.843" width="11.34" height="11.3386"/>
			<rect x="0" y="195.173" width="11.3386" height="11.3386" class="st21"/>
			<text x="4.92" y="201.74" class="st2" v:langID="2052"><v:paragraph v:horizAlign="1"/><v:tabList/>2</text>		</g>
		<g id="shape5-122" v:mID="5" v:groupContext="shape" transform="translate(0.500004,-160.657)">
			<title>工作表.5</title>
			<desc>输入的维度为(1,2,3) 卷积核的维度为(2,2,2) 输出的维度为(1,2,4)</desc>
			<v:textBlock v:margins="rect(4,4,4,4)" v:tabSpace="42.5197"/>
			<v:textRect cx="56.6929" cy="183.835" width="113.39" height="45.3543"/>
			<rect x="0" y="161.157" width="113.386" height="45.3543" class="st22"/>
			<text x="4" y="178.43" class="st23" v:langID="2052"><v:paragraph/><v:tabList/>输入的维度为(1,2,3)<v:newlineChar/><tspan x="4"
						dy="1.2em" class="st24">卷积核的维度为</tspan>(2,<tspan class="st25">2</tspan>,2)<v:newlineChar/><tspan x="4"
						dy="1.2em" class="st24">输出的维度为</tspan>(1,<tspan class="st25">2</tspan>,4)</text>		</g>
		<g id="shape9-129" v:mID="9" v:groupContext="shape" transform="translate(0.500002,-128.059)">
			<title>工作表.9</title>
			<desc>Input</desc>
			<v:textBlock v:margins="rect(4,4,4,4)" v:tabSpace="42.5197"/>
			<v:textRect cx="28.3465" cy="199.425" width="56.7" height="14.1732"/>
			<rect x="0" y="192.339" width="56.6929" height="14.1732" class="st22"/>
			<text x="20.85" y="201.23" class="st23" v:langID="2052"><v:paragraph v:horizAlign="1"/><v:tabList/>Input</text>		</g>
		<g id="shape10-132" v:mID="10" v:groupContext="shape" transform="translate(0.500002,-71.3662)">
			<title>工作表.10</title>
			<desc>Kernel</desc>
			<v:textBlock v:margins="rect(4,4,4,4)" v:tabSpace="42.5197"/>
			<v:textRect cx="28.3465" cy="199.425" width="56.7" height="14.1732"/>
			<rect x="0" y="192.339" width="56.6929" height="14.1732" class="st22"/>
			<text x="19.35" y="201.23" class="st23" v:langID="2052"><v:paragraph v:horizAlign="1"/><v:tabList/>Kernel</text>		</g>
		<g id="shape11-135" v:mID="11" v:groupContext="shape" transform="translate(0.5,-0.500013)">
			<title>工作表.11</title>
			<desc>Output</desc>
			<v:textBlock v:margins="rect(4,4,4,4)" v:tabSpace="42.5197"/>
			<v:textRect cx="28.3465" cy="199.425" width="56.7" height="14.1732"/>
			<rect x="0" y="192.339" width="56.6929" height="14.1732" class="st22"/>
			<text x="19.35" y="201.23" class="st23" v:langID="2052"><v:paragraph v:horizAlign="1"/><v:tabList/>Output</text>		</g>
		<g id="shape15-138" v:mID="15" v:groupContext="shape" transform="translate(74.2008,-1.91734)">
			<title>正方形.15</title>
			<desc>44</desc>
			<v:userDefs>
				<v:ud v:nameU="visVersion" v:val="VT0(15):26"/>
			</v:userDefs>
			<v:textBlock v:margins="rect(4,4,4,4)" v:tabSpace="42.5197"/>
			<v:textRect cx="5.66929" cy="200.843" width="11.34" height="11.3386"/>
			<rect x="0" y="195.173" width="11.3386" height="11.3386" class="st21"/>
			<text x="4.17" y="201.74" class="st2" v:langID="2052"><v:paragraph v:horizAlign="1"/><v:tabList/>44</text>		</g>
		<g id="shape16-141" v:mID="16" v:groupContext="shape" transform="translate(85.5394,-1.91734)">
			<title>正方形.16</title>
			<desc>59</desc>
			<v:userDefs>
				<v:ud v:nameU="visVersion" v:val="VT0(15):26"/>
			</v:userDefs>
			<v:textBlock v:margins="rect(4,4,4,4)" v:tabSpace="42.5197"/>
			<v:textRect cx="5.66929" cy="200.843" width="11.34" height="11.3386"/>
			<rect x="0" y="195.173" width="11.3386" height="11.3386" class="st21"/>
			<text x="4.17" y="201.74" class="st2" v:langID="2052"><v:paragraph v:horizAlign="1"/><v:tabList/>59</text>		</g>
		<g id="shape17-144" v:mID="17" v:groupContext="shape" transform="translate(96.878,-1.91734)">
			<title>正方形.17</title>
			<desc>79</desc>
			<v:userDefs>
				<v:ud v:nameU="visVersion" v:val="VT0(15):26"/>
			</v:userDefs>
			<v:textBlock v:margins="rect(4,4,4,4)" v:tabSpace="42.5197"/>
			<v:textRect cx="5.66929" cy="200.843" width="11.34" height="11.3386"/>
			<rect x="0" y="195.173" width="11.3386" height="11.3386" class="st21"/>
			<text x="4.17" y="201.74" class="st2" v:langID="2052"><v:paragraph v:horizAlign="1"/><v:tabList/>79</text>		</g>
		<g id="shape18-147" v:mID="18" v:groupContext="shape" transform="translate(108.217,-1.91734)">
			<title>正方形.18</title>
			<desc>14</desc>
			<v:userDefs>
				<v:ud v:nameU="visVersion" v:val="VT0(15):26"/>
			</v:userDefs>
			<v:textBlock v:margins="rect(4,4,4,4)" v:tabSpace="42.5197"/>
			<v:textRect cx="5.66929" cy="200.843" width="11.34" height="11.3386"/>
			<rect x="0" y="195.173" width="11.3386" height="11.3386" class="st21"/>
			<text x="4.17" y="201.74" class="st2" v:langID="2052"><v:paragraph v:horizAlign="1"/><v:tabList/>14</text>		</g>
		<g id="shape1-150" v:mID="1" v:groupContext="shape" transform="translate(79.8701,-129.476)">
			<title>正方形</title>
			<desc>5</desc>
			<v:userDefs>
				<v:ud v:nameU="visVersion" v:val="VT0(15):26"/>
			</v:userDefs>
			<v:textBlock v:margins="rect(4,4,4,4)" v:tabSpace="42.5197"/>
			<v:textRect cx="5.66929" cy="200.843" width="11.34" height="11.3386"/>
			<rect x="0" y="195.173" width="11.3386" height="11.3386" class="st21"/>
			<text x="4.92" y="201.74" class="st2" v:langID="2052"><v:paragraph v:horizAlign="1"/><v:tabList/>5</text>		</g>
		<g id="shape2-153" v:mID="2" v:groupContext="shape" transform="translate(91.2087,-129.476)">
			<title>正方形.2</title>
			<desc>3</desc>
			<v:userDefs>
				<v:ud v:nameU="visVersion" v:val="VT0(15):26"/>
			</v:userDefs>
			<v:textBlock v:margins="rect(4,4,4,4)" v:tabSpace="42.5197"/>
			<v:textRect cx="5.66929" cy="200.843" width="11.34" height="11.3386"/>
			<rect x="0" y="195.173" width="11.3386" height="11.3386" class="st21"/>
			<text x="4.92" y="201.74" class="st2" v:langID="2052"><v:paragraph v:horizAlign="1"/><v:tabList/>3</text>		</g>
		<g id="shape3-156" v:mID="3" v:groupContext="shape" transform="translate(102.547,-129.476)">
			<title>正方形.3</title>
			<desc>6</desc>
			<v:userDefs>
				<v:ud v:nameU="visVersion" v:val="VT0(15):26"/>
			</v:userDefs>
			<v:textBlock v:margins="rect(4,4,4,4)" v:tabSpace="42.5197"/>
			<v:textRect cx="5.66929" cy="200.843" width="11.34" height="11.3386"/>
			<rect x="0" y="195.173" width="11.3386" height="11.3386" class="st21"/>
			<text x="4.92" y="201.74" class="st2" v:langID="2052"><v:paragraph v:horizAlign="1"/><v:tabList/>6</text>		</g>
		<g id="group76-159" transform="translate(162.075,-149.319)" v:mID="76" v:groupContext="group">
			<title>工作表.76</title>
			<g id="shape70-160" v:mID="70" v:groupContext="shape" v:layerMember="0" transform="translate(4.25196,-28.6723)">
				<title>动态连接线.156</title>
				<path d="M7.09 206.51 L7.09 235.18" class="st26"/>
			</g>
			<g id="shape71-166" v:mID="71" v:groupContext="shape" v:layerMember="0" transform="translate(11.3386,-21.5857)">
				<title>动态连接线.157</title>
				<path d="M0 199.43 L28.35 199.43" class="st26"/>
			</g>
			<g id="shape72-171" v:mID="72" v:groupContext="shape" v:layerMember="0" transform="translate(11.3386,-28.6723)">
				<title>动态连接线.158</title>
				<path d="M0 206.51 L19.84 186.44" class="st26"/>
			</g>
			<g id="shape73-176" v:mID="73" v:groupContext="shape" transform="translate(11.3386,-15.7698)">
				<title>工作表.73</title>
				<desc>dim=2</desc>
				<v:textBlock v:margins="rect(4,4,4,4)" v:tabSpace="42.5197"/>
				<v:textRect cx="14.1732" cy="199.344" width="28.35" height="14.3361"/>
				<rect x="0" y="192.176" width="28.3465" height="14.3361" class="st22"/>
				<text x="6.67" y="201.14" class="st23" v:langID="2052"><v:paragraph v:horizAlign="1"/><v:tabList/>dim=2</text>			</g>
			<g id="shape74-179" v:mID="74" v:groupContext="shape" transform="translate(-132.727,34.1182) rotate(-45)">
				<title>工作表.74</title>
				<desc>dim=1</desc>
				<v:textBlock v:margins="rect(4,4,4,4)" v:tabSpace="42.5197"/>
				<v:textRect cx="14.2547" cy="199.384" width="28.51" height="14.2547"/>
				<rect x="0" y="192.257" width="28.5094" height="14.2547" class="st22"/>
				<text x="6.75" y="201.18" class="st23" v:langID="2052"><v:paragraph v:horizAlign="1"/><v:tabList/>dim=1</text>			</g>
			<g id="shape75-182" v:mID="75" v:groupContext="shape" transform="translate(-192.339,204.957) rotate(-90)">
				<title>工作表.75</title>
				<desc>dim=0</desc>
				<v:textBlock v:margins="rect(4,4,4,4)" v:tabSpace="42.5197"/>
				<v:textRect cx="14.3361" cy="199.425" width="28.68" height="14.1732"/>
				<rect x="0" y="192.339" width="28.6723" height="14.1732" class="st22"/>
				<text x="6.84" y="201.23" class="st23" v:langID="2052"><v:paragraph v:horizAlign="1"/><v:tabList/>dim=0</text>			</g>
		</g>
		<g id="shape12-185" v:mID="12" v:groupContext="shape" transform="translate(136.563,-89.7913)">
			<title>正方形.12</title>
			<desc>7</desc>
			<v:userDefs>
				<v:ud v:nameU="visVersion" v:val="VT0(15):26"/>
			</v:userDefs>
			<v:textBlock v:margins="rect(4,4,4,4)" v:tabSpace="42.5197"/>
			<v:textRect cx="5.66929" cy="200.843" width="11.34" height="11.3386"/>
			<rect x="0" y="195.173" width="11.3386" height="11.3386" class="st21"/>
			<text x="4.92" y="201.74" class="st2" v:langID="2052"><v:paragraph v:horizAlign="1"/><v:tabList/>7</text>		</g>
		<g id="shape13-188" v:mID="13" v:groupContext="shape" transform="translate(147.902,-89.7913)">
			<title>正方形.13</title>
			<desc>1</desc>
			<v:userDefs>
				<v:ud v:nameU="visVersion" v:val="VT0(15):26"/>
			</v:userDefs>
			<v:textBlock v:margins="rect(4,4,4,4)" v:tabSpace="42.5197"/>
			<v:textRect cx="5.66929" cy="200.843" width="11.34" height="11.3386"/>
			<rect x="0" y="195.173" width="11.3386" height="11.3386" class="st21"/>
			<text x="4.92" y="201.74" class="st2" v:langID="2052"><v:paragraph v:horizAlign="1"/><v:tabList/>1</text>		</g>
		<g id="shape111-191" v:mID="111" v:groupContext="shape" transform="translate(0.5,-99.7126)">
			<title>工作表.111</title>
			<desc>Convert Input</desc>
			<v:textBlock v:margins="rect(4,4,4,4)" v:tabSpace="42.5197"/>
			<v:textRect cx="28.3465" cy="199.425" width="56.7" height="14.1732"/>
			<rect x="0" y="192.339" width="56.6929" height="14.1732" class="st22"/>
			<text x="8.85" y="201.23" class="st28" v:langID="2052"><v:paragraph v:horizAlign="1"/><v:tabList/>Convert Input</text>		</g>
		<g id="shape126-194" v:mID="126" v:groupContext="shape" transform="translate(136.563,-47.2717)">
			<title>正方形.126</title>
			<desc>1</desc>
			<v:userDefs>
				<v:ud v:nameU="visVersion" v:val="VT0(15):26"/>
			</v:userDefs>
			<v:textBlock v:margins="rect(4,4,4,4)" v:tabSpace="42.5197"/>
			<v:textRect cx="5.66929" cy="200.843" width="11.34" height="11.3386"/>
			<rect x="0" y="195.173" width="11.3386" height="11.3386" class="st20"/>
			<text x="4.92" y="201.74" class="st14" v:langID="2052"><v:paragraph v:horizAlign="1"/><v:tabList/>1</text>		</g>
		<g id="shape127-197" v:mID="127" v:groupContext="shape" transform="translate(147.902,-47.2717)">
			<title>正方形.127</title>
			<desc>7</desc>
			<v:userDefs>
				<v:ud v:nameU="visVersion" v:val="VT0(15):26"/>
			</v:userDefs>
			<v:textBlock v:margins="rect(4,4,4,4)" v:tabSpace="42.5197"/>
			<v:textRect cx="5.66929" cy="200.843" width="11.34" height="11.3386"/>
			<rect x="0" y="195.173" width="11.3386" height="11.3386" class="st20"/>
			<text x="4.92" y="201.74" class="st14" v:langID="2052"><v:paragraph v:horizAlign="1"/><v:tabList/>7</text>		</g>
		<g id="shape137-200" v:mID="137" v:groupContext="shape" transform="translate(3.33465,-28.8465)">
			<title>工作表.137</title>
			<desc>Convert Kernel</desc>
			<v:textBlock v:margins="rect(4,4,4,4)" v:tabSpace="42.5197"/>
			<v:textRect cx="28.3465" cy="199.425" width="56.7" height="14.1732"/>
			<rect x="0" y="192.339" width="56.6929" height="14.1732" class="st22"/>
			<text x="7.35" y="201.23" class="st28" v:langID="2052"><v:paragraph v:horizAlign="1"/><v:tabList/>Convert Kernel</text>		</g>
		<g id="shape245-203" v:mID="245" v:groupContext="shape" transform="translate(72.7835,-0.5)">
			<title>椭圆形.36</title>
			<v:userDefs>
				<v:ud v:nameU="visVersion" v:val="VT0(15):26"/>
			</v:userDefs>
			<path d="M0 199.43 A7.08661 7.08661 0 1 1 14.17 199.43 A7.08661 7.08661 0 1 1 -0 199.43 Z" class="st29"/>
		</g>
		<g id="shape246-205" v:mID="246" v:groupContext="shape" transform="translate(84.1221,-0.500013)">
			<title>椭圆形.57</title>
			<v:userDefs>
				<v:ud v:nameU="visVersion" v:val="VT0(15):26"/>
			</v:userDefs>
			<path d="M0 199.43 A7.08661 7.08661 0 1 1 14.17 199.43 A7.08661 7.08661 0 1 1 -0 199.43 Z" class="st30"/>
		</g>
		<g id="shape247-207" v:mID="247" v:groupContext="shape" transform="translate(95.4606,-0.500013)">
			<title>椭圆形.58</title>
			<v:userDefs>
				<v:ud v:nameU="visVersion" v:val="VT0(15):26"/>
			</v:userDefs>
			<path d="M0 199.43 A7.08661 7.08661 0 1 1 14.17 199.43 A7.08661 7.08661 0 1 1 -0 199.43 Z" class="st31"/>
		</g>
		<g id="shape248-209" v:mID="248" v:groupContext="shape" transform="translate(106.799,-0.50001)">
			<title>椭圆形.59</title>
			<v:userDefs>
				<v:ud v:nameU="visVersion" v:val="VT0(15):26"/>
			</v:userDefs>
			<path d="M0 199.43 A7.08661 7.08661 0 1 1 14.17 199.43 A7.08661 7.08661 0 1 1 -0 199.43 Z" class="st32"/>
		</g>
		<g id="group262-211" transform="translate(135.146,-71.3662)" v:mID="262" v:groupContext="group">
			<title>工作表.262</title>
			<g id="shape263-212" v:mID="263" v:groupContext="shape">
				<title>椭圆形.64</title>
				<v:userDefs>
					<v:ud v:nameU="visVersion" v:val="VT0(15):26"/>
				</v:userDefs>
				<path d="M0 199.43 A12.7559 7.08661 0 0 1 25.51 199.43 A12.7559 7.08661 0 0 1 -0 199.43 Z" class="st33"/>
			</g>
		</g>
		<g id="group264-214" transform="translate(135.146,-88.374)" v:mID="264" v:groupContext="group">
			<title>工作表.264</title>
			<g id="shape265-215" v:mID="265" v:groupContext="shape">
				<title>椭圆形.64</title>
				<v:userDefs>
					<v:ud v:nameU="visVersion" v:val="VT0(15):26"/>
				</v:userDefs>
				<path d="M0 199.43 A12.7559 7.08661 0 0 1 25.51 199.43 A12.7559 7.08661 0 0 1 -0 199.43 Z" class="st33"/>
			</g>
		</g>
		<g id="shape266-217" v:mID="266" v:groupContext="shape" transform="translate(135.146,-45.8543)">
			<title>椭圆形.64</title>
			<v:userDefs>
				<v:ud v:nameU="visVersion" v:val="VT0(15):26"/>
			</v:userDefs>
			<path d="M0 199.43 A12.7559 7.08661 0 0 1 25.51 199.43 A12.7559 7.08661 0 0 1 -0 199.43 Z" class="st33"/>
		</g>
		<g id="shape267-219" v:mID="267" v:groupContext="shape" transform="translate(135.146,-28.8465)">
			<title>椭圆形.245</title>
			<v:userDefs>
				<v:ud v:nameU="visVersion" v:val="VT0(15):26"/>
			</v:userDefs>
			<path d="M0 199.43 A12.7559 7.08661 0 0 1 25.51 199.43 A12.7559 7.08661 0 0 1 -0 199.43 Z" class="st33"/>
		</g>
		<g id="shape241-221" v:mID="241" v:groupContext="shape" v:layerMember="0" transform="translate(77.0354,-99.7126)">
			<title>动态连接线.241</title>
			<path d="M2.83 206.51 L11.34 283.05" class="st9"/>
		</g>
		<g id="shape221-226" v:mID="221" v:groupContext="shape" v:layerMember="0" transform="translate(147.902,-45.8543)">
			<title>动态连接线.221</title>
			<path d="M0 206.51 L-68.03 237.69" class="st34"/>
		</g>
		<g id="shape121-232" v:mID="121" v:groupContext="shape" v:layerMember="0" transform="translate(86.9567,-99.7126)">
			<title>动态连接线.121</title>
			<path d="M-7.09 206.51 L-7.09 291.55" class="st34"/>
		</g>
		<g id="shape223-237" v:mID="223" v:groupContext="shape" v:layerMember="0" transform="translate(147.902,-28.8465)">
			<title>动态连接线.223</title>
			<path d="M0 206.51 L-68.03 220.69" class="st11"/>
		</g>
		<g id="shape112-242" v:mID="112" v:groupContext="shape" transform="translate(79.8701,-101.13)">
			<title>正方形.112</title>
			<desc>5</desc>
			<v:userDefs>
				<v:ud v:nameU="visVersion" v:val="VT0(15):26"/>
			</v:userDefs>
			<v:textBlock v:margins="rect(4,4,4,4)" v:tabSpace="42.5197"/>
			<v:textRect cx="5.66929" cy="200.843" width="11.34" height="11.3386"/>
			<rect x="0" y="195.173" width="11.3386" height="11.3386" class="st21"/>
			<text x="4.92" y="201.74" class="st2" v:langID="2052"><v:paragraph v:horizAlign="1"/><v:tabList/>5</text>		</g>
		<g id="shape113-245" v:mID="113" v:groupContext="shape" transform="translate(91.2087,-101.13)">
			<title>正方形.113</title>
			<desc>3</desc>
			<v:userDefs>
				<v:ud v:nameU="visVersion" v:val="VT0(15):26"/>
			</v:userDefs>
			<v:textBlock v:margins="rect(4,4,4,4)" v:tabSpace="42.5197"/>
			<v:textRect cx="5.66929" cy="200.843" width="11.34" height="11.3386"/>
			<rect x="0" y="195.173" width="11.3386" height="11.3386" class="st21"/>
			<text x="4.92" y="201.74" class="st2" v:langID="2052"><v:paragraph v:horizAlign="1"/><v:tabList/>3</text>		</g>
		<g id="shape114-248" v:mID="114" v:groupContext="shape" transform="translate(102.547,-101.13)">
			<title>正方形.114</title>
			<desc>6</desc>
			<v:userDefs>
				<v:ud v:nameU="visVersion" v:val="VT0(15):26"/>
			</v:userDefs>
			<v:textBlock v:margins="rect(4,4,4,4)" v:tabSpace="42.5197"/>
			<v:textRect cx="5.66929" cy="200.843" width="11.34" height="11.3386"/>
			<rect x="0" y="195.173" width="11.3386" height="11.3386" class="st21"/>
			<text x="4.92" y="201.74" class="st2" v:langID="2052"><v:paragraph v:horizAlign="1"/><v:tabList/>6</text>		</g>
		<g id="shape118-251" v:mID="118" v:groupContext="shape" transform="translate(68.5315,-101.13)">
			<title>正方形.118</title>
			<desc>0</desc>
			<v:userDefs>
				<v:ud v:nameU="visVersion" v:val="VT0(15):26"/>
			</v:userDefs>
			<v:textBlock v:margins="rect(4,4,4,4)" v:tabSpace="42.5197"/>
			<v:textRect cx="5.66929" cy="200.843" width="11.34" height="11.3386"/>
			<rect x="0" y="195.173" width="11.3386" height="11.3386" class="st21"/>
			<text x="4.92" y="201.74" class="st2" v:langID="2052"><v:paragraph v:horizAlign="1"/><v:tabList/>0</text>		</g>
		<g id="shape119-254" v:mID="119" v:groupContext="shape" transform="translate(113.886,-101.13)">
			<title>正方形.119</title>
			<desc>0</desc>
			<v:userDefs>
				<v:ud v:nameU="visVersion" v:val="VT0(15):26"/>
			</v:userDefs>
			<v:textBlock v:margins="rect(4,4,4,4)" v:tabSpace="42.5197"/>
			<v:textRect cx="5.66929" cy="200.843" width="11.34" height="11.3386"/>
			<rect x="0" y="195.173" width="11.3386" height="11.3386" class="st21"/>
			<text x="4.92" y="201.74" class="st2" v:langID="2052"><v:paragraph v:horizAlign="1"/><v:tabList/>0</text>		</g>
		<g id="group278-257" transform="translate(67.1142,-99.7126)" v:mID="278" v:groupContext="group">
			<title>工作表.278</title>
			<g id="shape279-258" v:mID="279" v:groupContext="shape">
				<title>椭圆形.64</title>
				<v:userDefs>
					<v:ud v:nameU="visVersion" v:val="VT0(15):26"/>
				</v:userDefs>
				<path d="M0 199.43 A12.7559 7.08661 0 0 1 25.51 199.43 A12.7559 7.08661 0 0 1 -0 199.43 Z" class="st29"/>
			</g>
		</g>
		<g id="group280-260" transform="translate(78.4528,-99.7126)" v:mID="280" v:groupContext="group">
			<title>工作表.280</title>
			<g id="shape281-261" v:mID="281" v:groupContext="shape">
				<title>椭圆形.64</title>
				<v:userDefs>
					<v:ud v:nameU="visVersion" v:val="VT0(15):26"/>
				</v:userDefs>
				<path d="M0 199.43 A12.7559 7.08661 0 0 1 25.51 199.43 A12.7559 7.08661 0 0 1 -0 199.43 Z" class="st36"/>
			</g>
		</g>
		<g id="group282-263" transform="translate(89.7913,-99.7126)" v:mID="282" v:groupContext="group">
			<title>工作表.282</title>
			<g id="shape283-264" v:mID="283" v:groupContext="shape">
				<title>椭圆形.64</title>
				<v:userDefs>
					<v:ud v:nameU="visVersion" v:val="VT0(15):26"/>
				</v:userDefs>
				<path d="M0 199.43 A12.7559 7.08661 0 0 1 25.51 199.43 A12.7559 7.08661 0 0 1 -0 199.43 Z" class="st31"/>
			</g>
		</g>
		<g id="group284-266" transform="translate(101.13,-99.7126)" v:mID="284" v:groupContext="group">
			<title>工作表.284</title>
			<g id="shape285-267" v:mID="285" v:groupContext="shape">
				<title>椭圆形.64</title>
				<v:userDefs>
					<v:ud v:nameU="visVersion" v:val="VT0(15):26"/>
				</v:userDefs>
				<path d="M0 199.43 A12.7559 7.08661 0 0 1 25.51 199.43 A12.7559 7.08661 0 0 1 -0 199.43 Z" class="st32"/>
			</g>
		</g>
	</g>
</svg>
