<?xml version="1.0" encoding="UTF-8" standalone="no"?>
<!DOCTYPE svg PUBLIC "-//W3C//DTD SVG 1.1//EN" "http://www.w3.org/Graphics/SVG/1.1/DTD/svg11.dtd">
<!-- 由 Microsoft Visio, SVG Export 生成 torch.nn.Conv1d_figure_3.svg 页-1 -->
<svg xmlns="http://www.w3.org/2000/svg" xmlns:xlink="http://www.w3.org/1999/xlink" xmlns:ev="http://www.w3.org/2001/xml-events"
		xmlns:v="http://schemas.microsoft.com/visio/2003/SVGExtensions/" width="3.1635in" height="2.50754in"
		viewBox="0 0 227.772 180.543" xml:space="preserve" color-interpolation-filters="sRGB" class="st30">
	<v:documentProperties v:langID="2052" v:metric="true" v:viewMarkup="false"/>

	<style type="text/css">
	<![CDATA[
		.st1 {marker-end:url(#mrkr7-7);stroke:#ff9999;stroke-dasharray:3.5,2.5;stroke-linecap:round;stroke-linejoin:round;stroke-opacity:0.5;stroke-width:0.5}
		.st2 {fill:#ff9999;fill-opacity:0.5;stroke:#ff9999;stroke-opacity:0.5;stroke-width:0.21739130434783}
		.st3 {fill:#ffffff;stroke:#c8c8c8;stroke-opacity:0.5;stroke-width:0.5}
		.st4 {fill:#000000;font-family:宋体;font-size:0.499992em}
		.st5 {fill:none;stroke:#c8c8c8;stroke-opacity:0.5;stroke-width:0.5}
		.st6 {marker-end:url(#mrkr7-27);stroke:#ff9999;stroke-linecap:round;stroke-linejoin:round;stroke-width:0.5}
		.st7 {fill:#ff9999;fill-opacity:1;stroke:#ff9999;stroke-opacity:1;stroke-width:0.21739130434783}
		.st8 {fill:#ffffff;stroke:#000000;stroke-width:0.5}
		.st9 {fill:none;stroke:#000000;stroke-width:0.5}
		.st10 {fill:#ffffff;stroke:#000000;stroke-opacity:0.5;stroke-width:0.5}
		.st11 {fill:none;stroke:#99ff33;stroke-opacity:0.5;stroke-width:0.5}
		.st12 {fill:none;stroke:#ffc000;stroke-opacity:0.5;stroke-width:0.5}
		.st13 {fill:none;stroke:#ccccff;stroke-opacity:0.5;stroke-width:0.5}
		.st14 {fill:none;stroke:#ed7d31;stroke-opacity:0.5;stroke-width:0.5}
		.st15 {marker-end:url(#mrkr7-63);stroke:#000000;stroke-dasharray:3.5,2.5;stroke-linecap:round;stroke-linejoin:round;stroke-opacity:0.5;stroke-width:0.5}
		.st16 {fill:#000000;fill-opacity:0.5;stroke:#000000;stroke-opacity:0.5;stroke-width:0.21739130434783}
		.st17 {fill:none;stroke:#ff0000;stroke-opacity:0.5;stroke-width:0.5}
		.st18 {fill:none;stroke:#4672c4;stroke-opacity:0.5;stroke-width:0.5}
		.st19 {fill:none;stroke:#70ad47;stroke-opacity:0.5;stroke-width:0.5}
		.st20 {fill:none;stroke:#7030a0;stroke-opacity:0.5;stroke-width:0.5}
		.st21 {fill:none;stroke:none;stroke-width:0.5}
		.st22 {font-size:1em}
		.st23 {fill:#ff0000;font-size:1em}
		.st24 {marker-end:url(#mrkr7-110);stroke:#000000;stroke-linecap:round;stroke-linejoin:round;stroke-width:0.5}
		.st25 {fill:#000000;fill-opacity:1;stroke:#000000;stroke-opacity:1;stroke-width:0.21739130434783}
		.st26 {fill:none;stroke:#ff0000;stroke-width:0.5}
		.st27 {fill:none;stroke:#4672c4;stroke-width:0.5}
		.st28 {fill:none;stroke:#70ad47;stroke-width:0.5}
		.st29 {fill:none;stroke:#7030a0;stroke-width:0.5}
		.st30 {fill:none;fill-rule:evenodd;font-size:12px;overflow:visible;stroke-linecap:square;stroke-miterlimit:3}
	]]>
	</style>

	<defs id="Markers">
		<g id="lend7">
			<path
					d="M 1.84309 -0.959456 C 1.43792 -0.380801 0.784503 -0.0260255 0.078527 -0.00137091 L 0.0785229 0.00137043 C 0.784499 0.0260231 1.43791 0.380798 1.84309 0.959452 "
					style="stroke-linecap:round;stroke-linejoin:round;fill:none"/>
		</g>
		<marker id="mrkr7-7" class="st2" v:arrowType="7" v:arrowSize="1" orient="auto" markerUnits="strokeWidth" overflow="visible">
			<use xlink:href="#lend7" transform="scale(-4.6,-4.6) "/>
		</marker>
		<marker id="mrkr7-27" class="st7" v:arrowType="7" v:arrowSize="1" orient="auto" markerUnits="strokeWidth"
				overflow="visible">
			<use xlink:href="#lend7" transform="scale(-4.6,-4.6) "/>
		</marker>
		<marker id="mrkr7-63" class="st16" v:arrowType="7" v:arrowSize="1" orient="auto" markerUnits="strokeWidth"
				overflow="visible">
			<use xlink:href="#lend7" transform="scale(-4.6,-4.6) "/>
		</marker>
		<marker id="mrkr7-110" class="st25" v:arrowType="7" v:arrowSize="1" orient="auto" markerUnits="strokeWidth"
				overflow="visible">
			<use xlink:href="#lend7" transform="scale(-4.6,-4.6) "/>
		</marker>
	</defs>
	<g v:mID="0" v:index="1" v:groupContext="foregroundPage">
		<title>页-1</title>
		<v:pageProperties v:drawingScale="0.0393701" v:pageScale="0.0393701" v:drawingUnits="24" v:shadowOffsetX="8.50394"
				v:shadowOffsetY="-8.50394"/>
		<v:layer v:name="连接线" v:index="0"/>
		<g id="group163-1" transform="translate(0.5,-0.5)" v:mID="163" v:groupContext="group">
			<title>工作表.163</title>
			<g id="shape151-2" v:mID="151" v:groupContext="shape" v:layerMember="0" transform="translate(107.008,-96.378)">
				<title>动态连接线.151</title>
				<path d="M-3.54 180.54 L-10.63 245.74" class="st1"/>
			</g>
			<g id="group116-8" transform="translate(157.323,-53.8583)" v:mID="116" v:groupContext="group">
				<title>工作表.116</title>
				<g id="shape112-9" v:mID="112" v:groupContext="shape" transform="translate(2.83465,-2.83465)">
					<title>正方形.112</title>
					<desc>1</desc>
					<v:userDefs>
						<v:ud v:nameU="visVersion" v:val="VT0(15):26"/>
					</v:userDefs>
					<v:textBlock v:margins="rect(4,4,4,4)" v:tabSpace="42.5197"/>
					<v:textRect cx="7.08661" cy="173.457" width="14.18" height="14.1732"/>
					<rect x="0" y="166.37" width="14.1732" height="14.1732" class="st3"/>
					<text x="5.59" y="175.26" class="st4" v:langID="2052"><v:paragraph v:horizAlign="1"/><v:tabList/>1</text>				</g>
				<g id="shape113-12" v:mID="113" v:groupContext="shape" transform="translate(17.0079,-2.83465)">
					<title>正方形.113</title>
					<desc>-2</desc>
					<v:userDefs>
						<v:ud v:nameU="visVersion" v:val="VT0(15):26"/>
					</v:userDefs>
					<v:textBlock v:margins="rect(4,4,4,4)" v:tabSpace="42.5197"/>
					<v:textRect cx="7.08661" cy="173.457" width="14.18" height="14.1732"/>
					<rect x="0" y="166.37" width="14.1732" height="14.1732" class="st3"/>
					<text x="4.09" y="175.26" class="st4" v:langID="2052"><v:paragraph v:horizAlign="1"/><v:tabList/>-2</text>				</g>
				<g id="shape114-15" v:mID="114" v:groupContext="shape">
					<title>椭圆形.114</title>
					<v:userDefs>
						<v:ud v:nameU="visVersion" v:val="VT0(15):26"/>
					</v:userDefs>
					<path d="M0 170.62 A17.0079 9.92126 0 0 1 34.02 170.62 A17.0079 9.92126 0 0 1 0 170.62 Z" class="st5"/>
				</g>
			</g>
			<g id="shape154-17" v:mID="154" v:groupContext="shape" v:layerMember="0" transform="translate(174.331,-53.8583)">
				<title>动态连接线.154</title>
				<path d="M0 180.54 L-77.95 203.22" class="st1"/>
			</g>
			<g id="shape153-22" v:mID="153" v:groupContext="shape" v:layerMember="0" transform="translate(162.992,-43.937)">
				<title>动态连接线.153</title>
				<path d="M0 181.96 L-66.61 193.3" class="st6"/>
			</g>
			<g id="group115-28" transform="translate(145.984,-42.5197)" v:mID="115" v:groupContext="group">
				<title>工作表.115</title>
				<g id="shape12-29" v:mID="12" v:groupContext="shape" transform="translate(2.83465,-2.83465)">
					<title>正方形.12</title>
					<desc>3</desc>
					<v:userDefs>
						<v:ud v:nameU="visVersion" v:val="VT0(15):26"/>
					</v:userDefs>
					<v:textBlock v:margins="rect(4,4,4,4)" v:tabSpace="42.5197"/>
					<v:textRect cx="7.08661" cy="173.457" width="14.18" height="14.1732"/>
					<rect x="0" y="166.37" width="14.1732" height="14.1732" class="st8"/>
					<text x="5.59" y="175.26" class="st4" v:langID="2052"><v:paragraph v:horizAlign="1"/><v:tabList/>3</text>				</g>
				<g id="shape13-32" v:mID="13" v:groupContext="shape" transform="translate(17.0079,-2.83465)">
					<title>正方形.13</title>
					<desc>4</desc>
					<v:userDefs>
						<v:ud v:nameU="visVersion" v:val="VT0(15):26"/>
					</v:userDefs>
					<v:textBlock v:margins="rect(4,4,4,4)" v:tabSpace="42.5197"/>
					<v:textRect cx="7.08661" cy="173.457" width="14.18" height="14.1732"/>
					<rect x="0" y="166.37" width="14.1732" height="14.1732" class="st8"/>
					<text x="5.59" y="175.26" class="st4" v:langID="2052"><v:paragraph v:horizAlign="1"/><v:tabList/>4</text>				</g>
				<g id="shape64-35" v:mID="64" v:groupContext="shape">
					<title>椭圆形.64</title>
					<v:userDefs>
						<v:ud v:nameU="visVersion" v:val="VT0(15):26"/>
					</v:userDefs>
					<path d="M0 170.62 A17.0079 9.92126 0 0 1 34.02 170.62 A17.0079 9.92126 0 0 1 0 170.62 Z" class="st9"/>
				</g>
			</g>
			<g id="group152-37" transform="translate(86.4567,-11.3386)" v:mID="152" v:groupContext="group">
				<title>工作表.152</title>
				<g id="shape134-38" v:mID="134" v:groupContext="shape" transform="translate(2.83465,-2.83465)">
					<title>正方形.15</title>
					<desc>16</desc>
					<v:userDefs>
						<v:ud v:nameU="visVersion" v:val="VT0(15):26"/>
					</v:userDefs>
					<v:textBlock v:margins="rect(4,4,4,4)" v:tabSpace="42.5197"/>
					<v:textRect cx="7.08661" cy="173.457" width="14.18" height="14.1732"/>
					<rect x="0" y="166.37" width="14.1732" height="14.1732" class="st10"/>
					<text x="4.09" y="175.26" class="st4" v:langID="2052"><v:paragraph v:horizAlign="1"/><v:tabList/>16</text>				</g>
				<g id="shape135-41" v:mID="135" v:groupContext="shape" transform="translate(17.0079,-2.83465)">
					<title>正方形.16</title>
					<desc>36</desc>
					<v:userDefs>
						<v:ud v:nameU="visVersion" v:val="VT0(15):26"/>
					</v:userDefs>
					<v:textBlock v:margins="rect(4,4,4,4)" v:tabSpace="42.5197"/>
					<v:textRect cx="7.08661" cy="173.457" width="14.18" height="14.1732"/>
					<rect x="0" y="166.37" width="14.1732" height="14.1732" class="st10"/>
					<text x="4.09" y="175.26" class="st4" v:langID="2052"><v:paragraph v:horizAlign="1"/><v:tabList/>36</text>				</g>
				<g id="shape136-44" v:mID="136" v:groupContext="shape" transform="translate(31.1811,-2.83465)">
					<title>正方形.17</title>
					<desc>14</desc>
					<v:userDefs>
						<v:ud v:nameU="visVersion" v:val="VT0(15):26"/>
					</v:userDefs>
					<v:textBlock v:margins="rect(4,4,4,4)" v:tabSpace="42.5197"/>
					<v:textRect cx="7.08661" cy="173.457" width="14.18" height="14.1732"/>
					<rect x="0" y="166.37" width="14.1732" height="14.1732" class="st10"/>
					<text x="4.09" y="175.26" class="st4" v:langID="2052"><v:paragraph v:horizAlign="1"/><v:tabList/>14</text>				</g>
				<g id="shape137-47" v:mID="137" v:groupContext="shape" transform="translate(45.3543,-2.83465)">
					<title>正方形.18</title>
					<desc>38</desc>
					<v:userDefs>
						<v:ud v:nameU="visVersion" v:val="VT0(15):26"/>
					</v:userDefs>
					<v:textBlock v:margins="rect(4,4,4,4)" v:tabSpace="42.5197"/>
					<v:textRect cx="7.08661" cy="173.457" width="14.18" height="14.1732"/>
					<rect x="0" y="166.37" width="14.1732" height="14.1732" class="st10"/>
					<text x="4.09" y="175.26" class="st4" v:langID="2052"><v:paragraph v:horizAlign="1"/><v:tabList/>38</text>				</g>
				<g id="shape138-50" v:mID="138" v:groupContext="shape">
					<title>椭圆形.36</title>
					<v:userDefs>
						<v:ud v:nameU="visVersion" v:val="VT0(15):26"/>
					</v:userDefs>
					<path d="M0 170.62 A9.92126 9.92126 0 0 1 19.84 170.62 A9.92126 9.92126 0 1 1 0 170.62 Z" class="st11"/>
				</g>
				<g id="shape139-52" v:mID="139" v:groupContext="shape" transform="translate(14.1732,8.52651E-14)">
					<title>椭圆形.57</title>
					<v:userDefs>
						<v:ud v:nameU="visVersion" v:val="VT0(15):26"/>
					</v:userDefs>
					<path d="M0 170.62 A9.92126 9.92126 0 0 1 19.84 170.62 A9.92126 9.92126 0 1 1 0 170.62 Z" class="st12"/>
				</g>
				<g id="shape140-54" v:mID="140" v:groupContext="shape" transform="translate(28.3465,-7.29537E-06)">
					<title>椭圆形.58</title>
					<v:userDefs>
						<v:ud v:nameU="visVersion" v:val="VT0(15):26"/>
					</v:userDefs>
					<path d="M0 170.62 A9.92126 9.92126 0 0 1 19.84 170.62 A9.92126 9.92126 0 1 1 0 170.62 Z" class="st13"/>
				</g>
				<g id="shape141-56" v:mID="141" v:groupContext="shape" transform="translate(42.5197,-7.29537E-06)">
					<title>椭圆形.59</title>
					<v:userDefs>
						<v:ud v:nameU="visVersion" v:val="VT0(15):26"/>
					</v:userDefs>
					<path d="M0 170.62 A9.92126 9.92126 0 0 1 19.84 170.62 A9.92126 9.92126 0 1 1 0 170.62 Z" class="st14"/>
				</g>
			</g>
			<g id="shape117-58" v:mID="117" v:groupContext="shape" v:layerMember="0" transform="translate(103.465,-96.378)">
				<title>动态连接线.117</title>
				<path d="M0 180.54 L-18.43 257.08" class="st15"/>
			</g>
			<g id="group105-64" transform="translate(89.2913,-99.2126)" v:mID="105" v:groupContext="group">
				<title>工作表.105</title>
				<g id="shape96-65" v:mID="96" v:groupContext="shape" transform="translate(42.5197,0)">
					<title>正方形.4</title>
					<desc>5</desc>
					<v:userDefs>
						<v:ud v:nameU="visVersion" v:val="VT0(15):26"/>
					</v:userDefs>
					<v:textBlock v:margins="rect(4,4,4,4)" v:tabSpace="42.5197"/>
					<v:textRect cx="7.08661" cy="173.457" width="14.18" height="14.1732"/>
					<rect x="0" y="166.37" width="14.1732" height="14.1732" class="st3"/>
					<text x="5.59" y="175.26" class="st4" v:langID="2052"><v:paragraph v:horizAlign="1"/><v:tabList/>5</text>				</g>
				<g id="shape97-68" v:mID="97" v:groupContext="shape" transform="translate(56.6929,0)">
					<title>正方形.7</title>
					<desc>1</desc>
					<v:userDefs>
						<v:ud v:nameU="visVersion" v:val="VT0(15):26"/>
					</v:userDefs>
					<v:textBlock v:margins="rect(4,4,4,4)" v:tabSpace="42.5197"/>
					<v:textRect cx="7.08661" cy="173.457" width="14.18" height="14.1732"/>
					<rect x="0" y="166.37" width="14.1732" height="14.1732" class="st3"/>
					<text x="5.59" y="175.26" class="st4" v:langID="2052"><v:paragraph v:horizAlign="1"/><v:tabList/>1</text>				</g>
				<g id="shape102-71" v:mID="102" v:groupContext="shape" transform="translate(5.19584E-14,-1.43191E-07)">
					<title>正方形.102</title>
					<desc>3</desc>
					<v:userDefs>
						<v:ud v:nameU="visVersion" v:val="VT0(15):26"/>
					</v:userDefs>
					<v:textBlock v:margins="rect(4,4,4,4)" v:tabSpace="42.5197"/>
					<v:textRect cx="7.08661" cy="173.457" width="14.18" height="14.1732"/>
					<rect x="0" y="166.37" width="14.1732" height="14.1732" class="st3"/>
					<text x="5.59" y="175.26" class="st4" v:langID="2052"><v:paragraph v:horizAlign="1"/><v:tabList/>3</text>				</g>
				<g id="shape103-74" v:mID="103" v:groupContext="shape" transform="translate(14.1732,-1.43191E-07)">
					<title>正方形.103</title>
					<desc>7</desc>
					<v:userDefs>
						<v:ud v:nameU="visVersion" v:val="VT0(15):26"/>
					</v:userDefs>
					<v:textBlock v:margins="rect(4,4,4,4)" v:tabSpace="42.5197"/>
					<v:textRect cx="7.08661" cy="173.457" width="14.18" height="14.1732"/>
					<rect x="0" y="166.37" width="14.1732" height="14.1732" class="st3"/>
					<text x="5.59" y="175.26" class="st4" v:langID="2052"><v:paragraph v:horizAlign="1"/><v:tabList/>7</text>				</g>
				<g id="shape104-77" v:mID="104" v:groupContext="shape" transform="translate(28.3465,-1.43191E-07)">
					<title>正方形.104</title>
					<desc>2</desc>
					<v:userDefs>
						<v:ud v:nameU="visVersion" v:val="VT0(15):26"/>
					</v:userDefs>
					<v:textBlock v:margins="rect(4,4,4,4)" v:tabSpace="42.5197"/>
					<v:textRect cx="7.08661" cy="173.457" width="14.18" height="14.1732"/>
					<rect x="0" y="166.37" width="14.1732" height="14.1732" class="st3"/>
					<text x="5.59" y="175.26" class="st4" v:langID="2052"><v:paragraph v:horizAlign="1"/><v:tabList/>2</text>				</g>
			</g>
			<g id="group110-80" transform="translate(86.4567,-96.378)" v:mID="110" v:groupContext="group">
				<title>工作表.110</title>
				<g id="shape98-81" v:mID="98" v:groupContext="shape" transform="translate(-2.9976E-14,-1.13082E-06)">
					<title>椭圆形</title>
					<v:userDefs>
						<v:ud v:nameU="visVersion" v:val="VT0(15):26"/>
					</v:userDefs>
					<path d="M0 170.62 A17.0079 9.92126 0 0 1 34.02 170.62 A17.0079 9.92126 0 0 1 0 170.62 Z" class="st17"/>
				</g>
				<g id="shape99-83" v:mID="99" v:groupContext="shape" transform="translate(14.1732,-1.13082E-06)">
					<title>椭圆形.33</title>
					<v:userDefs>
						<v:ud v:nameU="visVersion" v:val="VT0(15):26"/>
					</v:userDefs>
					<path d="M0 170.62 A17.0079 9.92126 0 0 1 34.02 170.62 A17.0079 9.92126 0 0 1 0 170.62 Z" class="st18"/>
				</g>
				<g id="shape100-85" v:mID="100" v:groupContext="shape" transform="translate(28.3465,2.84217E-14)">
					<title>椭圆形.34</title>
					<v:userDefs>
						<v:ud v:nameU="visVersion" v:val="VT0(15):26"/>
					</v:userDefs>
					<path d="M0 170.62 A17.0079 9.92126 0 0 1 34.02 170.62 A17.0079 9.92126 0 0 1 0 170.62 Z" class="st19"/>
				</g>
				<g id="shape101-87" v:mID="101" v:groupContext="shape" transform="translate(42.5197,-1.13082E-06)">
					<title>椭圆形.35</title>
					<v:userDefs>
						<v:ud v:nameU="visVersion" v:val="VT0(15):26"/>
					</v:userDefs>
					<path d="M0 170.62 A17.0079 9.92126 0 0 1 34.02 170.62 A17.0079 9.92126 0 0 1 0 170.62 Z" class="st20"/>
				</g>
			</g>
			<g id="shape5-89" v:mID="5" v:groupContext="shape" transform="translate(3.19744E-14,-116.22)">
				<title>工作表.5</title>
				<desc>输入的维度为(1,2,5) 卷积核的维度为(2,2,2) 输出的维度为(1,2,4)</desc>
				<v:textBlock v:margins="rect(4,4,4,4)" v:tabSpace="42.5197"/>
				<v:textRect cx="56.6929" cy="159.283" width="113.39" height="42.5197"/>
				<rect x="0" y="138.023" width="113.386" height="42.5197" class="st21"/>
				<text x="4" y="153.88" class="st4" v:langID="2052"><v:paragraph/><v:tabList/>输入的维度为(1,2,5)<v:newlineChar/><tspan
							x="4" dy="1.2em" class="st22">卷积核的维度为</tspan>(<tspan class="st23">2</tspan>,2,2)<v:newlineChar/><tspan
							x="4" dy="1.2em" class="st22">输出的维度为</tspan>(1,<tspan class="st23">2</tspan>,4)</text>			</g>
			<g id="shape9-96" v:mID="9" v:groupContext="shape" transform="translate(3.27738E-13,-87.874)">
				<title>工作表.9</title>
				<desc>Input</desc>
				<v:textBlock v:margins="rect(4,4,4,4)" v:tabSpace="42.5197"/>
				<v:textRect cx="28.3465" cy="173.457" width="56.7" height="14.1732"/>
				<rect x="0" y="166.37" width="56.6929" height="14.1732" class="st21"/>
				<text x="20.85" y="175.26" class="st4" v:langID="2052"><v:paragraph v:horizAlign="1"/><v:tabList/>Input</text>			</g>
			<g id="shape10-99" v:mID="10" v:groupContext="shape" transform="translate(3.27738E-13,-45.3543)">
				<title>工作表.10</title>
				<desc>Kernel</desc>
				<v:textBlock v:margins="rect(4,4,4,4)" v:tabSpace="42.5197"/>
				<v:textRect cx="28.3465" cy="173.457" width="56.7" height="14.1732"/>
				<rect x="0" y="166.37" width="56.6929" height="14.1732" class="st21"/>
				<text x="19.35" y="175.26" class="st4" v:langID="2052"><v:paragraph v:horizAlign="1"/><v:tabList/>Kernel</text>			</g>
			<g id="shape11-102" v:mID="11" v:groupContext="shape" transform="translate(6.6899E-07,-2.83465)">
				<title>工作表.11</title>
				<desc>Output</desc>
				<v:textBlock v:margins="rect(4,4,4,4)" v:tabSpace="42.5197"/>
				<v:textRect cx="28.3465" cy="173.457" width="56.7" height="14.1732"/>
				<rect x="0" y="166.37" width="56.6929" height="14.1732" class="st21"/>
				<text x="19.35" y="175.26" class="st4" v:langID="2052"><v:paragraph v:horizAlign="1"/><v:tabList/>Output</text>			</g>
			<g id="shape60-105" v:mID="60" v:groupContext="shape" v:layerMember="0" transform="translate(95.6693,-85.0394)">
				<title>动态连接线</title>
				<path d="M-3.54 180.54 L-10.63 245.74" class="st24"/>
			</g>
			<g id="group79-111" transform="translate(75.1181,-2.84217E-14)" v:mID="79" v:groupContext="group">
				<title>工作表.79</title>
				<g id="shape15-112" v:mID="15" v:groupContext="shape" transform="translate(2.83465,-2.83465)">
					<title>正方形.15</title>
					<desc>37</desc>
					<v:userDefs>
						<v:ud v:nameU="visVersion" v:val="VT0(15):26"/>
					</v:userDefs>
					<v:textBlock v:margins="rect(4,4,4,4)" v:tabSpace="42.5197"/>
					<v:textRect cx="7.08661" cy="173.457" width="14.18" height="14.1732"/>
					<rect x="0" y="166.37" width="14.1732" height="14.1732" class="st8"/>
					<text x="4.09" y="175.26" class="st4" v:langID="2052"><v:paragraph v:horizAlign="1"/><v:tabList/>37</text>				</g>
				<g id="shape16-115" v:mID="16" v:groupContext="shape" transform="translate(17.0079,-2.83465)">
					<title>正方形.16</title>
					<desc>39</desc>
					<v:userDefs>
						<v:ud v:nameU="visVersion" v:val="VT0(15):26"/>
					</v:userDefs>
					<v:textBlock v:margins="rect(4,4,4,4)" v:tabSpace="42.5197"/>
					<v:textRect cx="7.08661" cy="173.457" width="14.18" height="14.1732"/>
					<rect x="0" y="166.37" width="14.1732" height="14.1732" class="st8"/>
					<text x="4.09" y="175.26" class="st4" v:langID="2052"><v:paragraph v:horizAlign="1"/><v:tabList/>39</text>				</g>
				<g id="shape17-118" v:mID="17" v:groupContext="shape" transform="translate(31.1811,-2.83465)">
					<title>正方形.17</title>
					<desc>42</desc>
					<v:userDefs>
						<v:ud v:nameU="visVersion" v:val="VT0(15):26"/>
					</v:userDefs>
					<v:textBlock v:margins="rect(4,4,4,4)" v:tabSpace="42.5197"/>
					<v:textRect cx="7.08661" cy="173.457" width="14.18" height="14.1732"/>
					<rect x="0" y="166.37" width="14.1732" height="14.1732" class="st8"/>
					<text x="4.09" y="175.26" class="st4" v:langID="2052"><v:paragraph v:horizAlign="1"/><v:tabList/>42</text>				</g>
				<g id="shape18-121" v:mID="18" v:groupContext="shape" transform="translate(45.3543,-2.83465)">
					<title>正方形.18</title>
					<desc>24</desc>
					<v:userDefs>
						<v:ud v:nameU="visVersion" v:val="VT0(15):26"/>
					</v:userDefs>
					<v:textBlock v:margins="rect(4,4,4,4)" v:tabSpace="42.5197"/>
					<v:textRect cx="7.08661" cy="173.457" width="14.18" height="14.1732"/>
					<rect x="0" y="166.37" width="14.1732" height="14.1732" class="st8"/>
					<text x="4.09" y="175.26" class="st4" v:langID="2052"><v:paragraph v:horizAlign="1"/><v:tabList/>24</text>				</g>
				<g id="shape36-124" v:mID="36" v:groupContext="shape">
					<title>椭圆形.36</title>
					<v:userDefs>
						<v:ud v:nameU="visVersion" v:val="VT0(15):26"/>
					</v:userDefs>
					<path d="M0 170.62 A9.92126 9.92126 0 0 1 19.84 170.62 A9.92126 9.92126 0 1 1 0 170.62 Z" class="st26"/>
				</g>
				<g id="shape57-126" v:mID="57" v:groupContext="shape" transform="translate(14.1732,8.52651E-14)">
					<title>椭圆形.57</title>
					<v:userDefs>
						<v:ud v:nameU="visVersion" v:val="VT0(15):26"/>
					</v:userDefs>
					<path d="M0 170.62 A9.92126 9.92126 0 0 1 19.84 170.62 A9.92126 9.92126 0 1 1 0 170.62 Z" class="st27"/>
				</g>
				<g id="shape58-128" v:mID="58" v:groupContext="shape" transform="translate(28.3465,-7.29537E-06)">
					<title>椭圆形.58</title>
					<v:userDefs>
						<v:ud v:nameU="visVersion" v:val="VT0(15):26"/>
					</v:userDefs>
					<path d="M0 170.62 A9.92126 9.92126 0 0 1 19.84 170.62 A9.92126 9.92126 0 1 1 0 170.62 Z" class="st28"/>
				</g>
				<g id="shape59-130" v:mID="59" v:groupContext="shape" transform="translate(42.5197,-7.29537E-06)">
					<title>椭圆形.59</title>
					<v:userDefs>
						<v:ud v:nameU="visVersion" v:val="VT0(15):26"/>
					</v:userDefs>
					<path d="M0 170.62 A9.92126 9.92126 0 0 1 19.84 170.62 A9.92126 9.92126 0 1 1 0 170.62 Z" class="st29"/>
				</g>
			</g>
			<g id="group109-132" transform="translate(75.1181,-85.0394)" v:mID="109" v:groupContext="group">
				<title>工作表.109</title>
				<g id="shape1-133" v:mID="1" v:groupContext="shape" transform="translate(2.83465,-2.83465)">
					<title>正方形</title>
					<desc>5</desc>
					<v:userDefs>
						<v:ud v:nameU="visVersion" v:val="VT0(15):26"/>
					</v:userDefs>
					<v:textBlock v:margins="rect(4,4,4,4)" v:tabSpace="42.5197"/>
					<v:textRect cx="7.08661" cy="173.457" width="14.18" height="14.1732"/>
					<rect x="0" y="166.37" width="14.1732" height="14.1732" class="st8"/>
					<text x="5.59" y="175.26" class="st4" v:langID="2052"><v:paragraph v:horizAlign="1"/><v:tabList/>5</text>				</g>
				<g id="shape2-136" v:mID="2" v:groupContext="shape" transform="translate(17.0079,-2.83465)">
					<title>正方形.2</title>
					<desc>3</desc>
					<v:userDefs>
						<v:ud v:nameU="visVersion" v:val="VT0(15):26"/>
					</v:userDefs>
					<v:textBlock v:margins="rect(4,4,4,4)" v:tabSpace="42.5197"/>
					<v:textRect cx="7.08661" cy="173.457" width="14.18" height="14.1732"/>
					<rect x="0" y="166.37" width="14.1732" height="14.1732" class="st8"/>
					<text x="5.59" y="175.26" class="st4" v:langID="2052"><v:paragraph v:horizAlign="1"/><v:tabList/>3</text>				</g>
				<g id="shape3-139" v:mID="3" v:groupContext="shape" transform="translate(31.1811,-2.83465)">
					<title>正方形.3</title>
					<desc>6</desc>
					<v:userDefs>
						<v:ud v:nameU="visVersion" v:val="VT0(15):26"/>
					</v:userDefs>
					<v:textBlock v:margins="rect(4,4,4,4)" v:tabSpace="42.5197"/>
					<v:textRect cx="7.08661" cy="173.457" width="14.18" height="14.1732"/>
					<rect x="0" y="166.37" width="14.1732" height="14.1732" class="st8"/>
					<text x="5.59" y="175.26" class="st4" v:langID="2052"><v:paragraph v:horizAlign="1"/><v:tabList/>6</text>				</g>
				<g id="shape4-142" v:mID="4" v:groupContext="shape" transform="translate(45.3543,-2.83465)">
					<title>正方形.4</title>
					<desc>1</desc>
					<v:userDefs>
						<v:ud v:nameU="visVersion" v:val="VT0(15):26"/>
					</v:userDefs>
					<v:textBlock v:margins="rect(4,4,4,4)" v:tabSpace="42.5197"/>
					<v:textRect cx="7.08661" cy="173.457" width="14.18" height="14.1732"/>
					<rect x="0" y="166.37" width="14.1732" height="14.1732" class="st8"/>
					<text x="5.59" y="175.26" class="st4" v:langID="2052"><v:paragraph v:horizAlign="1"/><v:tabList/>1</text>				</g>
				<g id="shape7-145" v:mID="7" v:groupContext="shape" transform="translate(59.5276,-2.83465)">
					<title>正方形.7</title>
					<desc>8</desc>
					<v:userDefs>
						<v:ud v:nameU="visVersion" v:val="VT0(15):26"/>
					</v:userDefs>
					<v:textBlock v:margins="rect(4,4,4,4)" v:tabSpace="42.5197"/>
					<v:textRect cx="7.08661" cy="173.457" width="14.18" height="14.1732"/>
					<rect x="0" y="166.37" width="14.1732" height="14.1732" class="st8"/>
					<text x="5.59" y="175.26" class="st4" v:langID="2052"><v:paragraph v:horizAlign="1"/><v:tabList/>8</text>				</g>
				<g id="shape32-148" v:mID="32" v:groupContext="shape" transform="translate(-9.39249E-14,-1.13082E-06)">
					<title>椭圆形.32</title>
					<v:userDefs>
						<v:ud v:nameU="visVersion" v:val="VT0(15):26"/>
					</v:userDefs>
					<path d="M0 170.62 A17.0079 9.92126 0 0 1 34.02 170.62 A17.0079 9.92126 0 0 1 0 170.62 Z" class="st26"/>
				</g>
				<g id="shape33-150" v:mID="33" v:groupContext="shape" transform="translate(14.1732,-1.13082E-06)">
					<title>椭圆形.33</title>
					<v:userDefs>
						<v:ud v:nameU="visVersion" v:val="VT0(15):26"/>
					</v:userDefs>
					<path d="M0 170.62 A17.0079 9.92126 0 0 1 34.02 170.62 A17.0079 9.92126 0 0 1 0 170.62 Z" class="st27"/>
				</g>
				<g id="shape34-152" v:mID="34" v:groupContext="shape" transform="translate(28.3465,2.84217E-14)">
					<title>椭圆形.34</title>
					<v:userDefs>
						<v:ud v:nameU="visVersion" v:val="VT0(15):26"/>
					</v:userDefs>
					<path d="M0 170.62 A17.0079 9.92126 0 0 1 34.02 170.62 A17.0079 9.92126 0 0 1 0 170.62 Z" class="st28"/>
				</g>
				<g id="shape35-154" v:mID="35" v:groupContext="shape" transform="translate(42.5197,-1.13082E-06)">
					<title>椭圆形.35</title>
					<v:userDefs>
						<v:ud v:nameU="visVersion" v:val="VT0(15):26"/>
					</v:userDefs>
					<path d="M0 170.62 A17.0079 9.92126 0 0 1 34.02 170.62 A17.0079 9.92126 0 0 1 0 170.62 Z" class="st29"/>
				</g>
			</g>
			<g id="group125-156" transform="translate(157.323,-76.5354)" v:mID="125" v:groupContext="group">
				<title>工作表.125</title>
				<g id="shape126-157" v:mID="126" v:groupContext="shape" transform="translate(2.83465,-2.83465)">
					<title>正方形.112</title>
					<desc>2</desc>
					<v:userDefs>
						<v:ud v:nameU="visVersion" v:val="VT0(15):26"/>
					</v:userDefs>
					<v:textBlock v:margins="rect(4,4,4,4)" v:tabSpace="42.5197"/>
					<v:textRect cx="7.08661" cy="173.457" width="14.18" height="14.1732"/>
					<rect x="0" y="166.37" width="14.1732" height="14.1732" class="st3"/>
					<text x="5.59" y="175.26" class="st4" v:langID="2052"><v:paragraph v:horizAlign="1"/><v:tabList/>2</text>				</g>
				<g id="shape127-160" v:mID="127" v:groupContext="shape" transform="translate(17.0079,-2.83465)">
					<title>正方形.113</title>
					<desc>-1</desc>
					<v:userDefs>
						<v:ud v:nameU="visVersion" v:val="VT0(15):26"/>
					</v:userDefs>
					<v:textBlock v:margins="rect(4,4,4,4)" v:tabSpace="42.5197"/>
					<v:textRect cx="7.08661" cy="173.457" width="14.18" height="14.1732"/>
					<rect x="0" y="166.37" width="14.1732" height="14.1732" class="st3"/>
					<text x="4.09" y="175.26" class="st4" v:langID="2052"><v:paragraph v:horizAlign="1"/><v:tabList/>-1</text>				</g>
				<g id="shape128-163" v:mID="128" v:groupContext="shape">
					<title>椭圆形.114</title>
					<v:userDefs>
						<v:ud v:nameU="visVersion" v:val="VT0(15):26"/>
					</v:userDefs>
					<path d="M0 170.62 A17.0079 9.92126 0 0 1 34.02 170.62 A17.0079 9.92126 0 0 1 0 170.62 Z" class="st5"/>
				</g>
			</g>
			<g id="shape142-165" v:mID="142" v:groupContext="shape" v:layerMember="0" transform="translate(87.1654,-85.0394)">
				<title>动态连接线.142</title>
				<path d="M4.96 180.54 L9.21 234.4" class="st6"/>
			</g>
			<g id="shape121-170" v:mID="121" v:groupContext="shape" v:layerMember="0" transform="translate(174.331,-76.5354)">
				<title>动态连接线.121</title>
				<path d="M0 180.54 L-89.29 237.24" class="st15"/>
			</g>
			<g id="group129-175" transform="translate(145.984,-65.1968)" v:mID="129" v:groupContext="group">
				<title>工作表.129</title>
				<g id="shape130-176" v:mID="130" v:groupContext="shape" transform="translate(2.83465,-2.83465)">
					<title>正方形.12</title>
					<desc>7</desc>
					<v:userDefs>
						<v:ud v:nameU="visVersion" v:val="VT0(15):26"/>
					</v:userDefs>
					<v:textBlock v:margins="rect(4,4,4,4)" v:tabSpace="42.5197"/>
					<v:textRect cx="7.08661" cy="173.457" width="14.18" height="14.1732"/>
					<rect x="0" y="166.37" width="14.1732" height="14.1732" class="st8"/>
					<text x="5.59" y="175.26" class="st4" v:langID="2052"><v:paragraph v:horizAlign="1"/><v:tabList/>7</text>				</g>
				<g id="shape131-179" v:mID="131" v:groupContext="shape" transform="translate(17.0079,-2.83465)">
					<title>正方形.13</title>
					<desc>1</desc>
					<v:userDefs>
						<v:ud v:nameU="visVersion" v:val="VT0(15):26"/>
					</v:userDefs>
					<v:textBlock v:margins="rect(4,4,4,4)" v:tabSpace="42.5197"/>
					<v:textRect cx="7.08661" cy="173.457" width="14.18" height="14.1732"/>
					<rect x="0" y="166.37" width="14.1732" height="14.1732" class="st8"/>
					<text x="5.59" y="175.26" class="st4" v:langID="2052"><v:paragraph v:horizAlign="1"/><v:tabList/>1</text>				</g>
				<g id="shape132-182" v:mID="132" v:groupContext="shape">
					<title>椭圆形.64</title>
					<v:userDefs>
						<v:ud v:nameU="visVersion" v:val="VT0(15):26"/>
					</v:userDefs>
					<path d="M0 170.62 A17.0079 9.92126 0 0 1 34.02 170.62 A17.0079 9.92126 0 0 1 0 170.62 Z" class="st9"/>
				</g>
			</g>
			<g id="shape65-184" v:mID="65" v:groupContext="shape" v:layerMember="0" transform="translate(162.992,-65.1968)">
				<title>动态连接线.65</title>
				<path d="M0 180.54 L-77.95 225.9" class="st24"/>
			</g>
			<g id="group162-189" transform="translate(164.866,-102.167)" v:mID="162" v:groupContext="group">
				<title>工作表.162</title>
				<g id="shape156-190" v:mID="156" v:groupContext="shape" v:layerMember="0" transform="translate(12.2991,-40.983)">
					<title>动态连接线.156</title>
					<path d="M7.09 180.54 L7.09 208.89" class="st24"/>
				</g>
				<g id="shape157-195" v:mID="157" v:groupContext="shape" v:layerMember="0" transform="translate(19.3857,-33.8964)">
					<title>动态连接线.157</title>
					<path d="M0 173.46 L28.35 173.46" class="st24"/>
				</g>
				<g id="shape158-200" v:mID="158" v:groupContext="shape" v:layerMember="0" transform="translate(19.3857,-40.983)">
					<title>动态连接线.158</title>
					<path d="M0 180.54 L19.84 160.7" class="st24"/>
				</g>
				<g id="shape159-205" v:mID="159" v:groupContext="shape" transform="translate(5.21245,-28.2271)">
					<title>工作表.159</title>
					<desc>dim=2</desc>
					<v:textBlock v:margins="rect(4,4,4,4)" v:tabSpace="42.5197"/>
					<v:textRect cx="28.3465" cy="173.457" width="56.7" height="14.1732"/>
					<rect x="0" y="166.37" width="56.6929" height="14.1732" class="st21"/>
					<text x="20.85" y="175.26" class="st4" v:langID="2052"><v:paragraph v:horizAlign="1"/><v:tabList/>dim=2</text>				</g>
				<g id="shape160-208" v:mID="160" v:groupContext="shape" transform="translate(-117.641,25.6133) rotate(-45)">
					<title>工作表.160</title>
					<desc>dim=1</desc>
					<v:textBlock v:margins="rect(4,4,4,4)" v:tabSpace="42.5197"/>
					<v:textRect cx="28.3465" cy="173.457" width="56.7" height="14.1732"/>
					<rect x="0" y="166.37" width="56.6929" height="14.1732" class="st21"/>
					<text x="20.85" y="175.26" class="st4" v:langID="2052"><v:paragraph v:horizAlign="1"/><v:tabList/>dim=1</text>				</g>
				<g id="shape161-211" v:mID="161" v:groupContext="shape" transform="translate(-158.323,180.543) rotate(-90)">
					<title>工作表.161</title>
					<desc>dim=0</desc>
					<v:textBlock v:margins="rect(4,4,4,4)" v:tabSpace="42.5197"/>
					<v:textRect cx="28.3465" cy="173.457" width="56.7" height="14.1732"/>
					<rect x="0" y="166.37" width="56.6929" height="14.1732" class="st21"/>
					<text x="20.85" y="175.26" class="st4" v:langID="2052"><v:paragraph v:horizAlign="1"/><v:tabList/>dim=0</text>				</g>
			</g>
		</g>
	</g>
</svg>
