<?xml version="1.0" encoding="UTF-8" standalone="no"?>
<!DOCTYPE svg PUBLIC "-//W3C//DTD SVG 1.1//EN" "http://www.w3.org/Graphics/SVG/1.1/DTD/svg11.dtd">
<!-- 由 Microsoft Visio, SVG Export 生成 PVT_3.SVG 页-1 -->
<svg xmlns="http://www.w3.org/2000/svg" xmlns:xlink="http://www.w3.org/1999/xlink" xmlns:ev="http://www.w3.org/2001/xml-events"
		xmlns:v="http://schemas.microsoft.com/visio/2003/SVGExtensions/" width="4.26119in" height="9.98538in"
		viewBox="0 0 306.806 718.947" xml:space="preserve" color-interpolation-filters="sRGB" class="st15">
	<v:documentProperties v:langID="2052" v:metric="true" v:viewMarkup="false"/>

	<style type="text/css">
	<![CDATA[
		.st1 {fill:#fee599;marker-end:url(#mrkr5-4);stroke:#000000;stroke-width:0.25}
		.st2 {fill:#000000;fill-opacity:1;stroke:#000000;stroke-opacity:1;stroke-width:0.1219512195122}
		.st3 {fill:#000000;font-family:Calibri;font-size:0.833336em}
		.st4 {fill:#ccffcc;marker-end:url(#mrkr5-4);stroke:#000000;stroke-width:0.25}
		.st5 {fill:#ffcccc;marker-end:url(#mrkr5-4);stroke:#000000;stroke-width:0.25}
		.st6 {fill:#ccffff;marker-end:url(#mrkr5-4);stroke:#000000;stroke-width:0.25}
		.st7 {fill:#ccccff;marker-end:url(#mrkr5-4);stroke:#000000;stroke-width:0.25}
		.st8 {fill:#f7cbac;marker-end:url(#mrkr5-4);stroke:#000000;stroke-width:0.25}
		.st9 {fill:#ccecff;marker-end:url(#mrkr5-4);stroke:#000000;stroke-width:0.25}
		.st10 {fill:#ffccff;marker-end:url(#mrkr5-4);stroke:#000000;stroke-width:0.25}
		.st11 {fill:#ffff99;marker-end:url(#mrkr5-4);stroke:#000000;stroke-width:0.25}
		.st12 {marker-end:url(#mrkr5-75);stroke:#000000;stroke-linecap:round;stroke-linejoin:round;stroke-width:0.5}
		.st13 {fill:#000000;fill-opacity:1;stroke:#000000;stroke-opacity:1;stroke-width:0.21739130434783}
		.st14 {fill:none;marker-end:url(#mrkr5-4);stroke:#000000;stroke-dasharray:3.75,2.25;stroke-width:0.25}
		.st15 {fill:none;fill-rule:evenodd;font-size:12px;overflow:visible;stroke-linecap:square;stroke-miterlimit:3}
	]]>
	</style>

	<defs id="Markers">
		<g id="lend5">
			<path d="M 2 1 L 0 0 L 1.98117 -0.993387 C 1.67173 -0.364515 1.67301 0.372641 1.98465 1.00043 " style="stroke:none"/>
		</g>
		<marker id="mrkr5-4" class="st2" v:arrowType="5" v:arrowSize="1" v:setback="14.35" refX="-14.35" orient="auto"
				markerUnits="strokeWidth" overflow="visible">
			<use xlink:href="#lend5" transform="scale(-8.2,-8.2) "/>
		</marker>
		<marker id="mrkr5-75" class="st13" v:arrowType="5" v:arrowSize="1" v:setback="8.05" refX="-8.05" orient="auto"
				markerUnits="strokeWidth" overflow="visible">
			<use xlink:href="#lend5" transform="scale(-4.6,-4.6) "/>
		</marker>
	</defs>
	<g v:mID="0" v:index="1" v:groupContext="foregroundPage">
		<title>页-1</title>
		<v:pageProperties v:drawingScale="0.0393701" v:pageScale="0.0393701" v:drawingUnits="24" v:shadowOffsetX="8.50394"
				v:shadowOffsetY="-8.50394"/>
		<v:layer v:name="连接线" v:index="0"/>
		<g id="shape1-1" v:mID="1" v:groupContext="shape" transform="translate(4.58394,-217.741)">
			<title>矩形</title>
			<desc>Linear</desc>
			<v:userDefs>
				<v:ud v:nameU="visVersion" v:val="VT0(15):26"/>
			</v:userDefs>
			<v:textBlock v:margins="rect(4,4,4,4)" v:tabSpace="42.5197"/>
			<v:textRect cx="42.5197" cy="704.774" width="85.04" height="28.3465"/>
			<rect x="0" y="690.601" width="85.0394" height="28.3465" rx="5.66929" ry="5.66929" class="st1"/>
			<text x="30.02" y="707.77" class="st3" v:langID="2052"><v:paragraph v:horizAlign="1"/><v:tabList/>Linear</text>		</g>
		<g id="shape2-6" v:mID="2" v:groupContext="shape" transform="translate(132.143,-217.741)">
			<title>矩形.2</title>
			<desc>Linear</desc>
			<v:userDefs>
				<v:ud v:nameU="visVersion" v:val="VT0(15):26"/>
			</v:userDefs>
			<v:textBlock v:margins="rect(4,4,4,4)" v:tabSpace="42.5197"/>
			<v:textRect cx="85.0394" cy="704.774" width="170.08" height="28.3465"/>
			<rect x="0" y="690.601" width="170.079" height="28.3465" rx="5.66929" ry="5.66929" class="st1"/>
			<text x="72.54" y="707.77" class="st3" v:langID="2052"><v:paragraph v:horizAlign="1"/><v:tabList/>Linear</text>		</g>
		<g id="shape3-10" v:mID="3" v:groupContext="shape" transform="translate(4.58394,-260.261)">
			<title>矩形.3</title>
			<desc>Reshape&#38;Permute</desc>
			<v:userDefs>
				<v:ud v:nameU="visVersion" v:val="VT0(15):26"/>
			</v:userDefs>
			<v:textBlock v:margins="rect(4,4,4,4)" v:tabSpace="42.5197"/>
			<v:textRect cx="42.5197" cy="704.774" width="85.04" height="28.3465"/>
			<rect x="0" y="690.601" width="85.0394" height="28.3465" rx="5.66929" ry="5.66929" class="st4"/>
			<text x="4.22" y="707.77" class="st3" v:langID="2052"><v:paragraph v:horizAlign="1"/><v:tabList/>Reshape&#38;Permute</text>		</g>
		<g id="shape4-14" v:mID="4" v:groupContext="shape" transform="translate(174.663,-33.4894)">
			<title>矩形.4</title>
			<desc>Permute&#38;Reshape</desc>
			<v:userDefs>
				<v:ud v:nameU="visVersion" v:val="VT0(15):26"/>
			</v:userDefs>
			<v:textBlock v:margins="rect(4,4,4,4)" v:tabSpace="42.5197"/>
			<v:textRect cx="42.5197" cy="704.774" width="85.04" height="28.3465"/>
			<rect x="0" y="690.601" width="85.0394" height="28.3465" rx="5.66929" ry="5.66929" class="st4"/>
			<text x="4.22" y="707.77" class="st3" v:langID="2052"><v:paragraph v:horizAlign="1"/><v:tabList/>Permute&#38;Reshape</text>		</g>
		<g id="shape5-18" v:mID="5" v:groupContext="shape" transform="translate(174.663,-76.0091)">
			<title>矩形.5</title>
			<desc>Conv2d</desc>
			<v:userDefs>
				<v:ud v:nameU="visVersion" v:val="VT0(15):26"/>
			</v:userDefs>
			<v:textBlock v:margins="rect(4,4,4,4)" v:tabSpace="42.5197"/>
			<v:textRect cx="42.5197" cy="704.774" width="85.04" height="28.3465"/>
			<rect x="0" y="690.601" width="85.0394" height="28.3465" rx="5.66929" ry="5.66929" class="st5"/>
			<text x="27.17" y="707.77" class="st3" v:langID="2052"><v:paragraph v:horizAlign="1"/><v:tabList/>Conv2d</text>		</g>
		<g id="shape6-22" v:mID="6" v:groupContext="shape" transform="translate(174.663,-118.529)">
			<title>矩形.6</title>
			<desc>Reshape&#38;Permute</desc>
			<v:userDefs>
				<v:ud v:nameU="visVersion" v:val="VT0(15):26"/>
			</v:userDefs>
			<v:textBlock v:margins="rect(4,4,4,4)" v:tabSpace="42.5197"/>
			<v:textRect cx="42.5197" cy="704.774" width="85.04" height="28.3465"/>
			<rect x="0" y="690.601" width="85.0394" height="28.3465" rx="5.66929" ry="5.66929" class="st4"/>
			<text x="4.22" y="707.77" class="st3" v:langID="2052"><v:paragraph v:horizAlign="1"/><v:tabList/>Reshape&#38;Permute</text>		</g>
		<g id="shape7-26" v:mID="7" v:groupContext="shape" transform="translate(174.663,-161.048)">
			<title>矩形.7</title>
			<desc>Norm</desc>
			<v:userDefs>
				<v:ud v:nameU="visVersion" v:val="VT0(15):26"/>
			</v:userDefs>
			<v:textBlock v:margins="rect(4,4,4,4)" v:tabSpace="42.5197"/>
			<v:textRect cx="42.5197" cy="704.774" width="85.04" height="28.3465"/>
			<rect x="0" y="690.601" width="85.0394" height="28.3465" rx="5.66929" ry="5.66929" class="st6"/>
			<text x="30.92" y="707.77" class="st3" v:langID="2052"><v:paragraph v:horizAlign="1"/><v:tabList/>Norm</text>		</g>
		<g id="shape8-30" v:mID="8" v:groupContext="shape" transform="translate(174.663,-260.261)">
			<title>矩形.8</title>
			<desc>Reshape&#38;Permute</desc>
			<v:userDefs>
				<v:ud v:nameU="visVersion" v:val="VT0(15):26"/>
			</v:userDefs>
			<v:textBlock v:margins="rect(4,4,4,4)" v:tabSpace="42.5197"/>
			<v:textRect cx="42.5197" cy="704.774" width="85.04" height="28.3465"/>
			<rect x="0" y="690.601" width="85.0394" height="28.3465" rx="5.66929" ry="5.66929" class="st4"/>
			<text x="4.22" y="707.77" class="st3" v:langID="2052"><v:paragraph v:horizAlign="1"/><v:tabList/>Reshape&#38;Permute</text>		</g>
		<g id="shape9-34" v:mID="9" v:groupContext="shape" transform="translate(89.6233,-487.033)">
			<title>矩形.9</title>
			<desc>Dropout</desc>
			<v:userDefs>
				<v:ud v:nameU="visVersion" v:val="VT0(15):26"/>
			</v:userDefs>
			<v:textBlock v:margins="rect(4,4,4,4)" v:tabSpace="42.5197"/>
			<v:textRect cx="42.5197" cy="704.774" width="85.04" height="28.3465"/>
			<rect x="0" y="690.601" width="85.0394" height="28.3465" rx="5.66929" ry="5.66929" class="st7"/>
			<text x="25.5" y="707.77" class="st3" v:langID="2052"><v:paragraph v:horizAlign="1"/><v:tabList/>Dropout</text>		</g>
		<g id="shape10-38" v:mID="10" v:groupContext="shape" transform="translate(174.663,-302.781)">
			<title>矩形.10</title>
			<desc>Chunk</desc>
			<v:userDefs>
				<v:ud v:nameU="visVersion" v:val="VT0(15):26"/>
			</v:userDefs>
			<v:textBlock v:margins="rect(4,4,4,4)" v:tabSpace="42.5197"/>
			<v:textRect cx="42.5197" cy="704.774" width="85.04" height="28.3465"/>
			<rect x="0" y="690.601" width="85.0394" height="28.3465" rx="5.66929" ry="5.66929" class="st8"/>
			<text x="29.7" y="707.77" class="st3" v:langID="2052"><v:paragraph v:horizAlign="1"/><v:tabList/>Chunk</text>		</g>
		<g id="shape11-42" v:mID="11" v:groupContext="shape" transform="translate(132.143,-628.765)">
			<title>矩形.11</title>
			<desc>Linear</desc>
			<v:userDefs>
				<v:ud v:nameU="visVersion" v:val="VT0(15):26"/>
			</v:userDefs>
			<v:textBlock v:margins="rect(4,4,4,4)" v:tabSpace="42.5197"/>
			<v:textRect cx="42.5197" cy="704.774" width="85.04" height="28.3465"/>
			<rect x="0" y="690.601" width="85.0394" height="28.3465" rx="5.66929" ry="5.66929" class="st1"/>
			<text x="30.02" y="707.77" class="st3" v:langID="2052"><v:paragraph v:horizAlign="1"/><v:tabList/>Linear</text>		</g>
		<g id="shape12-46" v:mID="12" v:groupContext="shape" transform="translate(132.143,-671.285)">
			<title>矩形.12</title>
			<desc>Dropout</desc>
			<v:userDefs>
				<v:ud v:nameU="visVersion" v:val="VT0(15):26"/>
			</v:userDefs>
			<v:textBlock v:margins="rect(4,4,4,4)" v:tabSpace="42.5197"/>
			<v:textRect cx="42.5197" cy="704.774" width="85.04" height="28.3465"/>
			<rect x="0" y="690.601" width="85.0394" height="28.3465" rx="5.66929" ry="5.66929" class="st7"/>
			<text x="25.5" y="707.77" class="st3" v:langID="2052"><v:paragraph v:horizAlign="1"/><v:tabList/>Dropout</text>		</g>
		<g id="shape19-50" v:mID="19" v:groupContext="shape" transform="translate(89.6233,-359.474)">
			<title>矩形.19</title>
			<desc>Matmul</desc>
			<v:userDefs>
				<v:ud v:nameU="visVersion" v:val="VT0(15):26"/>
			</v:userDefs>
			<v:textBlock v:margins="rect(4,4,4,4)" v:tabSpace="42.5197"/>
			<v:textRect cx="42.5197" cy="704.774" width="85.04" height="28.3465"/>
			<rect x="0" y="690.601" width="85.0394" height="28.3465" rx="5.66929" ry="5.66929" class="st9"/>
			<text x="26.41" y="707.77" class="st3" v:langID="2052"><v:paragraph v:horizAlign="1"/><v:tabList/>Matmul</text>		</g>
		<g id="shape20-54" v:mID="20" v:groupContext="shape" transform="translate(89.6233,-444.513)">
			<title>矩形.20</title>
			<desc>Softmax</desc>
			<v:userDefs>
				<v:ud v:nameU="visVersion" v:val="VT0(15):26"/>
			</v:userDefs>
			<v:textBlock v:margins="rect(4,4,4,4)" v:tabSpace="42.5197"/>
			<v:textRect cx="42.5197" cy="704.774" width="85.04" height="28.3465"/>
			<rect x="0" y="690.601" width="85.0394" height="28.3465" rx="5.66929" ry="5.66929" class="st10"/>
			<text x="25.83" y="707.77" class="st3" v:langID="2052"><v:paragraph v:horizAlign="1"/><v:tabList/>Softmax</text>		</g>
		<g id="shape21-58" v:mID="21" v:groupContext="shape" transform="translate(132.143,-543.726)">
			<title>矩形.21</title>
			<desc>Matmul</desc>
			<v:userDefs>
				<v:ud v:nameU="visVersion" v:val="VT0(15):26"/>
			</v:userDefs>
			<v:textBlock v:margins="rect(4,4,4,4)" v:tabSpace="42.5197"/>
			<v:textRect cx="42.5197" cy="704.774" width="85.04" height="28.3465"/>
			<rect x="0" y="690.601" width="85.0394" height="28.3465" rx="5.66929" ry="5.66929" class="st9"/>
			<text x="26.41" y="707.77" class="st3" v:langID="2052"><v:paragraph v:horizAlign="1"/><v:tabList/>Matmul</text>		</g>
		<g id="shape22-62" v:mID="22" v:groupContext="shape" transform="translate(132.143,-586.245)">
			<title>矩形.22</title>
			<desc>Reshape&#38;Permute</desc>
			<v:userDefs>
				<v:ud v:nameU="visVersion" v:val="VT0(15):26"/>
			</v:userDefs>
			<v:textBlock v:margins="rect(4,4,4,4)" v:tabSpace="42.5197"/>
			<v:textRect cx="42.5197" cy="704.774" width="85.04" height="28.3465"/>
			<rect x="0" y="690.601" width="85.0394" height="28.3465" rx="5.66929" ry="5.66929" class="st4"/>
			<text x="4.22" y="707.77" class="st3" v:langID="2052"><v:paragraph v:horizAlign="1"/><v:tabList/>Reshape&#38;Permute</text>		</g>
		<g id="shape39-66" v:mID="39" v:groupContext="shape" transform="translate(89.6233,-401.993)">
			<title>矩形.39</title>
			<desc>Scale</desc>
			<v:userDefs>
				<v:ud v:nameU="visVersion" v:val="VT0(15):26"/>
			</v:userDefs>
			<v:textBlock v:margins="rect(4,4,4,4)" v:tabSpace="42.5197"/>
			<v:textRect cx="42.5197" cy="704.774" width="85.04" height="28.3465"/>
			<rect x="0" y="690.601" width="85.0394" height="28.3465" rx="5.66929" ry="5.66929" class="st11"/>
			<text x="32.08" y="707.77" class="st3" v:langID="2052"><v:paragraph v:horizAlign="1"/><v:tabList/>Scale</text>		</g>
		<g id="shape40-70" v:mID="40" v:groupContext="shape" v:layerMember="0" transform="translate(40.017,-246.088)">
			<title>动态连接线</title>
			<path d="M7.09 718.95 L7.09 708.8" class="st12"/>
		</g>
		<g id="shape41-76" v:mID="41" v:groupContext="shape" v:layerMember="0" transform="translate(210.096,-189.395)">
			<title>动态连接线.41</title>
			<path d="M7.09 718.95 L7.09 694.63" class="st12"/>
		</g>
		<g id="shape42-81" v:mID="42" v:groupContext="shape" v:layerMember="0" transform="translate(210.096,-146.875)">
			<title>动态连接线.42</title>
			<path d="M7.09 718.95 L7.09 708.8" class="st12"/>
		</g>
		<g id="shape43-86" v:mID="43" v:groupContext="shape" v:layerMember="0" transform="translate(210.096,-104.356)">
			<title>动态连接线.43</title>
			<path d="M7.09 718.95 L7.09 708.8" class="st12"/>
		</g>
		<g id="shape44-91" v:mID="44" v:groupContext="shape" v:layerMember="0" transform="translate(210.096,-61.8359)">
			<title>动态连接线.44</title>
			<path d="M7.09 718.95 L7.09 708.8" class="st12"/>
		</g>
		<g id="shape45-96" v:mID="45" v:groupContext="shape" v:layerMember="0" transform="translate(210.096,-246.088)">
			<title>动态连接线.45</title>
			<path d="M7.09 718.95 L7.09 708.8" class="st12"/>
		</g>
		<g id="shape46-101" v:mID="46" v:groupContext="shape" v:layerMember="0" transform="translate(210.096,-288.608)">
			<title>动态连接线.46</title>
			<path d="M7.09 718.95 L7.09 708.8" class="st12"/>
		</g>
		<g id="shape47-106" v:mID="47" v:groupContext="shape" v:layerMember="0" transform="translate(203.009,-331.127)">
			<title>动态连接线.47</title>
			<path d="M0 718.95 L0 710.44 A5.66929 5.66929 -180 0 0 -5.67 704.77 L-65.2 704.77 A5.66929 5.66929 0 0 1 -70.87 699.1
						 L-70.87 694.63" class="st12"/>
		</g>
		<g id="shape48-111" v:mID="48" v:groupContext="shape" v:layerMember="0" transform="translate(47.1036,-288.608)">
			<title>动态连接线.48</title>
			<path d="M0 718.95 L0 667.92 A5.66929 5.66929 0 0 1 5.67 662.25 L79.37 662.25 A5.66929 5.66929 -180 0 0 85.04 656.59
						 L85.04 652.11" class="st12"/>
		</g>
		<g id="shape49-116" v:mID="49" v:groupContext="shape" v:layerMember="0" transform="translate(125.056,-387.82)">
			<title>动态连接线.49</title>
			<path d="M7.09 718.95 L7.09 708.8" class="st12"/>
		</g>
		<g id="shape50-121" v:mID="50" v:groupContext="shape" v:layerMember="0" transform="translate(125.056,-430.34)">
			<title>动态连接线.50</title>
			<path d="M7.09 718.95 L7.09 708.8" class="st12"/>
		</g>
		<g id="shape51-126" v:mID="51" v:groupContext="shape" v:layerMember="0" transform="translate(125.056,-472.859)">
			<title>动态连接线.51</title>
			<path d="M7.09 718.95 L7.09 708.8" class="st12"/>
		</g>
		<g id="shape53-131" v:mID="53" v:groupContext="shape" v:layerMember="0" transform="translate(167.576,-572.072)">
			<title>动态连接线.53</title>
			<path d="M7.09 718.95 L7.09 708.8" class="st12"/>
		</g>
		<g id="shape54-136" v:mID="54" v:groupContext="shape" v:layerMember="0" transform="translate(167.576,-614.592)">
			<title>动态连接线.54</title>
			<path d="M7.09 718.95 L7.09 708.8" class="st12"/>
		</g>
		<g id="shape55-141" v:mID="55" v:groupContext="shape" v:layerMember="0" transform="translate(231.356,-331.127)">
			<title>动态连接线.55</title>
			<path d="M0 718.95 L0 526.19 A5.66929 5.66929 -180 0 0 -5.67 520.52 L-36.85 520.52 A5.66929 5.66929 0 0 1 -42.52 514.85
						 L-42.52 510.37" class="st12"/>
		</g>
		<g id="shape56-146" v:mID="56" v:groupContext="shape" v:layerMember="0" transform="translate(132.143,-515.379)">
			<title>动态连接线.56</title>
			<path d="M0 718.95 L0 710.44 A5.66929 5.66929 0 0 1 5.67 704.77 L22.68 704.77 A5.66929 5.66929 -180 0 0 28.35 699.1 L28.35
						 694.63" class="st12"/>
		</g>
		<g id="shape57-151" v:mID="57" v:groupContext="shape" v:layerMember="0" transform="translate(132.143,-5.14296)">
			<title>动态连接线.57</title>
			<path d="M0 718.95 L0 710.48 A5.66929 5.66929 -180 0 0 -5.67 704.81 L-79.37 704.81 A5.66929 5.66929 0 0 1 -85.04 699.15
						 L-85.04 510.37" class="st12"/>
		</g>
		<g id="shape58-156" v:mID="58" v:groupContext="shape" v:layerMember="0" transform="translate(132.143,-5.14296)">
			<title>动态连接线.58</title>
			<path d="M0 718.95 L0 710.44 A5.66929 5.66929 0 0 1 5.67 704.77 L79.37 704.77 A5.66929 5.66929 -180 0 0 85.04 699.1 L85.04
						 694.63" class="st12"/>
		</g>
		<g id="shape59-161" v:mID="59" v:groupContext="shape" v:layerMember="0" transform="translate(167.576,-657.111)">
			<title>动态连接线.59</title>
			<path d="M7.09 718.95 L7.09 708.8" class="st12"/>
		</g>
		<g id="shape60-166" v:mID="60" v:groupContext="shape" v:layerMember="0" transform="translate(167.576,-699.631)">
			<title>动态连接线.60</title>
			<path d="M7.09 718.95 L7.09 708.8" class="st12"/>
		</g>
		<g id="shape61-171" v:mID="61" v:groupContext="shape" transform="translate(168.993,-27.8201)">
			<title>矩形.61</title>
			<v:userDefs>
				<v:ud v:nameU="visVersion" v:val="VT0(15):26"/>
			</v:userDefs>
			<rect x="0" y="551.703" width="96.378" height="167.244" rx="5.66929" ry="5.66929" class="st14"/>
		</g>
	</g>
</svg>
