<?xml version="1.0" encoding="UTF-8" standalone="no"?>
<!DOCTYPE svg PUBLIC "-//W3C//DTD SVG 1.1//EN" "http://www.w3.org/Graphics/SVG/1.1/DTD/svg11.dtd">
<!-- 由 Microsoft Visio, SVG Export 生成 PVT2.SVG 页-1 -->
<svg xmlns="http://www.w3.org/2000/svg" xmlns:xlink="http://www.w3.org/1999/xlink" xmlns:ev="http://www.w3.org/2001/xml-events"
		xmlns:v="http://schemas.microsoft.com/visio/2003/SVGExtensions/" width="1.66267in" height="5.06947in"
		viewBox="0 0 119.713 365.002" xml:space="preserve" color-interpolation-filters="sRGB" class="st11">
	<v:documentProperties v:langID="2052" v:metric="true" v:viewMarkup="false"/>

	<style type="text/css">
	<![CDATA[
		.st1 {fill:#ccffcc;stroke:#000000;stroke-width:0.5}
		.st2 {fill:#000000;font-family:Bell MT;font-size:0.833336em}
		.st3 {fill:#ffcccc;stroke:#000000;stroke-width:0.5}
		.st4 {font-size:1em}
		.st5 {fill:#ccecff;stroke:#000000;stroke-width:0.5}
		.st6 {marker-end:url(#mrkr5-16);stroke:#000000;stroke-linecap:round;stroke-linejoin:round;stroke-width:0.5}
		.st7 {fill:#000000;fill-opacity:1;stroke:#000000;stroke-opacity:1;stroke-width:0.16556291390728}
		.st8 {fill:none;stroke:#000000;stroke-width:0.5}
		.st9 {stroke:#000000;stroke-linecap:round;stroke-linejoin:round;stroke-width:0.5}
		.st10 {fill:#fff2cc;stroke:#000000;stroke-width:0.5}
		.st11 {fill:none;fill-rule:evenodd;font-size:12px;overflow:visible;stroke-linecap:square;stroke-miterlimit:3}
	]]>
	</style>

	<defs id="Markers">
		<g id="lend5">
			<path d="M 2 1 L 0 0 L 1.98117 -0.993387 C 1.67173 -0.364515 1.67301 0.372641 1.98465 1.00043 " style="stroke:none"/>
		</g>
		<marker id="mrkr5-16" class="st7" v:arrowType="5" v:arrowSize="2" v:setback="10.57" refX="-10.57" orient="auto"
				markerUnits="strokeWidth" overflow="visible">
			<use xlink:href="#lend5" transform="scale(-6.04,-6.04) "/>
		</marker>
	</defs>
	<g v:mID="0" v:index="1" v:groupContext="foregroundPage">
		<title>页-1</title>
		<v:pageProperties v:drawingScale="0.0393701" v:pageScale="0.0393701" v:drawingUnits="24" v:shadowOffsetX="8.50394"
				v:shadowOffsetY="-8.50394"/>
		<v:layer v:name="连接线" v:index="0"/>
		<g id="shape1-1" v:mID="1" v:groupContext="shape" transform="translate(34.1732,-35.0994)">
			<title>矩形</title>
			<desc>Norm</desc>
			<v:userDefs>
				<v:ud v:nameU="visVersion" v:val="VT0(15):26"/>
			</v:userDefs>
			<v:textBlock v:margins="rect(4,4,4,4)" v:tabSpace="42.5197"/>
			<v:textRect cx="42.5197" cy="350.829" width="85.04" height="28.3465"/>
			<rect x="0" y="336.655" width="85.0394" height="28.3465" rx="5.66929" ry="5.66929" class="st1"/>
			<text x="30.43" y="353.83" class="st2" v:langID="2052"><v:paragraph v:horizAlign="1"/><v:tabList/>Norm</text>		</g>
		<g id="shape2-4" v:mID="2" v:groupContext="shape" transform="translate(34.1732,-77.6191)">
			<title>矩形.2</title>
			<desc>Spatial-Reduction Attention</desc>
			<v:userDefs>
				<v:ud v:nameU="visVersion" v:val="VT0(15):26"/>
			</v:userDefs>
			<v:textBlock v:margins="rect(4,4,4,4)" v:tabSpace="42.5197"/>
			<v:textRect cx="42.5197" cy="350.829" width="85.04" height="28.3465"/>
			<rect x="0" y="336.655" width="85.0394" height="28.3465" rx="5.66929" ry="5.66929" class="st3"/>
			<text x="6.06" y="347.83" class="st2" v:langID="2057"><v:paragraph v:horizAlign="1"/><v:tabList/>Spatial-Reduction <tspan
						x="22.73" dy="1.2em" class="st4">Attention</tspan></text>		</g>
		<g id="shape3-8" v:mID="3" v:groupContext="shape" transform="translate(34.1732,-120.139)">
			<title>矩形.3</title>
			<desc>DropPath</desc>
			<v:userDefs>
				<v:ud v:nameU="visVersion" v:val="VT0(15):26"/>
			</v:userDefs>
			<v:textBlock v:margins="rect(4,4,4,4)" v:tabSpace="42.5197"/>
			<v:textRect cx="42.5197" cy="350.829" width="85.04" height="28.3465"/>
			<rect x="0" y="336.655" width="85.0394" height="28.3465" rx="5.66929" ry="5.66929" class="st5"/>
			<text x="22.2" y="353.83" class="st2" v:langID="2052"><v:paragraph v:horizAlign="1"/><v:tabList/>DropPath</text>		</g>
		<g id="shape8-11" v:mID="8" v:groupContext="shape" v:layerMember="0" transform="translate(69.6063,-145.651)">
			<title>动态连接线</title>
			<path d="M7.09 362.17 L7.09 358.95" class="st6"/>
		</g>
		<g id="shape11-17" v:mID="11" v:groupContext="shape" v:layerMember="0" transform="translate(69.6063,-105.966)">
			<title>动态连接线.11</title>
			<path d="M7.09 365 L7.09 356.11" class="st6"/>
		</g>
		<g id="shape12-22" v:mID="12" v:groupContext="shape" v:layerMember="0" transform="translate(69.6063,-63.4458)">
			<title>动态连接线.12</title>
			<path d="M7.09 365 L7.09 356.11" class="st6"/>
		</g>
		<g id="shape13-27" v:mID="13" v:groupContext="shape" v:layerMember="0" transform="translate(69.6063,-6.75293)">
			<title>动态连接线.13</title>
			<path d="M7.09 365 L7.09 341.94" class="st6"/>
		</g>
		<g id="shape14-32" v:mID="14" v:groupContext="shape" v:layerMember="0" transform="translate(80.9449,-20.9262)">
			<title>动态连接线.14</title>
			<path d="M-4.25 365 L-55.28 365 A5.66929 5.66929 0 0 1 -60.94 359.33 L-60.94 228.94 A5.66929 5.66929 0 0 1 -55.28 223.27
						 L-15.21 223.27" class="st6"/>
		</g>
		<g id="group15-37" transform="translate(71.0236,-156.989)" v:mID="15" v:groupContext="group">
			<title>工作表.15</title>
			<g id="shape4-38" v:mID="4" v:groupContext="shape">
				<title>圆形</title>
				<v:userDefs>
					<v:ud v:nameU="visVersion" v:val="VT0(15):26"/>
				</v:userDefs>
				<path d="M0 359.33 A5.66929 5.66929 0 0 1 11.34 359.33 A5.66929 5.66929 0 1 1 0 359.33 Z" class="st8"/>
			</g>
			<g id="shape5-40" v:mID="5" v:groupContext="shape" transform="translate(1.41732,-5.6693)">
				<title>工作表.5</title>
				<path d="M0 365 L8.5 365" class="st9"/>
			</g>
			<g id="shape7-43" v:mID="7" v:groupContext="shape" transform="translate(-359.333,363.585) rotate(-90)">
				<title>工作表.7</title>
				<path d="M0 365 L8.5 365" class="st9"/>
			</g>
		</g>
		<g id="shape16-46" v:mID="16" v:groupContext="shape" transform="translate(34.1732,-196.674)">
			<title>矩形.16</title>
			<desc>Norm</desc>
			<v:userDefs>
				<v:ud v:nameU="visVersion" v:val="VT0(15):26"/>
			</v:userDefs>
			<v:textBlock v:margins="rect(4,4,4,4)" v:tabSpace="42.5197"/>
			<v:textRect cx="42.5197" cy="350.829" width="85.04" height="28.3465"/>
			<rect x="0" y="336.655" width="85.0394" height="28.3465" rx="5.66929" ry="5.66929" class="st1"/>
			<text x="30.43" y="353.83" class="st2" v:langID="2052"><v:paragraph v:horizAlign="1"/><v:tabList/>Norm</text>		</g>
		<g id="shape17-49" v:mID="17" v:groupContext="shape" transform="translate(34.1732,-239.194)">
			<title>矩形.17</title>
			<desc>MLP</desc>
			<v:userDefs>
				<v:ud v:nameU="visVersion" v:val="VT0(15):26"/>
			</v:userDefs>
			<v:textBlock v:margins="rect(4,4,4,4)" v:tabSpace="42.5197"/>
			<v:textRect cx="42.5197" cy="350.829" width="85.04" height="28.3465"/>
			<rect x="0" y="336.655" width="85.0394" height="28.3465" rx="5.66929" ry="5.66929" class="st10"/>
			<text x="31.74" y="353.83" class="st2" v:langID="2052"><v:paragraph v:horizAlign="1"/><v:tabList/>MLP</text>		</g>
		<g id="shape18-52" v:mID="18" v:groupContext="shape" transform="translate(34.1732,-281.714)">
			<title>矩形.18</title>
			<desc>DropPath</desc>
			<v:userDefs>
				<v:ud v:nameU="visVersion" v:val="VT0(15):26"/>
			</v:userDefs>
			<v:textBlock v:margins="rect(4,4,4,4)" v:tabSpace="42.5197"/>
			<v:textRect cx="42.5197" cy="350.829" width="85.04" height="28.3465"/>
			<rect x="0" y="336.655" width="85.0394" height="28.3465" rx="5.66929" ry="5.66929" class="st5"/>
			<text x="22.2" y="353.83" class="st2" v:langID="2052"><v:paragraph v:horizAlign="1"/><v:tabList/>DropPath</text>		</g>
		<g id="shape19-55" v:mID="19" v:groupContext="shape" v:layerMember="0" transform="translate(69.6063,-307.225)">
			<title>动态连接线.19</title>
			<path d="M7.09 362.17 L7.09 358.95" class="st6"/>
		</g>
		<g id="shape20-60" v:mID="20" v:groupContext="shape" v:layerMember="0" transform="translate(69.6063,-267.54)">
			<title>动态连接线.20</title>
			<path d="M7.09 365 L7.09 356.11" class="st6"/>
		</g>
		<g id="shape21-65" v:mID="21" v:groupContext="shape" v:layerMember="0" transform="translate(69.6063,-225.021)">
			<title>动态连接线.21</title>
			<path d="M7.09 365 L7.09 356.11" class="st6"/>
		</g>
		<g id="shape22-70" v:mID="22" v:groupContext="shape" v:layerMember="0" transform="translate(69.6063,-168.328)">
			<title>动态连接线.22</title>
			<path d="M7.09 365 L7.09 341.94" class="st6"/>
		</g>
		<g id="shape23-75" v:mID="23" v:groupContext="shape" v:layerMember="0" transform="translate(80.9449,-182.501)">
			<title>动态连接线.23</title>
			<path d="M-4.25 365 L-55.28 365 A5.66929 5.66929 0 0 1 -60.94 359.33 L-60.94 228.94 A5.66929 5.66929 0 0 1 -55.28 223.27
						 L-15.21 223.27" class="st6"/>
		</g>
		<g id="group24-80" transform="translate(71.0236,-318.564)" v:mID="24" v:groupContext="group">
			<title>工作表.24</title>
			<g id="shape25-81" v:mID="25" v:groupContext="shape">
				<title>圆形</title>
				<v:userDefs>
					<v:ud v:nameU="visVersion" v:val="VT0(15):26"/>
				</v:userDefs>
				<path d="M0 359.33 A5.66929 5.66929 0 0 1 11.34 359.33 A5.66929 5.66929 0 1 1 0 359.33 Z" class="st8"/>
			</g>
			<g id="shape26-83" v:mID="26" v:groupContext="shape" transform="translate(1.41732,-5.6693)">
				<title>工作表.26</title>
				<path d="M0 365 L8.5 365" class="st9"/>
			</g>
			<g id="shape27-86" v:mID="27" v:groupContext="shape" transform="translate(-359.333,363.585) rotate(-90)">
				<title>工作表.27</title>
				<path d="M0 365 L8.5 365" class="st9"/>
			</g>
		</g>
		<g id="shape28-89" v:mID="28" v:groupContext="shape" v:layerMember="0" transform="translate(69.6063,-329.903)">
			<title>动态连接线.28</title>
			<path d="M7.09 365 L7.09 341.94" class="st6"/>
		</g>
	</g>
</svg>
