<?xml version="1.0" encoding="UTF-8" standalone="no"?>
<!DOCTYPE svg PUBLIC "-//W3C//DTD SVG 1.1//EN" "http://www.w3.org/Graphics/SVG/1.1/DTD/svg11.dtd">
<!-- 由 Microsoft Visio, SVG Export 生成 3.SVG 页-1 -->
<svg xmlns="http://www.w3.org/2000/svg" xmlns:xlink="http://www.w3.org/1999/xlink" xmlns:ev="http://www.w3.org/2001/xml-events"
		xmlns:v="http://schemas.microsoft.com/visio/2003/SVGExtensions/" width="2.02165in" height="3.65215in"
		viewBox="0 0 145.559 262.955" xml:space="preserve" color-interpolation-filters="sRGB" class="st12">
	<v:documentProperties v:langID="2052" v:metric="true" v:viewMarkup="false"/>

	<style type="text/css">
	<![CDATA[
		.st1 {marker-end:url(#mrkr4-6);stroke:#000000;stroke-linecap:round;stroke-linejoin:round;stroke-width:0.5}
		.st2 {fill:#000000;fill-opacity:1;stroke:#000000;stroke-opacity:1;stroke-width:0.16556291390728}
		.st3 {fill:#f7cbac;stroke:#000000;stroke-width:0.5}
		.st4 {fill:#000000;font-family:Segoe Print;font-size:0.583328em}
		.st5 {font-size:1em}
		.st6 {fill:#ffffcc;stroke:#000000;stroke-width:0.5}
		.st7 {fill:#bdd7ee;stroke:#000000;stroke-width:0.5}
		.st8 {fill:none;stroke:none;stroke-width:0.5}
		.st9 {fill:#ff0000;font-family:Segoe Print;font-size:1.00001em}
		.st10 {fill:#00b050;font-family:Segoe Print;font-size:1.00001em}
		.st11 {fill:#3399ff;font-family:Segoe Print;font-size:1.00001em}
		.st12 {fill:none;fill-rule:evenodd;font-size:12px;overflow:visible;stroke-linecap:square;stroke-miterlimit:3}
	]]>
	</style>

	<defs id="Markers">
		<g id="lend4">
			<path d="M 2 1 L 0 0 L 2 -1 L 2 1 " style="stroke:none"/>
		</g>
		<marker id="mrkr4-6" class="st2" v:arrowType="4" v:arrowSize="2" v:setback="12.08" refX="-12.08" orient="auto"
				markerUnits="strokeWidth" overflow="visible">
			<use xlink:href="#lend4" transform="scale(-6.04,-6.04) "/>
		</marker>
	</defs>
	<g v:mID="0" v:index="1" v:groupContext="foregroundPage">
		<title>页-1</title>
		<v:pageProperties v:drawingScale="0.0393701" v:pageScale="0.0393701" v:drawingUnits="24" v:shadowOffsetX="8.50394"
				v:shadowOffsetY="-8.50394"/>
		<v:layer v:name="连接线" v:index="0"/>
		<g id="shape108-1" v:mID="108" v:groupContext="shape" v:layerMember="0" transform="translate(81.2795,-6.75293)">
			<title>动态连接线.108</title>
			<path d="M7.09 262.95 L7.09 212.3" class="st1"/>
		</g>
		<g id="shape110-7" v:mID="110" v:groupContext="shape" transform="translate(31.6732,-63.4458)">
			<title>矩形.110</title>
			<desc>Multi-Head Attention</desc>
			<v:userDefs>
				<v:ud v:nameU="visVersion" v:val="VT0(15):26"/>
			</v:userDefs>
			<v:textBlock v:margins="rect(4,4,4,4)" v:tabSpace="42.5197"/>
			<v:textRect cx="56.6929" cy="248.781" width="113.39" height="28.3465"/>
			<rect x="0" y="234.608" width="113.386" height="28.3465" rx="5.66929" ry="5.66929" class="st3"/>
			<text x="36.34" y="246.68" class="st4" v:langID="2052"><v:paragraph v:horizAlign="1"/><v:tabList/>Multi-Head<v:newlineChar/><tspan
						x="39.6" dy="1.2em" class="st5">Attention</tspan></text>		</g>
		<g id="shape124-11" v:mID="124" v:groupContext="shape" transform="translate(31.6732,-103.131)">
			<title>矩形.124</title>
			<desc>Add &#38; Norm</desc>
			<v:userDefs>
				<v:ud v:nameU="visVersion" v:val="VT0(15):26"/>
			</v:userDefs>
			<v:textBlock v:margins="rect(4,4,4,4)" v:tabSpace="42.5197"/>
			<v:textRect cx="56.6929" cy="248.781" width="113.39" height="28.3465"/>
			<rect x="0" y="234.608" width="113.386" height="28.3465" rx="5.66929" ry="5.66929" class="st6"/>
			<text x="33.12" y="250.88" class="st4" v:langID="2052"><v:paragraph v:horizAlign="1"/><v:tabList/>Add &#38; Norm</text>		</g>
		<g id="shape125-14" v:mID="125" v:groupContext="shape" v:layerMember="0" transform="translate(81.2795,-90.375)">
			<title>动态连接线.125</title>
			<path d="M7.09 261.54 L7.09 256.24" class="st1"/>
		</g>
		<g id="shape141-19" v:mID="141" v:groupContext="shape" v:layerMember="0" transform="translate(88.3661,-32.2647)">
			<title>动态连接线</title>
			<path d="M0 262.95 L-62.36 262.95 A8.50394 8.50394 0 0 1 -70.87 254.45 L-70.87 185 A7.08662 7.08662 0 0 1 -63.78 177.92
						 L-62.73 177.92" class="st1"/>
		</g>
		<g id="shape144-24" v:mID="144" v:groupContext="shape" v:layerMember="0" transform="translate(88.3661,-46.438)">
			<title>动态连接线.144</title>
			<path d="M0 262.95 L-22.68 262.95 A5.66929 5.66929 0 0 1 -28.35 257.29 L-28.35 251.99" class="st1"/>
		</g>
		<g id="shape146-29" v:mID="146" v:groupContext="shape" v:layerMember="0" transform="translate(88.3661,-46.438)">
			<title>动态连接线.146</title>
			<path d="M0 262.95 L22.68 262.95 A5.66929 5.66929 -180 0 0 28.35 257.29 L28.35 251.99" class="st1"/>
		</g>
		<g id="shape147-34" v:mID="147" v:groupContext="shape" v:layerMember="0" transform="translate(81.2795,-131.477)">
			<title>动态连接线.147</title>
			<path d="M7.09 262.95 L7.09 240.65" class="st1"/>
		</g>
		<g id="shape148-39" v:mID="148" v:groupContext="shape" transform="translate(31.6732,-159.824)">
			<title>矩形.148</title>
			<desc>Feed Forward</desc>
			<v:userDefs>
				<v:ud v:nameU="visVersion" v:val="VT0(15):26"/>
			</v:userDefs>
			<v:textBlock v:margins="rect(4,4,4,4)" v:tabSpace="42.5197"/>
			<v:textRect cx="56.6929" cy="248.781" width="113.39" height="28.3465"/>
			<rect x="0" y="234.608" width="113.386" height="28.3465" rx="5.66929" ry="5.66929" class="st7"/>
			<text x="48.66" y="246.68" class="st4" v:langID="2052"><v:paragraph v:horizAlign="1"/><v:tabList/>Feed<v:newlineChar/><tspan
						x="41.62" dy="1.2em" class="st5">Forward</tspan></text>		</g>
		<g id="shape149-43" v:mID="149" v:groupContext="shape" transform="translate(31.6732,-199.509)">
			<title>矩形.149</title>
			<desc>Add &#38; Norm</desc>
			<v:userDefs>
				<v:ud v:nameU="visVersion" v:val="VT0(15):26"/>
			</v:userDefs>
			<v:textBlock v:margins="rect(4,4,4,4)" v:tabSpace="42.5197"/>
			<v:textRect cx="56.6929" cy="248.781" width="113.39" height="28.3465"/>
			<rect x="0" y="234.608" width="113.386" height="28.3465" rx="5.66929" ry="5.66929" class="st6"/>
			<text x="33.12" y="250.88" class="st4" v:langID="2052"><v:paragraph v:horizAlign="1"/><v:tabList/>Add &#38; Norm</text>		</g>
		<g id="shape150-46" v:mID="150" v:groupContext="shape" v:layerMember="0" transform="translate(81.2795,-186.753)">
			<title>动态连接线.150</title>
			<path d="M7.09 261.54 L7.09 256.24" class="st1"/>
		</g>
		<g id="shape151-51" v:mID="151" v:groupContext="shape" v:layerMember="0" transform="translate(88.3661,-145.651)">
			<title>动态连接线.151</title>
			<path d="M0 262.95 L-62.36 262.95 A8.50394 8.50394 0 0 1 -70.87 254.45 L-70.87 202.01 A7.08661 7.08661 0 0 1 -63.78 194.92
						 L-62.73 194.92" class="st1"/>
		</g>
		<g id="shape214-56" v:mID="214" v:groupContext="shape" transform="translate(38.7598,-36.5167)">
			<title>工作表.214</title>
			<desc>V</desc>
			<v:textBlock v:margins="rect(4,4,4,4)" v:tabSpace="42.5197"/>
			<v:textRect cx="14.1732" cy="248.781" width="28.35" height="28.3465"/>
			<rect x="0" y="234.608" width="28.3465" height="28.3465" class="st8"/>
			<text x="9.87" y="252.38" class="st9" v:langID="2052"><v:paragraph v:horizAlign="1"/><v:tabList/>V</text>		</g>
		<g id="shape215-59" v:mID="215" v:groupContext="shape" transform="translate(67.1063,-36.5167)">
			<title>工作表.215</title>
			<desc>K</desc>
			<v:textBlock v:margins="rect(4,4,4,4)" v:tabSpace="42.5197"/>
			<v:textRect cx="14.1732" cy="248.781" width="28.35" height="28.3465"/>
			<rect x="0" y="234.608" width="28.3465" height="28.3465" class="st8"/>
			<text x="9.71" y="252.38" class="st10" v:langID="2052"><v:paragraph v:horizAlign="1"/><v:tabList/>K</text>		</g>
		<g id="shape216-62" v:mID="216" v:groupContext="shape" transform="translate(95.4528,-36.5167)">
			<title>工作表.216</title>
			<desc>Q</desc>
			<v:textBlock v:margins="rect(4,4,4,4)" v:tabSpace="42.5197"/>
			<v:textRect cx="14.1732" cy="248.781" width="28.35" height="28.3465"/>
			<rect x="0" y="234.608" width="28.3465" height="28.3465" class="st8"/>
			<text x="9.32" y="252.38" class="st11" v:langID="2052"><v:paragraph v:horizAlign="1"/><v:tabList/>Q</text>		</g>
		<g id="shape217-65" v:mID="217" v:groupContext="shape" v:layerMember="0" transform="translate(81.2795,-227.855)">
			<title>动态连接线.217</title>
			<path d="M7.09 262.95 L7.09 240.65" class="st1"/>
		</g>
	</g>
</svg>
